<svg width="52" height="52" viewBox="0 0 52 52" fill="none" xmlns="http://www.w3.org/2000/svg">
<rect width="52" height="52" rx="12" fill="#FF7F23"></rect>
<g clip-path="url('#clip0_2241_8872')">
<path d="M33.875 15.5001H29.9091C29.4174 14.9496 28.8151 14.5092 28.1414 14.2077C27.4678 13.9061 26.7381 13.7502 26 13.7502C25.2619 13.7502 24.5322 13.9061 23.8586 14.2077C23.1849 14.5092 22.5826 14.9496 22.0909 15.5001H18.125C17.6609 15.5001 17.2158 15.6845 16.8876 16.0126C16.5594 16.3408 16.375 16.786 16.375 17.2501V35.6251C16.375 36.0892 16.5594 36.5343 16.8876 36.8625C17.2158 37.1907 17.6609 37.3751 18.125 37.3751H33.875C34.3391 37.3751 34.7842 37.1907 35.1124 36.8625C35.4406 36.5343 35.625 36.0892 35.625 35.6251V17.2501C35.625 16.786 35.4406 16.3408 35.1124 16.0126C34.7842 15.6845 34.3391 15.5001 33.875 15.5001ZM26 15.5001C26.9283 15.5001 27.8185 15.8688 28.4749 16.5252C29.1313 17.1816 29.5 18.0718 29.5 19.0001H22.5C22.5 18.0718 22.8687 17.1816 23.5251 16.5252C24.1815 15.8688 25.0717 15.5001 26 15.5001Z" fill="white"></path>
</g>
<defs>
<clipPath id="clip0_2241_8872">
<rect width="28" height="28" fill="white" transform="translate(12 12)"></rect>
</clipPath>
</defs>
</svg>
