<svg width="25" height="24" viewBox="0 0 25 24" fill="none" xmlns="http://www.w3.org/2000/svg">
<g clip-path="url('#clip0_2717_16854')">
<path d="M19.15 2.25H5.65002C5.2522 2.25 4.87067 2.40804 4.58936 2.68934C4.30806 2.97064 4.15002 3.35218 4.15002 3.75V20.25C4.15002 20.6478 4.30806 21.0294 4.58936 21.3107C4.87067 21.592 5.2522 21.75 5.65002 21.75H19.15C19.5478 21.75 19.9294 21.592 20.2107 21.3107C20.492 21.0294 20.65 20.6478 20.65 20.25V3.75C20.65 3.35218 20.492 2.97064 20.2107 2.68934C19.9294 2.40804 19.5478 2.25 19.15 2.25ZM8.65002 18.75C8.42752 18.75 8.21001 18.684 8.02501 18.5604C7.84 18.4368 7.69581 18.2611 7.61066 18.0555C7.52551 17.85 7.50323 17.6238 7.54664 17.4055C7.59005 17.1873 7.6972 16.9868 7.85453 16.8295C8.01186 16.6722 8.21232 16.565 8.43055 16.5216C8.64878 16.4782 8.87498 16.5005 9.08054 16.5856C9.28611 16.6708 9.46181 16.815 9.58543 17C9.70904 17.185 9.77502 17.4025 9.77502 17.625C9.77502 17.9234 9.6565 18.2095 9.44552 18.4205C9.23454 18.6315 8.94839 18.75 8.65002 18.75ZM8.65002 15C8.42752 15 8.21001 14.934 8.02501 14.8104C7.84 14.6868 7.69581 14.5111 7.61066 14.3055C7.52551 14.1 7.50323 13.8738 7.54664 13.6555C7.59005 13.4373 7.6972 13.2368 7.85453 13.0795C8.01186 12.9222 8.21232 12.815 8.43055 12.7716C8.64878 12.7282 8.87498 12.7505 9.08054 12.8356C9.28611 12.9208 9.46181 13.065 9.58543 13.25C9.70904 13.435 9.77502 13.6525 9.77502 13.875C9.77502 14.1734 9.6565 14.4595 9.44552 14.6705C9.23454 14.8815 8.94839 15 8.65002 15ZM12.4 18.75C12.1775 18.75 11.96 18.684 11.775 18.5604C11.59 18.4368 11.4458 18.2611 11.3607 18.0555C11.2755 17.85 11.2532 17.6238 11.2966 17.4055C11.34 17.1873 11.4472 16.9868 11.6045 16.8295C11.7619 16.6722 11.9623 16.565 12.1805 16.5216C12.3988 16.4782 12.625 16.5005 12.8305 16.5856C13.0361 16.6708 13.2118 16.815 13.3354 17C13.459 17.185 13.525 17.4025 13.525 17.625C13.525 17.9234 13.4065 18.2095 13.1955 18.4205C12.9845 18.6315 12.6984 18.75 12.4 18.75ZM12.4 15C12.1775 15 11.96 14.934 11.775 14.8104C11.59 14.6868 11.4458 14.5111 11.3607 14.3055C11.2755 14.1 11.2532 13.8738 11.2966 13.6555C11.34 13.4373 11.4472 13.2368 11.6045 13.0795C11.7619 12.9222 11.9623 12.815 12.1805 12.7716C12.3988 12.7282 12.625 12.7505 12.8305 12.8356C13.0361 12.9208 13.2118 13.065 13.3354 13.25C13.459 13.435 13.525 13.6525 13.525 13.875C13.525 14.1734 13.4065 14.4595 13.1955 14.6705C12.9845 14.8815 12.6984 15 12.4 15ZM16.15 18.75C15.9275 18.75 15.71 18.684 15.525 18.5604C15.34 18.4368 15.1958 18.2611 15.1107 18.0555C15.0255 17.85 15.0032 17.6238 15.0466 17.4055C15.09 17.1873 15.1972 16.9868 15.3545 16.8295C15.5119 16.6722 15.7123 16.565 15.9305 16.5216C16.1488 16.4782 16.375 16.5005 16.5805 16.5856C16.7861 16.6708 16.9618 16.815 17.0854 17C17.209 17.185 17.275 17.4025 17.275 17.625C17.275 17.9234 17.1565 18.2095 16.9455 18.4205C16.7345 18.6315 16.4484 18.75 16.15 18.75ZM16.15 15C15.9275 15 15.71 14.934 15.525 14.8104C15.34 14.6868 15.1958 14.5111 15.1107 14.3055C15.0255 14.1 15.0032 13.8738 15.0466 13.6555C15.09 13.4373 15.1972 13.2368 15.3545 13.0795C15.5119 12.9222 15.7123 12.815 15.9305 12.7716C16.1488 12.7282 16.375 12.7505 16.5805 12.8356C16.7861 12.9208 16.9618 13.065 17.0854 13.25C17.209 13.435 17.275 13.6525 17.275 13.875C17.275 14.1734 17.1565 14.4595 16.9455 14.6705C16.7345 14.8815 16.4484 15 16.15 15ZM17.65 9.75C17.65 9.94891 17.571 10.1397 17.4304 10.2803C17.2897 10.421 17.0989 10.5 16.9 10.5H7.90002C7.70111 10.5 7.51035 10.421 7.36969 10.2803C7.22904 10.1397 7.15002 9.94891 7.15002 9.75V6C7.15002 5.80109 7.22904 5.61032 7.36969 5.46967C7.51035 5.32902 7.70111 5.25 7.90002 5.25H16.9C17.0989 5.25 17.2897 5.32902 17.4304 5.46967C17.571 5.61032 17.65 5.80109 17.65 6V9.75Z" fill="#939393"></path>
</g>
<defs>
<clipPath id="clip0_2717_16854">
<rect width="24" height="24" fill="white" transform="translate(0.400024)"></rect>
</clipPath>
</defs>
</svg>
