<svg width="63" height="72" viewBox="0 0 63 72" fill="none" xmlns="http://www.w3.org/2000/svg">
<circle cx="39.6378" cy="23.4704" r="22.5089" fill="#FF7F23"></circle>
<g filter="url('#filter0_bdiii_44_1946')">
<path d="M47.9205 25.6874C47.9225 22.3824 47.089 19.1304 45.4974 16.2337C43.9058 13.3369 41.6078 10.8892 38.8168 9.11804C36.0257 7.34684 32.8323 6.30954 29.5329 6.10249C26.2336 5.89544 22.9354 6.52536 19.9448 7.93374C16.9541 9.34212 14.368 11.4833 12.4266 14.1583C10.4852 16.8334 9.25146 19.9556 8.84002 23.2349C8.42859 26.5143 8.85279 29.8444 10.0732 32.9159C11.2936 35.9875 13.2707 38.7009 15.8208 40.8041L15.8208 57.7794C15.8206 58.0835 15.8981 58.3825 16.0461 58.6482C16.1941 58.9138 16.4076 59.1372 16.6663 59.2971C16.9249 59.457 17.2202 59.5481 17.5241 59.5618C17.8279 59.5754 18.1302 59.5112 18.4021 59.3751L28.304 54.4365L38.2081 59.3862C38.4564 59.505 38.7287 59.5652 39.0039 59.5623C39.4769 59.5623 39.9305 59.3745 40.2649 59.0401C40.5994 58.7057 40.7873 58.2523 40.7873 57.7794V40.8041C43.0185 38.9669 44.8152 36.6586 46.0485 34.045C47.2819 31.4314 47.9212 28.5772 47.9205 25.6874ZM12.2541 25.6874C12.2541 22.5138 13.1955 19.4115 14.959 16.7727C16.7226 14.134 19.2293 12.0773 22.162 10.8628C25.0947 9.64833 28.3218 9.33057 31.4352 9.94971C34.5486 10.5688 37.4084 12.0971 39.653 14.3412C41.8976 16.5852 43.4262 19.4444 44.0455 22.557C44.6648 25.6696 44.347 28.8959 43.1322 31.8279C41.9174 34.76 39.8602 37.266 37.2209 39.0292C34.5815 40.7923 31.4784 41.7334 28.304 41.7334C24.0488 41.7287 19.9692 40.0366 16.9603 37.0284C13.9513 34.0202 12.2589 29.9416 12.2541 25.6874ZM15.8208 25.6874C15.8208 23.219 16.5529 20.8061 17.9246 18.7538C19.2963 16.7014 21.2459 15.1018 23.5269 14.1572C25.8079 13.2126 28.3179 12.9654 30.7394 13.447C33.1609 13.9285 35.3852 15.1172 37.131 16.8625C38.8768 18.6079 40.0657 20.8317 40.5474 23.2526C41.0291 25.6735 40.7819 28.1829 39.837 30.4634C38.8922 32.7438 37.2922 34.693 35.2393 36.0643C33.1865 37.4357 30.773 38.1676 28.304 38.1676C24.9943 38.1641 21.8212 36.8481 19.4809 34.5083C17.1407 32.1686 15.8243 28.9963 15.8208 25.6874Z" fill="url('#paint0_linear_44_1946')" fill-opacity="0.52" shape-rendering="crispEdges"></path>
<path d="M16.0708 40.8041V40.6862L15.9799 40.6112C13.4623 38.5348 11.5104 35.856 10.3055 32.8236C9.10068 29.7912 8.68189 26.5036 9.08808 23.266C9.49427 20.0285 10.7123 16.9461 12.6289 14.3052C14.5456 11.6642 17.0988 9.55035 20.0513 8.15992C23.0038 6.76949 26.26 6.14759 29.5173 6.352C32.7746 6.55641 35.9274 7.58049 38.6828 9.32912C41.4383 11.0778 43.707 13.4942 45.2783 16.3541C46.8496 19.2139 47.6725 22.4244 47.6705 25.6872V25.6874C47.6711 28.5404 47.04 31.3581 45.8225 33.9383C44.6049 36.5186 42.8311 38.7973 40.6284 40.6111L40.5373 40.6861V40.8041V57.7794C40.5373 58.1859 40.3757 58.5758 40.0882 58.8633C39.8006 59.1508 39.4106 59.3123 39.0039 59.3123L39.0013 59.3123C38.765 59.3148 38.5313 59.2633 38.318 59.1617C38.3174 59.1614 38.3167 59.161 38.316 59.1607L28.4158 54.2129L28.3041 54.1571L28.1924 54.2128L18.2906 59.1514L18.2903 59.1515C18.0564 59.2685 17.7965 59.3238 17.5353 59.312C17.274 59.3003 17.0201 59.2219 16.7977 59.0845C16.5753 58.947 16.3917 58.7549 16.2645 58.5265C16.1373 58.2981 16.0706 58.041 16.0708 57.7796V57.7794V40.8041ZM15.8208 40.8041L15.8208 57.7794L40.7873 40.8041C43.0185 38.9669 44.8152 36.6586 46.0485 34.045C47.2819 31.4314 47.9212 28.5772 47.9205 25.6874C47.9225 22.3824 47.089 19.1304 45.4974 16.2337C43.9058 13.3369 41.6078 10.8892 38.8168 9.11804C36.0257 7.34684 32.8323 6.30954 29.5329 6.10249C26.2336 5.89544 22.9354 6.52536 19.9448 7.93374C16.9541 9.34212 14.368 11.4833 12.4266 14.1583C10.4852 16.8334 9.25146 19.9556 8.84002 23.2349C8.42859 26.5143 8.85279 29.8444 10.0732 32.9159C11.2936 35.9875 13.2707 38.7009 15.8208 40.8041ZM12.0041 25.6874L12.0041 25.6877C12.0089 30.0081 13.7278 34.1502 16.7835 37.2052C19.8392 40.2602 23.9823 41.9786 28.3037 41.9834H28.304C31.5278 41.9834 34.6792 41.0277 37.3597 39.237C40.0402 37.4464 42.1294 34.9013 43.3631 31.9236C44.5969 28.9459 44.9196 25.6693 44.2907 22.5082C43.6618 19.3471 42.1093 16.4434 39.8298 14.1644C37.5502 11.8853 34.6458 10.3333 31.484 9.70451C28.3221 9.07573 25.0448 9.39844 22.0663 10.6318C19.0879 11.8652 16.5422 13.9539 14.7512 16.6338C12.9601 19.3137 12.0041 22.4643 12.0041 25.6874ZM16.0708 25.6871C16.0708 23.2683 16.7883 20.9038 18.1324 18.8927C19.4766 16.8814 21.3872 15.3138 23.6225 14.3881C25.8579 13.4625 28.3176 13.2203 30.6906 13.6922C33.0637 14.1641 35.2434 15.3289 36.9543 17.0393C38.6651 18.7498 39.8302 20.929 40.3022 23.3014C40.7742 25.6738 40.532 28.1329 39.6061 30.3677C38.6802 32.6025 37.1122 34.5126 35.1005 35.8564C33.0888 37.2003 30.7237 37.9176 28.3043 37.9176C25.0608 37.9142 21.9512 36.6245 19.6577 34.3315C17.3642 32.0386 16.0743 28.9298 16.0708 25.6871Z" stroke="white" stroke-opacity="0.2" stroke-width="0.5" shape-rendering="crispEdges"></path>
</g>
<defs>
<filter id="filter0_bdiii_44_1946" x="-21.3125" y="-23.936" width="99.233" height="113.5" filterUnits="userSpaceOnUse" color-interpolation-filters="sRGB">
<feFlood flood-opacity="0" result="BackgroundImageFix"></feFlood>
<feGaussianBlur in="BackgroundImageFix" stdDeviation="15"></feGaussianBlur>
<feComposite in2="SourceAlpha" operator="in" result="effect1_backgroundBlur_44_1946"></feComposite>
<feColorMatrix in="SourceAlpha" type="matrix" values="0 0 0 0 0 0 0 0 0 0 0 0 0 0 0 0 0 0 127 0" result="hardAlpha"></feColorMatrix>
<feOffset dy="4"></feOffset>
<feGaussianBlur stdDeviation="4"></feGaussianBlur>
<feComposite in2="hardAlpha" operator="out"></feComposite>
<feColorMatrix type="matrix" values="0 0 0 0 0.805192 0 0 0 0 0.708514 0 0 0 0 0.638204 0 0 0 1 0"></feColorMatrix>
<feBlend mode="normal" in2="effect1_backgroundBlur_44_1946" result="effect2_dropShadow_44_1946"></feBlend>
<feBlend mode="normal" in="SourceGraphic" in2="effect2_dropShadow_44_1946" result="shape"></feBlend>
<feColorMatrix in="SourceAlpha" type="matrix" values="0 0 0 0 0 0 0 0 0 0 0 0 0 0 0 0 0 0 127 0" result="hardAlpha"></feColorMatrix>
<feOffset dy="0.5"></feOffset>
<feGaussianBlur stdDeviation="1"></feGaussianBlur>
<feComposite in2="hardAlpha" operator="arithmetic" k2="-1" k3="1"></feComposite>
<feColorMatrix type="matrix" values="0 0 0 0 1 0 0 0 0 1 0 0 0 0 1 0 0 0 0.1 0"></feColorMatrix>
<feBlend mode="normal" in2="shape" result="effect3_innerShadow_44_1946"></feBlend>
<feColorMatrix in="SourceAlpha" type="matrix" values="0 0 0 0 0 0 0 0 0 0 0 0 0 0 0 0 0 0 127 0" result="hardAlpha"></feColorMatrix>
<feOffset dy="6"></feOffset>
<feGaussianBlur stdDeviation="7"></feGaussianBlur>
<feComposite in2="hardAlpha" operator="arithmetic" k2="-1" k3="1"></feComposite>
<feColorMatrix type="matrix" values="0 0 0 0 1 0 0 0 0 1 0 0 0 0 1 0 0 0 0.4 0"></feColorMatrix>
<feBlend mode="normal" in2="effect3_innerShadow_44_1946" result="effect4_innerShadow_44_1946"></feBlend>
<feColorMatrix in="SourceAlpha" type="matrix" values="0 0 0 0 0 0 0 0 0 0 0 0 0 0 0 0 0 0 127 0" result="hardAlpha"></feColorMatrix>
<feOffset dy="-4"></feOffset>
<feGaussianBlur stdDeviation="9"></feGaussianBlur>
<feComposite in2="hardAlpha" operator="arithmetic" k2="-1" k3="1"></feComposite>
<feColorMatrix type="matrix" values="0 0 0 0 1 0 0 0 0 1 0 0 0 0 1 0 0 0 0.05 0"></feColorMatrix>
<feBlend mode="normal" in2="effect4_innerShadow_44_1946" result="effect5_innerShadow_44_1946"></feBlend>
</filter>
<linearGradient id="paint0_linear_44_1946" x1="10.9374" y1="16.0648" x2="51.635" y2="31.8787" gradientUnits="userSpaceOnUse">
<stop stop-color="white"></stop>
<stop offset="0.888184" stop-color="white"></stop>
</linearGradient>
</defs>
</svg>
