<svg xmlns="http://www.w3.org/2000/svg" width="26" height="26" fill="none"><path fill="#fff" d="M9.67 5.607a1.844 1.844 0 0 0-3.034.673L.511 23.124A1.847 1.847 0 0 0 2.233 25.6c.218-.002.433-.041.637-.117l16.848-6.125a1.843 1.843 0 0 0 .674-3.033L9.67 5.607ZM4.261 18.265l2.24-6.159 7.39 7.388-6.161 2.24-3.469-3.469Zm11.07-10.398c.018-.631.17-1.251.448-1.818.619-1.236 1.786-1.916 3.286-1.916.782 0 1.284-.267 1.593-.84.163-.322.256-.674.274-1.033a.933.933 0 0 1 1.868.007c0 1.5-.995 3.733-3.735 3.733-.782 0-1.283.267-1.593.841a2.567 2.567 0 0 0-.274 1.033.93.93 0 0 1-.937.93.934.934 0 0 1-.93-.937Zm-2.8-3.734v-2.8a.933.933 0 0 1 1.867 0v2.8a.933.933 0 0 1-1.868 0Zm11.863 9.607a.933.933 0 1 1-1.321 1.32l-1.867-1.868a.934.934 0 1 1 1.32-1.32l1.868 1.868Zm.568-4.988-2.8.933a.934.934 0 0 1-.591-1.77l2.8-.934a.934.934 0 0 1 .591 1.771Z"></path></svg>