<svg xmlns="http://www.w3.org/2000/svg" width="67" height="72" fill="none"><circle cx="43.517" cy="24.385" r="22.509" fill="#FF7F23"></circle><g filter="url('#a')" shape-rendering="crispEdges"><path fill="url('#b')" fill-opacity=".52" d="M37.169 14.216c-1.265-4.288-7.34-4.288-8.606 0l-.306 1.04a4.482 4.482 0 0 1-6.446 2.671l-.95-.52c-3.929-2.138-8.226 2.159-6.085 6.085l.518.952a4.484 4.484 0 0 1-2.67 6.447l-1.042.306c-4.288 1.265-4.288 7.341 0 8.606l1.041.306a4.482 4.482 0 0 1 2.67 6.447l-.52.949c-2.138 3.93 2.159 8.226 6.085 6.085l.953-.517a4.484 4.484 0 0 1 6.446 2.67l.306 1.041c1.265 4.288 7.341 4.288 8.606 0l.306-1.04a4.483 4.483 0 0 1 6.447-2.671l.95.52c3.928 2.138 8.225-2.159 6.084-6.085l-.517-.952a4.484 4.484 0 0 1 2.67-6.447l1.042-.306c4.287-1.265 4.287-7.341 0-8.606l-1.042-.306a4.483 4.483 0 0 1-2.67-6.447l.52-.949c2.138-3.93-2.159-8.226-6.085-6.085l-.952.517a4.484 4.484 0 0 1-6.447-2.67l-.306-1.041Zm-4.303 30.257a8.973 8.973 0 1 1 6.343-15.319 8.97 8.97 0 0 1-6.343 15.313v.006Z"></path><path stroke="#fff" stroke-opacity=".2" stroke-width=".5" d="M28.497 15.327a4.733 4.733 0 0 1-6.806 2.82l-.95-.52c-3.71-2.02-7.766 2.039-5.745 5.745l.517.953c1.442 2.651.075 5.952-2.82 6.806l-1.04.306c-4.049 1.194-4.049 6.932 0 8.126l1.04.306a4.734 4.734 0 0 1 2.82 6.806l-.52.95c-2.019 3.71 2.039 7.767 5.745 5.746l.953-.518 6.806-37.526Zm0 0 .306-1.04c1.194-4.05 6.932-4.05 8.126 0l.306 1.04a4.733 4.733 0 0 0 6.806 2.82l.953-.517c3.707-2.022 7.764 2.034 5.746 5.745l-.52.95a4.734 4.734 0 0 0 2.819 6.806l1.04.306c4.05 1.194 4.05 6.932 0 8.126l-1.04.306a4.735 4.735 0 0 0-2.82 6.806l.518.952c2.02 3.707-2.035 7.765-5.746 5.747l-.949-.52a4.733 4.733 0 0 0-6.806 2.819l-.307 1.04c-1.194 4.05-6.932 4.05-8.126 0l-.306-1.04m0-40.346v40.346m0 0a4.733 4.733 0 0 0-6.806-2.82l6.806 2.82Zm4.37-10.95h.25v-.01a9.22 9.22 0 1 0-6.772-15.735 9.223 9.223 0 0 0 6.521 15.745Z"></path></g><defs><linearGradient id="b" x1="11.176" x2="56.855" y1="20.16" y2="44.364" gradientUnits="userSpaceOnUse"><stop stop-color="#fff"></stop><stop offset=".888" stop-color="#fff"></stop></linearGradient><filter id="a" width="109" height="109" x="-21.634" y="-19" color-interpolation-filters="sRGB" filterUnits="userSpaceOnUse"><feFlood flood-opacity="0" result="BackgroundImageFix"></feFlood><feGaussianBlur in="BackgroundImageFix" stdDeviation="15"></feGaussianBlur><feComposite in2="SourceAlpha" operator="in" result="effect1_backgroundBlur_40000001_17876"></feComposite><feColorMatrix in="SourceAlpha" result="hardAlpha" values="0 0 0 0 0 0 0 0 0 0 0 0 0 0 0 0 0 0 127 0"></feColorMatrix><feOffset dy="4"></feOffset><feGaussianBlur stdDeviation="4"></feGaussianBlur><feComposite in2="hardAlpha" operator="out"></feComposite><feColorMatrix values="0 0 0 0 0.805192 0 0 0 0 0.708514 0 0 0 0 0.638204 0 0 0 1 0"></feColorMatrix><feBlend in2="effect1_backgroundBlur_40000001_17876" result="effect2_dropShadow_40000001_17876"></feBlend><feBlend in="SourceGraphic" in2="effect2_dropShadow_40000001_17876" result="shape"></feBlend><feColorMatrix in="SourceAlpha" result="hardAlpha" values="0 0 0 0 0 0 0 0 0 0 0 0 0 0 0 0 0 0 127 0"></feColorMatrix><feOffset dy=".5"></feOffset><feGaussianBlur stdDeviation="1"></feGaussianBlur><feComposite in2="hardAlpha" k2="-1" k3="1" operator="arithmetic"></feComposite><feColorMatrix values="0 0 0 0 1 0 0 0 0 1 0 0 0 0 1 0 0 0 0.1 0"></feColorMatrix><feBlend in2="shape" result="effect3_innerShadow_40000001_17876"></feBlend><feColorMatrix in="SourceAlpha" result="hardAlpha" values="0 0 0 0 0 0 0 0 0 0 0 0 0 0 0 0 0 0 127 0"></feColorMatrix><feOffset dy="6"></feOffset><feGaussianBlur stdDeviation="7"></feGaussianBlur><feComposite in2="hardAlpha" k2="-1" k3="1" operator="arithmetic"></feComposite><feColorMatrix values="0 0 0 0 1 0 0 0 0 1 0 0 0 0 1 0 0 0 0.4 0"></feColorMatrix><feBlend in2="effect3_innerShadow_40000001_17876" result="effect4_innerShadow_40000001_17876"></feBlend><feColorMatrix in="SourceAlpha" result="hardAlpha" values="0 0 0 0 0 0 0 0 0 0 0 0 0 0 0 0 0 0 127 0"></feColorMatrix><feOffset dy="-4"></feOffset><feGaussianBlur stdDeviation="9"></feGaussianBlur><feComposite in2="hardAlpha" k2="-1" k3="1" operator="arithmetic"></feComposite><feColorMatrix values="0 0 0 0 1 0 0 0 0 1 0 0 0 0 1 0 0 0 0.05 0"></feColorMatrix><feBlend in2="effect4_innerShadow_40000001_17876" result="effect5_innerShadow_40000001_17876"></feBlend></filter></defs></svg>