<svg width="196" height="171" viewBox="0 0 196 171" fill="none" xmlns="http://www.w3.org/2000/svg"><g filter="url('#filter0_bdiii_113_12836')"><path d="M178.947 95.686a20.123 20.123 0 0 0-15.428-3.966c15.569-15.766 23.445-31.44 23.445-46.806 0-22.01-17.65-39.913-39.346-39.913a39.344 39.344 0 0 0-16.684 3.598 39.458 39.458 0 0 0-13.608 10.33 39.455 39.455 0 0 0-13.607-10.33A39.347 39.347 0 0 0 87.034 5C65.34 5 47.69 22.903 47.69 44.914c0 9.146 2.686 18.035 8.34 27.44A26.402 26.402 0 0 0 43.8 79.338L25.049 98.131H1.264a13.245 13.245 0 0 0-9.379 3.896A13.328 13.328 0 0 0-12 111.435v33.261c0 3.528 1.398 6.912 3.885 9.407A13.244 13.244 0 0 0 1.265 158h86.217a6.56 6.56 0 0 0 1.608-.2l53.057-13.304c.338-.081.668-.192.987-.332l32.223-13.754.365-.166a20.411 20.411 0 0 0 7.706-6.734 20.511 20.511 0 0 0 1.863-19.76 20.441 20.441 0 0 0-6.311-8.064h-.033Zm-9.036 22.576-31.503 13.454-51.755 12.98H34.425v-37.161l18.76-18.809a13.113 13.113 0 0 1 9.376-3.9h41.501a9.932 9.932 0 0 1 7.034 2.923 9.992 9.992 0 0 1 2.914 7.056 9.99 9.99 0 0 1-2.914 7.055 9.93 9.93 0 0 1-7.034 2.923H80.85a6.624 6.624 0 0 0-4.69 1.948 6.664 6.664 0 0 0 0 9.408 6.624 6.624 0 0 0 4.69 1.948h26.528a6.86 6.86 0 0 0 1.484-.166l55.544-12.814.257-.066a7.11 7.11 0 0 1 5.081.487 7.164 7.164 0 0 1 .142 12.734h.025Z" fill="url('#paint0_linear_113_12836')" fill-opacity=".5" shape-rendering="crispEdges"></path></g><defs><linearGradient id="paint0_linear_113_12836" x1="87.5" y1="5" x2="87.5" y2="158" gradientUnits="userSpaceOnUse"><stop stop-color="#4E8F7F"></stop><stop offset="1" stop-color="#fff"></stop></linearGradient><filter id="filter0_bdiii_113_12836" x="-35" y="-18" width="245" height="199" filterUnits="userSpaceOnUse" color-interpolation-filters="sRGB"><feFlood flood-opacity="0" result="BackgroundImageFix"></feFlood><feGaussianBlur in="BackgroundImageFix" stdDeviation="11.5"></feGaussianBlur><feComposite in2="SourceAlpha" operator="in" result="effect1_backgroundBlur_113_12836"></feComposite><feColorMatrix in="SourceAlpha" values="0 0 0 0 0 0 0 0 0 0 0 0 0 0 0 0 0 0 127 0" result="hardAlpha"></feColorMatrix><feOffset dy="4"></feOffset><feGaussianBlur stdDeviation="4.5"></feGaussianBlur><feComposite in2="hardAlpha" operator="out"></feComposite><feColorMatrix values="0 0 0 0 0.0169705 0 0 0 0 0.32902 0 0 0 0 0.25248 0 0 0 1 0"></feColorMatrix><feBlend in2="effect1_backgroundBlur_113_12836" result="effect2_dropShadow_113_12836"></feBlend><feBlend in="SourceGraphic" in2="effect2_dropShadow_113_12836" result="shape"></feBlend><feColorMatrix in="SourceAlpha" values="0 0 0 0 0 0 0 0 0 0 0 0 0 0 0 0 0 0 127 0" result="hardAlpha"></feColorMatrix><feOffset dy=".5"></feOffset><feGaussianBlur stdDeviation="1"></feGaussianBlur><feComposite in2="hardAlpha" operator="arithmetic" k2="-1" k3="1"></feComposite><feColorMatrix values="0 0 0 0 1 0 0 0 0 1 0 0 0 0 1 0 0 0 0.15 0"></feColorMatrix><feBlend in2="shape" result="effect3_innerShadow_113_12836"></feBlend><feColorMatrix in="SourceAlpha" values="0 0 0 0 0 0 0 0 0 0 0 0 0 0 0 0 0 0 127 0" result="hardAlpha"></feColorMatrix><feOffset dy="6"></feOffset><feGaussianBlur stdDeviation="7"></feGaussianBlur><feComposite in2="hardAlpha" operator="arithmetic" k2="-1" k3="1"></feComposite><feColorMatrix values="0 0 0 0 1 0 0 0 0 1 0 0 0 0 1 0 0 0 0.15 0"></feColorMatrix><feBlend in2="effect3_innerShadow_113_12836" result="effect4_innerShadow_113_12836"></feBlend><feColorMatrix in="SourceAlpha" values="0 0 0 0 0 0 0 0 0 0 0 0 0 0 0 0 0 0 127 0" result="hardAlpha"></feColorMatrix><feOffset dy="-4"></feOffset><feGaussianBlur stdDeviation="9"></feGaussianBlur><feComposite in2="hardAlpha" operator="arithmetic" k2="-1" k3="1"></feComposite><feColorMatrix values="0 0 0 0 1 0 0 0 0 1 0 0 0 0 1 0 0 0 0.15 0"></feColorMatrix><feBlend in2="effect4_innerShadow_113_12836" result="effect5_innerShadow_113_12836"></feBlend></filter></defs></svg>
