<svg width="66" height="70" viewBox="0 0 66 70" fill="none" xmlns="http://www.w3.org/2000/svg"><circle cx="42.517" cy="24.385" r="22.509" fill="#FF7F23"></circle><g filter="url('#filter0_bdiii_44_1429')" shape-rendering="crispEdges"><path d="M48.478 13.203h-36.55a3.655 3.655 0 0 0-3.655 3.655v36.549a3.655 3.655 0 0 0 3.655 3.655h36.55a3.654 3.654 0 0 0 3.655-3.655v-36.55a3.655 3.655 0 0 0-3.655-3.654ZM15.583 22.34h29.24a1.828 1.828 0 1 1 0 3.655h-29.24a1.827 1.827 0 1 1 0-3.655Zm12.793 25.585H15.583a1.827 1.827 0 1 1 0-3.655h12.793a1.827 1.827 0 1 1 0 3.655ZM32.03 36.96H15.583a1.827 1.827 0 0 1 0-3.655h16.448a1.828 1.828 0 0 1 0 3.655Zm14.62 7.31h-3.656v3.655a1.827 1.827 0 1 1-3.655 0V44.27h-3.655a1.827 1.827 0 0 1 0-3.655h3.655V36.96a1.828 1.828 0 0 1 3.655 0v3.655h3.655a1.827 1.827 0 1 1 0 3.655Z" fill="url('#paint0_linear_44_1429')" fill-opacity=".52"></path><path d="M11.928 13.453h36.55a3.405 3.405 0 0 1 3.405 3.405v36.549a3.405 3.405 0 0 1-3.405 3.405h-36.55a3.405 3.405 0 0 1-3.405-3.405v-36.55a3.405 3.405 0 0 1 3.405-3.404Zm32.895 8.637h-29.24a2.077 2.077 0 0 0 0 4.155h29.24a2.078 2.078 0 1 0 0-4.155Zm-29.24 26.085h12.793a2.077 2.077 0 0 0 0-4.155H15.583a2.077 2.077 0 0 0 0 4.155Zm0-10.965h16.448a2.078 2.078 0 0 0 0-4.155H15.583a2.077 2.077 0 0 0 0 4.155Zm27.662 10.715V44.52h3.405a2.077 2.077 0 1 0 0-4.155h-3.405V36.96a2.077 2.077 0 0 0-4.155 0v3.405h-3.405a2.077 2.077 0 0 0 0 4.155h3.405v3.405a2.077 2.077 0 0 0 4.155 0Z" stroke="#fff" stroke-opacity=".2" stroke-width=".5"></path></g><defs><linearGradient id="paint0_linear_44_1429" x1="10.789" y1="21.401" x2="51.675" y2="43.066" gradientUnits="userSpaceOnUse"><stop stop-color="#fff"></stop><stop offset=".888" stop-color="#fff"></stop></linearGradient><filter id="filter0_bdiii_44_1429" x="-21.727" y="-16.797" width="103.859" height="103.859" filterUnits="userSpaceOnUse" color-interpolation-filters="sRGB"><feFlood flood-opacity="0" result="BackgroundImageFix"></feFlood><feGaussianBlur in="BackgroundImageFix" stdDeviation="15"></feGaussianBlur><feComposite in2="SourceAlpha" operator="in" result="effect1_backgroundBlur_44_1429"></feComposite><feColorMatrix in="SourceAlpha" values="0 0 0 0 0 0 0 0 0 0 0 0 0 0 0 0 0 0 127 0" result="hardAlpha"></feColorMatrix><feOffset dy="4"></feOffset><feGaussianBlur stdDeviation="4"></feGaussianBlur><feComposite in2="hardAlpha" operator="out"></feComposite><feColorMatrix values="0 0 0 0 0.805192 0 0 0 0 0.708514 0 0 0 0 0.638204 0 0 0 1 0"></feColorMatrix><feBlend in2="effect1_backgroundBlur_44_1429" result="effect2_dropShadow_44_1429"></feBlend><feBlend in="SourceGraphic" in2="effect2_dropShadow_44_1429" result="shape"></feBlend><feColorMatrix in="SourceAlpha" values="0 0 0 0 0 0 0 0 0 0 0 0 0 0 0 0 0 0 127 0" result="hardAlpha"></feColorMatrix><feOffset dy=".5"></feOffset><feGaussianBlur stdDeviation="1"></feGaussianBlur><feComposite in2="hardAlpha" operator="arithmetic" k2="-1" k3="1"></feComposite><feColorMatrix values="0 0 0 0 1 0 0 0 0 1 0 0 0 0 1 0 0 0 0.1 0"></feColorMatrix><feBlend in2="shape" result="effect3_innerShadow_44_1429"></feBlend><feColorMatrix in="SourceAlpha" values="0 0 0 0 0 0 0 0 0 0 0 0 0 0 0 0 0 0 127 0" result="hardAlpha"></feColorMatrix><feOffset dy="6"></feOffset><feGaussianBlur stdDeviation="7"></feGaussianBlur><feComposite in2="hardAlpha" operator="arithmetic" k2="-1" k3="1"></feComposite><feColorMatrix values="0 0 0 0 1 0 0 0 0 1 0 0 0 0 1 0 0 0 0.4 0"></feColorMatrix><feBlend in2="effect3_innerShadow_44_1429" result="effect4_innerShadow_44_1429"></feBlend><feColorMatrix in="SourceAlpha" values="0 0 0 0 0 0 0 0 0 0 0 0 0 0 0 0 0 0 127 0" result="hardAlpha"></feColorMatrix><feOffset dy="-4"></feOffset><feGaussianBlur stdDeviation="9"></feGaussianBlur><feComposite in2="hardAlpha" operator="arithmetic" k2="-1" k3="1"></feComposite><feColorMatrix values="0 0 0 0 1 0 0 0 0 1 0 0 0 0 1 0 0 0 0.05 0"></feColorMatrix><feBlend in2="effect4_innerShadow_44_1429" result="effect5_innerShadow_44_1429"></feBlend></filter></defs></svg>
