<svg width="52" height="52" viewBox="0 0 52 52" fill="none" xmlns="http://www.w3.org/2000/svg"><rect width="52" height="52" rx="12" fill="#FF7F23"></rect><g clip-path="url('#clip0_2859_4902')"><path d="M25.824 14.1a9.636 9.636 0 0 0-9.625 9.625c0 8.236 8.75 14.456 9.123 14.716a.875.875 0 0 0 1.004 0c.373-.26 9.123-6.48 9.123-14.716a9.636 9.636 0 0 0-9.625-9.625Zm0 6.125a3.5 3.5 0 1 1 0 7 3.5 3.5 0 0 1 0-7Z" fill="#fff"></path></g><defs><clipPath id="clip0_2859_4902"><path fill="#fff" d="M12 12h28v28H12z"></path></clipPath></defs></svg>
