<svg width="52" height="52" viewBox="0 0 52 52" fill="none" xmlns="http://www.w3.org/2000/svg"><rect width="52" height="52" rx="12" fill="#FF7F23"></rect><g clip-path="url('#clip0_2241_13725')"><path d="M38.25 18.125v15.75a.875.875 0 0 1-.875.875H29.5a2.625 2.625 0 0 0-2.625 2.618.864.864 0 0 1-.56.826.875.875 0 0 1-1.19-.819A2.625 2.625 0 0 0 22.5 34.75h-7.875a.875.875 0 0 1-.875-.875v-15.75a.875.875 0 0 1 .875-.875h7a3.5 3.5 0 0 1 3.5 3.5v9.596a.894.894 0 0 0 .817.902.874.874 0 0 0 .933-.875V20.75a3.5 3.5 0 0 1 3.5-3.5h7a.875.875 0 0 1 .875.875Z" fill="#fff"></path></g><defs><clipPath id="clip0_2241_13725"><path fill="#fff" d="M12 12h28v28H12z"></path></clipPath></defs></svg>
