<svg width="52" height="52" viewBox="0 0 52 52" fill="none" xmlns="http://www.w3.org/2000/svg"><rect width="52" height="52" rx="12" fill="#FF7F23"></rect><g clip-path="url('#clip0_2859_16210')"><path d="m37.038 24.423-5.849 5.868c.5 1.386.706 3.707-1.442 6.563a1.743 1.743 0 0 1-1.277.694h-.123a1.749 1.749 0 0 1-1.238-.513l-5.279-5.283-4.662 4.665a.876.876 0 0 1-1.239-1.238l4.666-4.662-5.282-5.283a1.748 1.748 0 0 1 .142-2.601c2.78-2.243 5.441-1.802 6.606-1.437l5.863-5.884a1.75 1.75 0 0 1 2.475 0l6.638 6.637a1.75 1.75 0 0 1 0 2.474Z" fill="#fff"></path></g><defs><clipPath id="clip0_2859_16210"><path fill="#fff" d="M12 12h28v28H12z"></path></clipPath></defs></svg>
