<svg width="52" height="52" viewBox="0 0 52 52" fill="none" xmlns="http://www.w3.org/2000/svg"><rect width="52" height="52" rx="12" fill="#FF7F23"></rect><g clip-path="url('#clip0_2859_5129')"><path d="M38.047 35.797h-1.72v-12.25a1.75 1.75 0 0 0-1.75-1.75h-4.813a.437.437 0 0 0-.438.437v13.563h-1.75V16.592a1.797 1.797 0 0 0-.674-1.422 1.75 1.75 0 0 0-2.047-.076l-8.75 5.828a1.75 1.75 0 0 0-.779 1.459v13.416h-1.72a.895.895 0 0 0-.905.817.876.876 0 0 0 .875.933h24.5a.873.873 0 0 0 .875-.933.895.895 0 0 0-.904-.817Zm-17.908-2.625a.873.873 0 0 1-.933.875.894.894 0 0 1-.817-.906v-1.69a.896.896 0 0 1 .817-.904.875.875 0 0 1 .933.875v1.75Zm0-6.125a.873.873 0 0 1-.933.875.896.896 0 0 1-.817-.906v-1.69a.896.896 0 0 1 .817-.904.875.875 0 0 1 .933.875v1.75Z" fill="#fff"></path></g><defs><clipPath id="clip0_2859_5129"><path fill="#fff" d="M12 12h28v28H12z"></path></clipPath></defs></svg>
