<svg width="52" height="52" viewBox="0 0 52 52" fill="none" xmlns="http://www.w3.org/2000/svg">
<rect width="52" height="52" rx="12" fill="#FF7F23"></rect>
<g clip-path="url('#clip0_2241_11434')">
<path d="M24.2052 31.8483C24.2491 31.9798 24.261 32.1199 24.2401 32.257C24.2192 32.394 24.166 32.5242 24.085 32.6366C24.0039 32.7491 23.8972 32.8407 23.7738 32.9039C23.6504 32.9671 23.5137 33 23.3751 33H14.6251C14.4864 33 14.3497 32.9671 14.2263 32.9039C14.1029 32.8407 13.9963 32.7491 13.9152 32.6366C13.8341 32.5242 13.7809 32.394 13.76 32.257C13.7391 32.1199 13.7511 31.9798 13.7949 31.8483L18.1699 18.7233C18.228 18.549 18.3394 18.3974 18.4884 18.29C18.6374 18.1826 18.8164 18.1248 19.0001 18.1248C19.1837 18.1248 19.3628 18.1826 19.5118 18.29C19.6608 18.3974 19.7722 18.549 19.8302 18.7233L24.2052 31.8483ZM34.7501 20.3125C34.7501 19.1876 34.4165 18.088 33.7915 17.1527C33.1666 16.2174 32.2783 15.4884 31.2391 15.0579C30.1998 14.6275 29.0563 14.5148 27.953 14.7343C26.8497 14.9537 25.8363 15.4954 25.0409 16.2908C24.2455 17.0862 23.7038 18.0997 23.4844 19.2029C23.2649 20.3062 23.3775 21.4498 23.808 22.489C24.2385 23.5283 24.9675 24.4165 25.9028 25.0415C26.8381 25.6664 27.9377 26 29.0626 26C30.5705 25.9983 32.0161 25.3985 33.0823 24.3323C34.1486 23.266 34.7483 21.8204 34.7501 20.3125ZM36.5001 27.75H26.8751C26.643 27.75 26.4204 27.8422 26.2563 28.0063C26.0923 28.1704 26.0001 28.3929 26.0001 28.625V34.75C26.0001 34.9821 26.0923 35.2046 26.2563 35.3687C26.4204 35.5328 26.643 35.625 26.8751 35.625H36.5001C36.7321 35.625 36.9547 35.5328 37.1188 35.3687C37.2829 35.2046 37.3751 34.9821 37.3751 34.75V28.625C37.3751 28.3929 37.2829 28.1704 37.1188 28.0063C36.9547 27.8422 36.7321 27.75 36.5001 27.75Z" fill="white"></path>
</g>
<defs>
<clipPath id="clip0_2241_11434">
<rect width="28" height="28" fill="white" transform="translate(12 12)"></rect>
</clipPath>
</defs>
</svg>
