<svg width="52" height="52" viewBox="0 0 52 52" fill="none" xmlns="http://www.w3.org/2000/svg">
<rect width="52" height="52" rx="12" fill="#FF7F23"></rect>
<g clip-path="url('#clip0_2241_8624')">
<path d="M27.7795 17.0236C27.8092 16.9126 27.8605 16.8085 27.9305 16.7172C28.0004 16.626 28.0877 16.5495 28.1872 16.492C28.2868 16.4345 28.3966 16.3972 28.5106 16.3822C28.6246 16.3672 28.7404 16.3748 28.8514 16.4046C30.4735 16.8278 31.9535 17.6758 33.1389 18.8612C34.3243 20.0466 35.1723 21.5265 35.5955 23.1486C35.6252 23.2596 35.6328 23.3755 35.6178 23.4894C35.6028 23.6034 35.5655 23.7133 35.508 23.8128C35.4505 23.9124 35.374 23.9996 35.2828 24.0695C35.1916 24.1395 35.0875 24.1908 34.9764 24.2205C34.9025 24.2399 34.8264 24.2498 34.75 24.25C34.5573 24.2501 34.37 24.1865 34.2172 24.0693C34.0643 23.952 33.9544 23.7875 33.9045 23.6014C33.5595 22.277 32.8675 21.0686 31.8999 20.1008C30.9323 19.133 29.724 18.4408 28.3997 18.0955C28.2886 18.0659 28.1843 18.0147 28.093 17.9448C28.0017 17.8749 27.925 17.7877 27.8674 17.6881C27.8098 17.5886 27.7724 17.4786 27.7573 17.3646C27.7422 17.2506 27.7498 17.1347 27.7795 17.0236ZM27.5247 21.5955C29.033 21.998 30.002 22.9681 30.4045 24.4764C30.4544 24.6625 30.5643 24.827 30.7172 24.9443C30.87 25.0615 31.0573 25.1251 31.25 25.125C31.3264 25.1248 31.4025 25.1149 31.4764 25.0955C31.5875 25.0658 31.6916 25.0145 31.7828 24.9445C31.874 24.8746 31.9505 24.7874 32.008 24.6878C32.0655 24.5883 32.1028 24.4784 32.1178 24.3644C32.1328 24.2505 32.1252 24.1346 32.0955 24.0236C31.5355 21.928 30.072 20.4646 27.9764 19.9046C27.7522 19.8447 27.5133 19.8763 27.3124 19.9925C27.1115 20.1087 26.965 20.2999 26.9051 20.5242C26.8452 20.7484 26.8768 20.9872 26.993 21.1882C27.1092 21.3891 27.3005 21.5356 27.5247 21.5955ZM35.4467 30.2066L30.2941 27.8977L30.2799 27.8911C30.0124 27.7767 29.7206 27.7308 29.4308 27.7575C29.1411 27.7843 28.8627 27.8828 28.6206 28.0442C28.5921 28.0631 28.5647 28.0835 28.5386 28.1055L25.8764 30.375C24.1899 29.5558 22.4486 27.8277 21.6294 26.163L23.9022 23.4603C23.9241 23.433 23.9449 23.4056 23.9645 23.3761C24.1225 23.1347 24.2184 22.858 24.2435 22.5706C24.2687 22.2833 24.2225 21.9941 24.1089 21.7289V21.7158L21.7934 16.5544C21.6433 16.208 21.3852 15.9194 21.0576 15.7317C20.7299 15.5441 20.3504 15.4674 19.9756 15.5131C18.4936 15.7082 17.1332 16.436 16.1485 17.5608C15.1639 18.6855 14.6223 20.1302 14.625 21.625C14.625 30.3094 21.6906 37.375 30.375 37.375C31.8698 37.3777 33.3145 36.8361 34.4393 35.8515C35.564 34.8669 36.2919 33.5065 36.4869 32.0244C36.5327 31.6497 36.4562 31.2703 36.2688 30.9427C36.0813 30.6151 35.793 30.3569 35.4467 30.2066Z" fill="white"></path>
</g>
<defs>
<clipPath id="clip0_2241_8624">
<rect width="28" height="28" fill="white" transform="translate(12 12)"></rect>
</clipPath>
</defs>
</svg>
