<svg xmlns="http://www.w3.org/2000/svg" width="48" height="48" fill="none"><g filter="url('#a')"><path fill="#fff" fill-rule="evenodd" d="M21 8C13.82 8 8 13.82 8 21s5.82 13 13 13 13-5.82 13-13S28.18 8 21 8ZM4 21c0-9.389 7.611-17 17-17s17 7.611 17 17c0 3.974-1.363 7.629-3.648 10.524l9.062 9.062a2 2 0 1 1-2.828 2.828l-9.062-9.062A16.928 16.928 0 0 1 21 38c-9.389 0-17-7.611-17-17Zm17-8a2 2 0 0 1 2 2v4h4a2 2 0 1 1 0 4h-4v4a2 2 0 1 1-4 0v-4h-4a2 2 0 1 1 0-4h4v-4a2 2 0 0 1 2-2Z" clip-rule="evenodd"></path></g><defs><filter id="a" width="68" height="68" x="-6" y="-6" color-interpolation-filters="sRGB" filterUnits="userSpaceOnUse"><feFlood flood-opacity="0" result="BackgroundImageFix"></feFlood><feColorMatrix in="SourceAlpha" result="hardAlpha" values="0 0 0 0 0 0 0 0 0 0 0 0 0 0 0 0 0 0 127 0"></feColorMatrix><feOffset dx="4" dy="4"></feOffset><feGaussianBlur stdDeviation="7"></feGaussianBlur><feComposite in2="hardAlpha" operator="out"></feComposite><feColorMatrix values="0 0 0 0 0 0 0 0 0 0 0 0 0 0 0 0 0 0 0.11 0"></feColorMatrix><feBlend in2="BackgroundImageFix" result="effect1_dropShadow_198_29063"></feBlend><feBlend in="SourceGraphic" in2="effect1_dropShadow_198_29063" result="shape"></feBlend></filter></defs></svg>