<svg width="227" height="185" viewBox="0 0 227 185" fill="none" xmlns="http://www.w3.org/2000/svg"><g filter="url('#filter0_bdiii_96_6930')"><path d="m140.883 6.852-19.131 11.045-3.685-6.382a7.376 7.376 0 0 0-4.474-3.436 7.362 7.362 0 0 0-8.281 10.8l3.686 6.382-25.509 14.727-3.685-6.383a7.374 7.374 0 0 0-4.474-3.435 7.36 7.36 0 0 0-9.018 5.207 7.374 7.374 0 0 0 .738 5.592l3.685 6.383-25.508 14.727-3.685-6.383a7.374 7.374 0 0 0-4.474-3.435 7.36 7.36 0 0 0-9.019 5.207 7.374 7.374 0 0 0 .738 5.592l3.685 6.383-19.13 11.045a7.36 7.36 0 0 0-3.43 4.473 7.374 7.374 0 0 0 .737 5.592l73.704 127.659a29.495 29.495 0 0 0 17.895 13.74 29.44 29.44 0 0 0 22.354-2.936l89.279-51.545a29.438 29.438 0 0 0 13.72-17.892 29.494 29.494 0 0 0-2.952-22.367L150.945 9.553a7.372 7.372 0 0 0-4.473-3.435 7.36 7.36 0 0 0-5.589.734ZM81.791 66.501a7.374 7.374 0 0 1-.738-5.592 7.36 7.36 0 0 1 13.492-1.772l3.685 6.383a7.373 7.373 0 0 1 .738 5.592 7.36 7.36 0 0 1-9.019 5.207 7.374 7.374 0 0 1-4.473-3.435L81.79 66.5ZM57.276 97.676a7.36 7.36 0 0 1-5.59.734 7.373 7.373 0 0 1-4.473-3.435l-3.685-6.383A7.373 7.373 0 0 1 42.79 83a7.36 7.36 0 0 1 9.019-5.207 7.374 7.374 0 0 1 4.473 3.435l3.685 6.383a7.373 7.373 0 0 1 .738 5.592 7.36 7.36 0 0 1-3.43 4.473Zm107.993 39.777-51.017 29.454a7.37 7.37 0 0 1-10.062-2.701 7.37 7.37 0 0 1 2.692-10.065l51.016-29.454a7.357 7.357 0 0 1 5.589-.734 7.374 7.374 0 0 1 5.212 9.027 7.365 7.365 0 0 1-3.43 4.473Zm-14.741-25.532-51.017 29.454a7.356 7.356 0 0 1-5.588.734 7.371 7.371 0 0 1-1.782-13.499l51.017-29.455a7.358 7.358 0 0 1 5.588-.734 7.373 7.373 0 0 1 1.782 13.5Zm-14.035-68.492a7.38 7.38 0 0 1 .738 5.592 7.362 7.362 0 0 1-13.493 1.772l-3.685-6.383a7.374 7.374 0 0 1-.738-5.592 7.362 7.362 0 0 1 13.492-1.772l3.686 6.383Z" fill="url('#paint0_linear_96_6930')" fill-opacity=".5" shape-rendering="crispEdges"></path></g><defs><linearGradient id="paint0_linear_96_6930" x1="69.742" y1="30.904" x2="169.242" y2="203.243" gradientUnits="userSpaceOnUse"><stop stop-color="#4E8F7F"></stop><stop offset="1" stop-color="#fff"></stop></linearGradient><filter id="filter0_bdiii_96_6930" x="-13.339" y="-17.134" width="264.941" height="273.093" filterUnits="userSpaceOnUse" color-interpolation-filters="sRGB"><feFlood flood-opacity="0" result="BackgroundImageFix"></feFlood><feGaussianBlur in="BackgroundImageFix" stdDeviation="11.5"></feGaussianBlur><feComposite in2="SourceAlpha" operator="in" result="effect1_backgroundBlur_96_6930"></feComposite><feColorMatrix in="SourceAlpha" values="0 0 0 0 0 0 0 0 0 0 0 0 0 0 0 0 0 0 127 0" result="hardAlpha"></feColorMatrix><feOffset dy="4"></feOffset><feGaussianBlur stdDeviation="4.5"></feGaussianBlur><feComposite in2="hardAlpha" operator="out"></feComposite><feColorMatrix values="0 0 0 0 0.0169705 0 0 0 0 0.32902 0 0 0 0 0.25248 0 0 0 1 0"></feColorMatrix><feBlend in2="effect1_backgroundBlur_96_6930" result="effect2_dropShadow_96_6930"></feBlend><feBlend in="SourceGraphic" in2="effect2_dropShadow_96_6930" result="shape"></feBlend><feColorMatrix in="SourceAlpha" values="0 0 0 0 0 0 0 0 0 0 0 0 0 0 0 0 0 0 127 0" result="hardAlpha"></feColorMatrix><feOffset dy=".5"></feOffset><feGaussianBlur stdDeviation="1"></feGaussianBlur><feComposite in2="hardAlpha" operator="arithmetic" k2="-1" k3="1"></feComposite><feColorMatrix values="0 0 0 0 1 0 0 0 0 1 0 0 0 0 1 0 0 0 0.15 0"></feColorMatrix><feBlend in2="shape" result="effect3_innerShadow_96_6930"></feBlend><feColorMatrix in="SourceAlpha" values="0 0 0 0 0 0 0 0 0 0 0 0 0 0 0 0 0 0 127 0" result="hardAlpha"></feColorMatrix><feOffset dy="6"></feOffset><feGaussianBlur stdDeviation="7"></feGaussianBlur><feComposite in2="hardAlpha" operator="arithmetic" k2="-1" k3="1"></feComposite><feColorMatrix values="0 0 0 0 1 0 0 0 0 1 0 0 0 0 1 0 0 0 0.15 0"></feColorMatrix><feBlend in2="effect3_innerShadow_96_6930" result="effect4_innerShadow_96_6930"></feBlend><feColorMatrix in="SourceAlpha" values="0 0 0 0 0 0 0 0 0 0 0 0 0 0 0 0 0 0 127 0" result="hardAlpha"></feColorMatrix><feOffset dy="-4"></feOffset><feGaussianBlur stdDeviation="9"></feGaussianBlur><feComposite in2="hardAlpha" operator="arithmetic" k2="-1" k3="1"></feComposite><feColorMatrix values="0 0 0 0 1 0 0 0 0 1 0 0 0 0 1 0 0 0 0.15 0"></feColorMatrix><feBlend in2="effect4_innerShadow_96_6930" result="effect5_innerShadow_96_6930"></feBlend></filter></defs></svg>
