<svg width="52" height="52" viewBox="0 0 52 52" fill="none" xmlns="http://www.w3.org/2000/svg">
<rect width="52" height="52" rx="12" fill="#FF7F23"></rect>
<g clip-path="url('#clip0_2241_13725')">
<path d="M38.25 18.125V33.875C38.25 34.1071 38.1578 34.3296 37.9937 34.4937C37.8296 34.6578 37.6071 34.75 37.375 34.75H29.5C28.8049 34.75 28.1383 35.0257 27.6462 35.5165C27.1541 36.0074 26.8767 36.6734 26.875 37.3684C26.8785 37.5471 26.8265 37.7224 26.7262 37.8703C26.6259 38.0182 26.4823 38.1314 26.315 38.1942C26.1822 38.2455 26.0389 38.2635 25.8976 38.2469C25.7562 38.2302 25.6211 38.1793 25.5038 38.0986C25.3866 38.0179 25.2908 37.9098 25.2248 37.7837C25.1588 37.6576 25.1245 37.5173 25.125 37.375C25.125 36.6788 24.8484 36.0111 24.3562 35.5188C23.8639 35.0266 23.1962 34.75 22.5 34.75H14.625C14.3929 34.75 14.1704 34.6578 14.0063 34.4937C13.8422 34.3296 13.75 34.1071 13.75 33.875V18.125C13.75 17.8929 13.8422 17.6704 14.0063 17.5063C14.1704 17.3422 14.3929 17.25 14.625 17.25H21.625C22.5533 17.25 23.4435 17.6187 24.0999 18.2751C24.7563 18.9315 25.125 19.8217 25.125 20.75V30.3455C25.122 30.5713 25.2045 30.7899 25.3561 30.9573C25.5077 31.1247 25.717 31.2285 25.942 31.2478C26.0617 31.2558 26.1818 31.239 26.2947 31.1986C26.4077 31.1582 26.5111 31.095 26.5986 31.013C26.6861 30.9309 26.7558 30.8317 26.8033 30.7216C26.8509 30.6115 26.8753 30.4928 26.875 30.3728V20.75C26.875 19.8217 27.2437 18.9315 27.9001 18.2751C28.5565 17.6187 29.4467 17.25 30.375 17.25H37.375C37.6071 17.25 37.8296 17.3422 37.9937 17.5063C38.1578 17.6704 38.25 17.8929 38.25 18.125Z" fill="white"></path>
</g>
<defs>
<clipPath id="clip0_2241_13725">
<rect width="28" height="28" fill="white" transform="translate(12 12)"></rect>
</clipPath>
</defs>
</svg>
