<svg width="25" height="24" viewBox="0 0 25 24" fill="none" xmlns="http://www.w3.org/2000/svg"><g clip-path="url('#clip0_2717_16849')"><path d="M18.456 16.938a2.194 2.194 0 0 0 2.103-1.603l-2.103 1.602Zm0 0H9.19a2.192 2.192 0 0 1-2.111-1.603L3.79 3.483l-.012-.046H2.05a.688.688 0 1 1 0-1.374H4.3a.688.688 0 0 1 .663.503l.888 3.2.013.046H22.3a.688.688 0 0 1 .663.872l-2.404 8.651-2.103 1.602ZM8.001 18.805a1.437 1.437 0 1 1 1.598 2.39A1.437 1.437 0 0 1 8 18.805Zm9.75 0a1.437 1.437 0 1 1 1.598 2.39 1.437 1.437 0 0 1-1.598-2.39Z" fill="#939393" stroke="#939393" stroke-width=".125"></path></g><defs><clipPath id="clip0_2717_16849"><path fill="#fff" d="M.3 0h24v24H.3z"></path></clipPath></defs></svg>
