<svg width="52" height="52" viewBox="0 0 52 52" fill="none" xmlns="http://www.w3.org/2000/svg"><rect width="52" height="52" rx="12" fill="#FF7F23"></rect><g clip-path="url('#clip0_2241_8624')"><path d="M27.78 17.024a.875.875 0 0 1 1.071-.62 9.43 9.43 0 0 1 6.745 6.745.876.876 0 0 1-1.691.452 7.694 7.694 0 0 0-5.505-5.505.875.875 0 0 1-.62-1.072Zm-.255 4.572c1.508.402 2.477 1.372 2.88 2.88a.876.876 0 0 0 1.69-.452c-.56-2.096-2.023-3.56-4.119-4.12a.875.875 0 1 0-.451 1.692Zm7.922 8.61-5.153-2.308-.014-.007a1.75 1.75 0 0 0-1.66.153.892.892 0 0 0-.081.061l-2.663 2.27c-1.686-.82-3.427-2.547-4.247-4.212l2.273-2.703c.022-.027.043-.054.063-.084a1.749 1.749 0 0 0 .144-1.647v-.013l-2.316-5.162a1.75 1.75 0 0 0-1.817-1.04 6.154 6.154 0 0 0-5.351 6.111c0 8.684 7.066 15.75 15.75 15.75a6.154 6.154 0 0 0 6.112-5.35 1.75 1.75 0 0 0-1.04-1.818Z" fill="#fff"></path></g><defs><clipPath id="clip0_2241_8624"><path fill="#fff" d="M12 12h28v28H12z"></path></clipPath></defs></svg>
