<svg width="52" height="52" viewBox="0 0 52 52" fill="none" xmlns="http://www.w3.org/2000/svg"><rect width="52" height="52" rx="12" fill="#FF7F23"></rect><g clip-path="url('#clip0_2859_4893')"><path d="M40 14.197v7.5a1.25 1.25 0 0 1-1.25 1.25h-7.5a1.25 1.25 0 0 1-.884-2.134l2.86-2.865a12.419 12.419 0 0 0-8.55-3.452h-.07a12.425 12.425 0 0 0-8.733 3.562 1.25 1.25 0 0 1-1.746-1.787A15 15 0 0 1 35 16.18l2.869-2.868a1.25 1.25 0 0 1 2.131.884Zm-3.873 19.14a12.5 12.5 0 0 1-17.354.11l2.861-2.86a1.25 1.25 0 0 0-.884-2.14h-7.5a1.25 1.25 0 0 0-1.25 1.25v7.5a1.25 1.25 0 0 0 2.134.885L17 35.213a14.91 14.91 0 0 0 10.313 4.181h.082a14.9 14.9 0 0 0 10.48-4.27 1.25 1.25 0 0 0-1.747-1.788h-.001Z" fill="#fff"></path></g><defs><clipPath id="clip0_2859_4893"><path fill="#fff" d="M12 12h28v28H12z"></path></clipPath></defs></svg>
