<svg width="52" height="52" viewBox="0 0 52 52" fill="none" xmlns="http://www.w3.org/2000/svg"><rect width="52" height="52" rx="12" fill="#FF7F23"></rect><g clip-path="url('#clip0_2241_14574')"><path d="M37.375 22.5a1.75 1.75 0 0 0-1.75-1.75h-3.5v-3.5a1.75 1.75 0 0 0-1.75-1.75h-14a1.75 1.75 0 0 0-1.75 1.75v14a.876.876 0 0 0 1.422.68l3.828-3.086v3.281a1.75 1.75 0 0 0 1.75 1.75h10.236l4.092 3.305a.875.875 0 0 0 1.422-.68v-14Zm-4.654 9.82a.875.875 0 0 0-.547-.195H21.625v-3.5h8.75a1.75 1.75 0 0 0 1.75-1.75V22.5h3.5v12.168l-2.904-2.348Z" fill="#fff"></path></g><defs><clipPath id="clip0_2241_14574"><path fill="#fff" d="M12 12h28v28H12z"></path></clipPath></defs></svg>
