<svg width="52" height="52" viewBox="0 0 52 52" fill="none" xmlns="http://www.w3.org/2000/svg"><rect width="52" height="52" rx="12" fill="#FF7F23"></rect><g clip-path="url('#clip0_2241_8872')"><path d="M33.875 15.5h-3.966a5.24 5.24 0 0 0-7.818 0h-3.966a1.75 1.75 0 0 0-1.75 1.75v18.375a1.75 1.75 0 0 0 1.75 1.75h15.75a1.75 1.75 0 0 0 1.75-1.75V17.25a1.75 1.75 0 0 0-1.75-1.75ZM26 15.5a3.5 3.5 0 0 1 3.5 3.5h-7a3.5 3.5 0 0 1 3.5-3.5Z" fill="#fff"></path></g><defs><clipPath id="clip0_2241_8872"><path fill="#fff" d="M12 12h28v28H12z"></path></clipPath></defs></svg>
