<svg width="52" height="52" viewBox="0 0 52 52" fill="none" xmlns="http://www.w3.org/2000/svg"><rect width="52" height="52" rx="12" fill="#FF7F23"></rect><g clip-path="url('#clip0_2241_11434')"><path d="M24.205 31.848a.874.874 0 0 1-.83 1.152h-8.75a.875.875 0 0 1-.83-1.152l4.375-13.125a.875.875 0 0 1 1.66 0l4.375 13.125ZM34.75 20.313A5.687 5.687 0 1 0 29.063 26a5.694 5.694 0 0 0 5.687-5.688Zm1.75 7.437h-9.625a.875.875 0 0 0-.875.875v6.125a.875.875 0 0 0 .875.875H36.5a.875.875 0 0 0 .875-.875v-6.125a.875.875 0 0 0-.875-.875Z" fill="#fff"></path></g><defs><clipPath id="clip0_2241_11434"><path fill="#fff" d="M12 12h28v28H12z"></path></clipPath></defs></svg>
