<svg width="241" height="194" viewBox="0 0 241 194" fill="none" xmlns="http://www.w3.org/2000/svg"><g filter="url('#filter0_bdiii_96_13633')"><path d="m205.8 6.741-59.153 34.152a34.188 34.188 0 0 0-15.922 20.72 34.048 34.048 0 0 0 3.388 25.874l46.721 80.924a8.687 8.687 0 0 1 1.026 6.287 8.722 8.722 0 0 1-3.536 5.309 8.552 8.552 0 0 1-6.692 1.223 8.511 8.511 0 0 1-5.453-4.05l-46.854-81.155a34.05 34.05 0 0 0-20.714-15.871 34.186 34.186 0 0 0-25.905 3.429l-59.153 34.152a8.544 8.544 0 0 0-3.98 5.18 8.512 8.512 0 0 0 .847 6.468l76.689 132.829a8.509 8.509 0 0 0 5.178 3.968 8.549 8.549 0 0 0 6.476-.857l66.547-38.421a25.64 25.64 0 0 1 19.398-2.58 25.538 25.538 0 0 1 15.534 11.856 8.398 8.398 0 0 0 3.701 3.507 8.429 8.429 0 0 0 5.052.725 8.555 8.555 0 0 0 6.389-4.764 8.522 8.522 0 0 0-.322-7.951 25.536 25.536 0 0 1-2.541-19.405 25.643 25.643 0 0 1 11.942-15.54l66.547-38.421a8.547 8.547 0 0 0 3.981-5.18 8.514 8.514 0 0 0-.847-6.468L217.455 9.851a8.513 8.513 0 0 0-5.179-3.967 8.546 8.546 0 0 0-6.476.857Zm41.725 123.498-36.721 21.201a8.733 8.733 0 0 1-6.295 1.036 8.698 8.698 0 0 1-5.308-3.524 8.518 8.518 0 0 1 .253-9.831 8.553 8.553 0 0 1 2.598-2.306l36.721-21.201a8.724 8.724 0 0 1 6.295-1.036 8.7 8.7 0 0 1 5.309 3.524 8.52 8.52 0 0 1-.253 9.831 8.556 8.556 0 0 1-2.599 2.306Zm-17.042-29.517-36.721 21.2a8.723 8.723 0 0 1-6.295 1.036 8.69 8.69 0 0 1-5.308-3.524 8.505 8.505 0 0 1-1.212-6.683 8.538 8.538 0 0 1 4.063-5.454l36.721-21.2a8.73 8.73 0 0 1 6.295-1.037 8.698 8.698 0 0 1 5.309 3.524 8.527 8.527 0 0 1 1.212 6.683 8.548 8.548 0 0 1-4.064 5.455Zm-17.042-29.518-36.721 21.2a8.728 8.728 0 0 1-6.303 1.05 8.697 8.697 0 0 1-5.319-3.527 8.517 8.517 0 0 1 .253-9.83 8.554 8.554 0 0 1 2.599-2.307l36.721-21.2a8.728 8.728 0 0 1 6.303-1.05 8.697 8.697 0 0 1 5.319 3.527 8.527 8.527 0 0 1 1.212 6.682 8.548 8.548 0 0 1-4.064 5.455Z" fill="url('#paint0_linear_96_13633')" fill-opacity=".5" shape-rendering="crispEdges"></path></g><defs><linearGradient id="paint0_linear_96_13633" x1="109.677" y1="62.238" x2="211.943" y2="239.368" gradientUnits="userSpaceOnUse"><stop stop-color="#4E8F7F"></stop><stop offset="1" stop-color="#fff"></stop></linearGradient><filter id="filter0_bdiii_96_13633" x="-13.72" y="-17.404" width="332.003" height="306.873" filterUnits="userSpaceOnUse" color-interpolation-filters="sRGB"><feFlood flood-opacity="0" result="BackgroundImageFix"></feFlood><feGaussianBlur in="BackgroundImageFix" stdDeviation="11.5"></feGaussianBlur><feComposite in2="SourceAlpha" operator="in" result="effect1_backgroundBlur_96_13633"></feComposite><feColorMatrix in="SourceAlpha" values="0 0 0 0 0 0 0 0 0 0 0 0 0 0 0 0 0 0 127 0" result="hardAlpha"></feColorMatrix><feOffset dy="4"></feOffset><feGaussianBlur stdDeviation="4.5"></feGaussianBlur><feComposite in2="hardAlpha" operator="out"></feComposite><feColorMatrix values="0 0 0 0 0.0169705 0 0 0 0 0.32902 0 0 0 0 0.25248 0 0 0 1 0"></feColorMatrix><feBlend in2="effect1_backgroundBlur_96_13633" result="effect2_dropShadow_96_13633"></feBlend><feBlend in="SourceGraphic" in2="effect2_dropShadow_96_13633" result="shape"></feBlend><feColorMatrix in="SourceAlpha" values="0 0 0 0 0 0 0 0 0 0 0 0 0 0 0 0 0 0 127 0" result="hardAlpha"></feColorMatrix><feOffset dy=".5"></feOffset><feGaussianBlur stdDeviation="1"></feGaussianBlur><feComposite in2="hardAlpha" operator="arithmetic" k2="-1" k3="1"></feComposite><feColorMatrix values="0 0 0 0 1 0 0 0 0 1 0 0 0 0 1 0 0 0 0.15 0"></feColorMatrix><feBlend in2="shape" result="effect3_innerShadow_96_13633"></feBlend><feColorMatrix in="SourceAlpha" values="0 0 0 0 0 0 0 0 0 0 0 0 0 0 0 0 0 0 127 0" result="hardAlpha"></feColorMatrix><feOffset dy="6"></feOffset><feGaussianBlur stdDeviation="7"></feGaussianBlur><feComposite in2="hardAlpha" operator="arithmetic" k2="-1" k3="1"></feComposite><feColorMatrix values="0 0 0 0 1 0 0 0 0 1 0 0 0 0 1 0 0 0 0.15 0"></feColorMatrix><feBlend in2="effect3_innerShadow_96_13633" result="effect4_innerShadow_96_13633"></feBlend><feColorMatrix in="SourceAlpha" values="0 0 0 0 0 0 0 0 0 0 0 0 0 0 0 0 0 0 127 0" result="hardAlpha"></feColorMatrix><feOffset dy="-4"></feOffset><feGaussianBlur stdDeviation="9"></feGaussianBlur><feComposite in2="hardAlpha" operator="arithmetic" k2="-1" k3="1"></feComposite><feColorMatrix values="0 0 0 0 1 0 0 0 0 1 0 0 0 0 1 0 0 0 0.15 0"></feColorMatrix><feBlend in2="effect4_innerShadow_96_13633" result="effect5_innerShadow_96_13633"></feBlend></filter></defs></svg>
