<svg width="25" height="24" viewBox="0 0 25 24" fill="none" xmlns="http://www.w3.org/2000/svg"><g clip-path="url('#clip0_2717_16834')"><path d="M21.5 11.25v9a.75.75 0 0 1-.75.75H15.5a.75.75 0 0 1-.75-.75v-4.875a.375.375 0 0 0-.375-.375h-3.75a.375.375 0 0 0-.375.375v4.875a.75.75 0 0 1-.75.75H4.25a.75.75 0 0 1-.75-.75v-9c0-.398.158-.78.44-1.06l7.5-7.5a1.5 1.5 0 0 1 2.12 0l7.5 7.5a1.5 1.5 0 0 1 .44 1.06Z" fill="#939393"></path></g><defs><clipPath id="clip0_2717_16834"><path fill="#fff" d="M.5 0h24v24H.5z"></path></clipPath></defs></svg>
