<svg width="52" height="52" viewBox="0 0 52 52" fill="none" xmlns="http://www.w3.org/2000/svg">
<rect width="52" height="52" rx="12" fill="#FF7F23"></rect>
<g clip-path="url('#clip0_2241_14574')">
<path d="M37.375 22.5C37.375 22.0359 37.1906 21.5908 36.8624 21.2626C36.5342 20.9344 36.0891 20.75 35.625 20.75H32.125V17.25C32.125 16.7859 31.9406 16.3408 31.6124 16.0126C31.2842 15.6844 30.8391 15.5 30.375 15.5H16.375C15.9109 15.5 15.4658 15.6844 15.1376 16.0126C14.8094 16.3408 14.625 16.7859 14.625 17.25V31.25C14.6255 31.4146 14.6725 31.5758 14.7604 31.7149C14.8484 31.854 14.9738 31.9655 15.1223 32.0366C15.2708 32.1076 15.4364 32.1353 15.5999 32.1165C15.7634 32.0977 15.9184 32.0332 16.0469 31.9303L19.875 28.8438V32.125C19.875 32.5891 20.0594 33.0342 20.3876 33.3624C20.7158 33.6906 21.1609 33.875 21.625 33.875H31.8614L35.9531 37.1803C36.108 37.3055 36.3009 37.3742 36.5 37.375C36.7321 37.375 36.9546 37.2828 37.1187 37.1187C37.2828 36.9546 37.375 36.7321 37.375 36.5V22.5ZM32.7211 32.3197C32.5663 32.1945 32.3734 32.1258 32.1742 32.125H21.625V28.625H30.375C30.8391 28.625 31.2842 28.4406 31.6124 28.1124C31.9406 27.7842 32.125 27.3391 32.125 26.875V22.5H35.625V34.668L32.7211 32.3197Z" fill="white"></path>
</g>
<defs>
<clipPath id="clip0_2241_14574">
<rect width="28" height="28" fill="white" transform="translate(12 12)"></rect>
</clipPath>
</defs>
</svg>
