<svg width="172" height="177" viewBox="0 0 172 177" fill="none" xmlns="http://www.w3.org/2000/svg"><g filter="url('#filter0_bdiii_113_12835')"><path d="m69.019 126.398 33.474 35.401a6.364 6.364 0 0 0 6.908 1.533 6.368 6.368 0 0 0 4.063-5.796l1.431-48.937 43.92-21.222a6.423 6.423 0 0 0 3.566-6.086 6.419 6.419 0 0 0-4.173-5.685L112.416 59.25l-6.33-48.51a6.344 6.344 0 0 0-4.649-5.33 6.337 6.337 0 0 0-6.69 2.291L65.009 46.548l-47.835-8.732a6.413 6.413 0 0 0-6.499 2.835 6.421 6.421 0 0 0 .079 7.093l27.425 40.338-23.22 43.059a6.378 6.378 0 0 0 .62 7.052 6.367 6.367 0 0 0 6.75 2.126l46.69-13.921Z" fill="url('#paint0_linear_113_12835')" fill-opacity=".5" shape-rendering="crispEdges"></path></g><defs><linearGradient id="paint0_linear_113_12835" x1="101.418" y1="5.405" x2="62.152" y2="151.947" gradientUnits="userSpaceOnUse"><stop stop-color="#fff"></stop><stop offset="1" stop-color="#4E8F7F"></stop></linearGradient><filter id="filter0_bdiii_113_12835" x="-13.354" y="-17.806" width="198.744" height="204.571" filterUnits="userSpaceOnUse" color-interpolation-filters="sRGB"><feFlood flood-opacity="0" result="BackgroundImageFix"></feFlood><feGaussianBlur in="BackgroundImageFix" stdDeviation="11.5"></feGaussianBlur><feComposite in2="SourceAlpha" operator="in" result="effect1_backgroundBlur_113_12835"></feComposite><feColorMatrix in="SourceAlpha" values="0 0 0 0 0 0 0 0 0 0 0 0 0 0 0 0 0 0 127 0" result="hardAlpha"></feColorMatrix><feOffset dy="4"></feOffset><feGaussianBlur stdDeviation="4.5"></feGaussianBlur><feComposite in2="hardAlpha" operator="out"></feComposite><feColorMatrix values="0 0 0 0 0.0169705 0 0 0 0 0.32902 0 0 0 0 0.25248 0 0 0 1 0"></feColorMatrix><feBlend in2="effect1_backgroundBlur_113_12835" result="effect2_dropShadow_113_12835"></feBlend><feBlend in="SourceGraphic" in2="effect2_dropShadow_113_12835" result="shape"></feBlend><feColorMatrix in="SourceAlpha" values="0 0 0 0 0 0 0 0 0 0 0 0 0 0 0 0 0 0 127 0" result="hardAlpha"></feColorMatrix><feOffset dy=".5"></feOffset><feGaussianBlur stdDeviation="1"></feGaussianBlur><feComposite in2="hardAlpha" operator="arithmetic" k2="-1" k3="1"></feComposite><feColorMatrix values="0 0 0 0 1 0 0 0 0 1 0 0 0 0 1 0 0 0 0.15 0"></feColorMatrix><feBlend in2="shape" result="effect3_innerShadow_113_12835"></feBlend><feColorMatrix in="SourceAlpha" values="0 0 0 0 0 0 0 0 0 0 0 0 0 0 0 0 0 0 127 0" result="hardAlpha"></feColorMatrix><feOffset dy="6"></feOffset><feGaussianBlur stdDeviation="7"></feGaussianBlur><feComposite in2="hardAlpha" operator="arithmetic" k2="-1" k3="1"></feComposite><feColorMatrix values="0 0 0 0 1 0 0 0 0 1 0 0 0 0 1 0 0 0 0.15 0"></feColorMatrix><feBlend in2="effect3_innerShadow_113_12835" result="effect4_innerShadow_113_12835"></feBlend><feColorMatrix in="SourceAlpha" values="0 0 0 0 0 0 0 0 0 0 0 0 0 0 0 0 0 0 127 0" result="hardAlpha"></feColorMatrix><feOffset dy="-4"></feOffset><feGaussianBlur stdDeviation="9"></feGaussianBlur><feComposite in2="hardAlpha" operator="arithmetic" k2="-1" k3="1"></feComposite><feColorMatrix values="0 0 0 0 1 0 0 0 0 1 0 0 0 0 1 0 0 0 0.15 0"></feColorMatrix><feBlend in2="effect4_innerShadow_113_12835" result="effect5_innerShadow_113_12835"></feBlend></filter></defs></svg>