<svg width="52" height="52" viewBox="0 0 52 52" fill="none" xmlns="http://www.w3.org/2000/svg">
<rect width="52" height="52" rx="12" fill="#FF7F23"></rect>
<g clip-path="url('#clip0_2241_12607')">
<path d="M37.3751 22.5C37.3765 23.8097 37.0511 25.099 36.4286 26.2513C35.806 27.4035 34.9059 28.3823 33.8098 29.099C32.7136 29.8158 31.456 30.2478 30.1508 30.356C28.8456 30.4642 27.5341 30.2452 26.3348 29.7188L20.6408 36.3053C20.6276 36.3207 20.6123 36.3371 20.5981 36.3513C19.9417 37.0077 19.0513 37.3765 18.123 37.3765C17.1946 37.3765 16.3043 37.0077 15.6478 36.3513C14.9913 35.6948 14.6226 34.8045 14.6226 33.8761C14.6226 32.9478 14.9913 32.0574 15.6478 31.401C15.6631 31.3867 15.6784 31.3714 15.6948 31.3583L22.2814 25.6653C21.6913 24.3154 21.4913 22.8272 21.7041 21.3694C21.9168 19.9116 22.5339 18.5426 23.4853 17.4177C24.4366 16.2928 25.6842 15.457 27.0864 15.0052C28.4886 14.5533 29.9894 14.5035 31.4186 14.8613C31.5659 14.8982 31.7011 14.9728 31.8108 15.0778C31.9205 15.1829 32.0011 15.3146 32.0444 15.4602C32.0878 15.6057 32.0925 15.7601 32.0582 15.908C32.0238 16.0559 31.9515 16.1924 31.8484 16.3039L27.7501 20.75L28.3692 23.6321L31.2501 24.25L35.6962 20.1463C35.8078 20.0432 35.9442 19.9709 36.0922 19.9365C36.2401 19.9022 36.3944 19.9069 36.54 19.9503C36.6856 19.9936 36.8173 20.0742 36.9223 20.1839C37.0273 20.2936 37.102 20.4288 37.1389 20.5761C37.2959 21.2054 37.3753 21.8515 37.3751 22.5Z" fill="white"></path>
</g>
<defs>
<clipPath id="clip0_2241_12607">
<rect width="28" height="28" fill="white" transform="translate(12 12)"></rect>
</clipPath>
</defs>
</svg>
