<svg width="16" height="16" viewBox="0 0 16 16" fill="none" xmlns="http://www.w3.org/2000/svg">
<path d="M15.7345 6.88973L11.5664 9.86247L13.1586 14.6726C13.2448 14.9331 13.1501 15.2182 12.9249 15.3794C12.8116 15.4598 12.6791 15.5 12.5461 15.5C12.4132 15.5 12.2804 15.4598 12.168 15.3794L8.00008 12.4064L3.83239 15.379C3.6063 15.5402 3.3008 15.5402 3.07519 15.379C2.85008 15.2182 2.75529 14.933 2.84156 14.6726L4.4334 9.86225L0.265713 6.88973C0.0400598 6.72874 -0.0547259 6.44367 0.0315446 6.18316C0.118032 5.92267 0.365514 5.74642 0.64417 5.74642H5.79587L7.3877 0.936629C7.47397 0.676182 7.72127 0.5 8.00033 0.5C8.27938 0.5 8.52625 0.676182 8.61241 0.936629L10.2043 5.74642H15.3564C15.6349 5.74642 15.8823 5.92271 15.9689 6.18316C16.0544 6.44367 15.9595 6.72874 15.7345 6.88973Z" fill="#E2E2E2"></path>
</svg>
