<svg width="52" height="52" viewBox="0 0 52 52" fill="none" xmlns="http://www.w3.org/2000/svg">
<rect width="52" height="52" rx="12" fill="#FF7F23"></rect>
<g clip-path="url('#clip0_31_6051')">
<path d="M28.3358 14.4456C27.6491 12.1181 24.3507 12.1181 23.6641 14.4456L23.4979 15.0109C23.3953 15.3593 23.216 15.6804 22.9732 15.9506C22.7304 16.2207 22.4301 16.4331 22.0946 16.5721C21.759 16.7111 21.3965 16.7732 21.0338 16.7539C20.6711 16.7347 20.3173 16.6344 19.9983 16.4606L19.483 16.178C17.35 15.0175 15.0175 17.35 16.1796 19.4813L16.4605 19.9984C17.202 21.3616 16.4988 23.059 15.0108 23.4979L14.4456 23.6642C12.1181 24.3508 12.1181 27.6492 14.4456 28.3358L15.0108 28.5021C15.3593 28.6047 15.6803 28.7839 15.9505 29.0268C16.2206 29.2696 16.433 29.5698 16.572 29.9054C16.711 30.241 16.7732 30.6034 16.7539 30.9662C16.7346 31.3289 16.6344 31.6827 16.4605 32.0016L16.1779 32.517C15.0175 34.65 17.35 36.9825 19.4813 35.8204L19.9983 35.5394C20.3173 35.3656 20.6711 35.2654 21.0338 35.2461C21.3965 35.2268 21.759 35.2889 22.0946 35.4279C22.4301 35.567 22.7304 35.7793 22.9732 36.0495C23.216 36.3196 23.3953 36.6407 23.4979 36.9891L23.6641 37.5544C24.3507 39.8819 27.6491 39.8819 28.3358 37.5544L28.502 36.9891C28.6046 36.6407 28.7839 36.3196 29.0267 36.0495C29.2695 35.7793 29.5698 35.567 29.9053 35.4279C30.2409 35.2889 30.6034 35.2268 30.9661 35.2461C31.3288 35.2654 31.6826 35.3656 32.0016 35.5394L32.517 35.8221C34.6499 36.9825 36.9824 34.65 35.8203 32.5187L35.5394 32.0016C35.3655 31.6827 35.2653 31.3289 35.246 30.9662C35.2267 30.6034 35.2889 30.241 35.4279 29.9054C35.5669 29.5698 35.7793 29.2696 36.0494 29.0268C36.3196 28.7839 36.6406 28.6047 36.9891 28.5021L37.5543 28.3358C39.8818 27.6492 39.8818 24.3508 37.5543 23.6642L36.9891 23.4979C36.6406 23.3954 36.3196 23.2161 36.0494 22.9733C35.7793 22.7304 35.5669 22.4302 35.4279 22.0946C35.2889 21.759 35.2267 21.3966 35.246 21.0339C35.2653 20.6711 35.3655 20.3173 35.5394 19.9984L35.822 19.483C36.9824 17.35 34.6499 15.0175 32.5186 16.1796L32.0016 16.4606C31.6826 16.6344 31.3288 16.7347 30.9661 16.7539C30.6034 16.7732 30.2409 16.7111 29.9053 16.5721C29.5698 16.4331 29.2695 16.2207 29.0267 15.9506C28.7839 15.6804 28.6046 15.3593 28.502 15.0109L28.3358 14.4456ZM26 30.8711C24.708 30.8711 23.4691 30.3579 22.5555 29.4444C21.642 28.5309 21.1288 27.2919 21.1288 26C21.1288 24.7081 21.642 23.4691 22.5555 22.5556C23.4691 21.6421 24.708 21.1289 26 21.1289C27.2914 21.1289 28.53 21.6419 29.4432 22.5551C30.3564 23.4683 30.8694 24.7069 30.8694 25.9983C30.8694 27.2898 30.3564 28.5284 29.4432 29.4416C28.53 30.3548 27.2914 30.8678 26 30.8678V30.8711Z" fill="white"></path>
</g>
<defs>
<clipPath id="clip0_31_6051">
<rect width="28" height="28" fill="white" transform="translate(12 12)"></rect>
</clipPath>
</defs>
</svg>
