<svg width="52" height="52" viewBox="0 0 52 52" fill="none" xmlns="http://www.w3.org/2000/svg">
<rect width="52" height="52" rx="12" fill="#FF7F23"></rect>
<g clip-path="url('#clip0_31_6063')">
<path d="M37.3749 22.5C37.3762 23.8097 37.0509 25.099 36.4283 26.2512C35.8058 27.4035 34.9057 28.3823 33.8095 29.099C32.7134 29.8157 31.4558 30.2478 30.1506 30.356C28.8454 30.4642 27.5338 30.2452 26.3346 29.7187L20.6405 36.3053C20.6274 36.3206 20.6121 36.337 20.5979 36.3512C19.9414 37.0077 19.0511 37.3765 18.1227 37.3765C17.1944 37.3765 16.304 37.0077 15.6476 36.3512C14.9911 35.6948 14.6223 34.8045 14.6223 33.8761C14.6223 32.9477 14.9911 32.0574 15.6476 31.4009C15.6629 31.3867 15.6782 31.3714 15.6946 31.3583L22.2812 25.6653C21.691 24.3154 21.491 22.8272 21.7038 21.3694C21.9166 19.9116 22.5337 18.5426 23.485 17.4177C24.4364 16.2928 25.6839 15.457 27.0861 15.0051C28.4884 14.5533 29.9892 14.5034 31.4183 14.8612C31.5657 14.8982 31.7008 14.9728 31.8106 15.0778C31.9203 15.1828 32.0008 15.3146 32.0442 15.4601C32.0875 15.6057 32.0923 15.76 32.0579 15.908C32.0236 16.0559 31.9513 16.1924 31.8482 16.3039L27.7499 20.75L28.369 23.632L31.2499 24.25L35.696 20.1462C35.8075 20.0432 35.944 19.9709 36.0919 19.9365C36.2399 19.9021 36.3942 19.9069 36.5398 19.9502C36.6853 19.9936 36.8171 20.0741 36.9221 20.1839C37.0271 20.2936 37.1017 20.4288 37.1386 20.5761C37.2957 21.2053 37.375 21.8515 37.3749 22.5Z" fill="white"></path>
</g>
<defs>
<clipPath id="clip0_31_6063">
<rect width="28" height="28" fill="white" transform="translate(12 12)"></rect>
</clipPath>
</defs>
</svg>
