<svg xmlns="http://www.w3.org/2000/svg" width="25" height="19" fill="none"><path fill="#fff" d="M.4 3.517c0-.774.323-1.516.897-2.063A3.142 3.142 0 0 1 3.463.6h18.375c.812 0 1.591.307 2.165.854.575.547.897 1.29.897 2.063v1.458H.4V3.517Zm0 4.375v7.291c0 .774.323 1.516.897 2.063a3.142 3.142 0 0 0 2.166.854h18.375c.812 0 1.591-.307 2.165-.854a2.848 2.848 0 0 0 .897-2.063V7.892H.4Zm4.594 2.916h1.531c.406 0 .796.154 1.083.427.287.274.449.645.449 1.032v1.458c0 .387-.162.758-.449 1.031a1.57 1.57 0 0 1-1.083.427h-1.53a1.57 1.57 0 0 1-1.084-.427 1.424 1.424 0 0 1-.448-1.031v-1.458c0-.387.161-.758.448-1.032a1.571 1.571 0 0 1 1.083-.427Z"></path></svg>