<svg width="52" height="52" viewBox="0 0 52 52" fill="none" xmlns="http://www.w3.org/2000/svg">
<path d="M26 0.8125C21.0184 0.8125 16.1486 2.28972 12.0066 5.05736C7.86452 7.825 4.63618 11.7587 2.7298 16.3612C0.823413 20.9636 0.324617 26.0279 1.29648 30.9138C2.26835 35.7997 4.66722 40.2877 8.18976 43.8103C11.7123 47.3328 16.2003 49.7317 21.0862 50.7035C25.9721 51.6754 31.0364 51.1766 35.6388 49.2702C40.2413 47.3638 44.175 44.1355 46.9427 39.9934C49.7103 35.8514 51.1875 30.9816 51.1875 26C51.1792 19.3224 48.5228 12.9207 43.8011 8.19895C39.0793 3.47718 32.6776 0.820831 26 0.8125ZM34.8253 27.613L23.2003 35.363C22.8815 35.5743 22.5075 35.6872 22.125 35.6875C21.6112 35.6875 21.1183 35.4834 20.755 35.12C20.3916 34.7567 20.1875 34.2639 20.1875 33.75V18.25C20.1873 17.8991 20.2823 17.5548 20.4625 17.2538C20.6427 16.9527 20.9012 16.7062 21.2105 16.5406C21.5199 16.375 21.8683 16.2965 22.2188 16.3135C22.5692 16.3305 22.9085 16.4423 23.2003 16.637L34.8253 24.387C35.0911 24.5639 35.309 24.8037 35.4598 25.0851C35.6105 25.3665 35.6894 25.6808 35.6894 26C35.6894 26.3192 35.6105 26.6335 35.4598 26.9149C35.309 27.1963 35.0911 27.4361 34.8253 27.613Z" fill="white"/>
</svg>
