<svg xmlns="http://www.w3.org/2000/svg" width="80" height="80" fill="none"><rect width="68" height="68" x="6" y="6" fill="#F5F5F5" rx="34"/><path fill="#E2E2E2" d="m43.47 43.082-2.826-7.992a30.43 30.43 0 0 1-.54-1.476c-.18-.576-.36-1.194-.54-1.854a25.458 25.458 0 0 1-.54 1.872c-.18.576-.354 1.074-.522 1.494l-2.808 7.956h7.776ZM52.524 53h-4.176c-.468 0-.852-.108-1.152-.324a2.112 2.112 0 0 1-.648-.864l-1.764-4.986H34.362l-1.764 4.986c-.108.3-.318.576-.63.828-.3.24-.678.36-1.134.36h-4.212L36.81 26.882h5.526L52.524 53Z"/></svg>