<svg width="49" height="48" viewBox="0 0 49 48" fill="none" xmlns="http://www.w3.org/2000/svg">
<rect x="0.666504" width="48" height="48" rx="24" fill="#F5F5F5"/>
<path d="M27.064 25.448L24.952 19.676C24.848 19.42 24.74 19.116 24.628 18.764C24.516 18.412 24.404 18.032 24.292 17.624C24.188 18.032 24.08 18.416 23.968 18.776C23.856 19.128 23.748 19.436 23.644 19.7L21.544 25.448H27.064ZM32.764 32H30.268C29.988 32 29.76 31.932 29.584 31.796C29.408 31.652 29.276 31.476 29.188 31.268L27.892 27.728H20.704L19.408 31.268C19.344 31.452 19.22 31.62 19.036 31.772C18.852 31.924 18.62 32 18.34 32H15.832L22.648 14.648H25.948L32.764 32Z" fill="#E2E2E2"/>
</svg>
