<svg width="65" height="66" viewBox="0 0 65 66" fill="none" xmlns="http://www.w3.org/2000/svg">
<path d="M61.6214 18.4096C60.8638 17.6178 60.08 16.8018 59.7845 16.0844C59.5112 15.4272 59.4951 14.3379 59.4791 13.2828C59.4489 11.3213 59.4168 9.09856 57.8713 7.55308C56.3258 6.0076 54.103 5.97545 52.1415 5.9453C51.0864 5.92922 49.9972 5.91315 49.34 5.63982C48.6245 5.34439 47.8066 4.5606 47.0147 3.80293C45.628 2.47049 44.0524 0.961182 41.9542 0.961182C39.8561 0.961182 38.2825 2.47049 36.8938 3.80293C36.1019 4.5606 35.286 5.34439 34.5685 5.63982C33.9153 5.91315 32.822 5.92922 31.7669 5.9453C29.8054 5.97545 27.5827 6.0076 26.0372 7.55308C24.4917 9.09856 24.4696 11.3213 24.4294 13.2828C24.4134 14.3379 24.3973 15.4272 24.124 16.0844C23.8285 16.7998 23.0447 17.6178 22.2871 18.4096C20.9546 19.7963 19.4453 21.372 19.4453 23.4701C19.4453 25.5683 20.9546 27.1419 22.2871 28.5306C23.0447 29.3224 23.8285 30.1384 24.124 30.8559C24.3973 31.513 24.4134 32.6023 24.4294 33.6574C24.4596 35.6189 24.4917 37.8417 26.0372 39.3871C27.5827 40.9326 29.8054 40.9648 31.7669 40.9949C32.822 41.011 33.9113 41.0271 34.5685 41.3004C35.284 41.5958 36.1019 42.3796 36.8938 43.1373C38.2805 44.4697 39.8561 45.979 41.9542 45.979C44.0524 45.979 45.626 44.4697 47.0147 43.1373C47.8066 42.3796 48.6225 41.5958 49.34 41.3004C49.9972 41.0271 51.0864 41.011 52.1415 40.9949C54.103 40.9648 56.3258 40.9326 57.8713 39.3871C59.4168 37.8417 59.4489 35.6189 59.4791 33.6574C59.4951 32.6023 59.5112 31.513 59.7845 30.8559C60.08 30.1404 60.8638 29.3224 61.6214 28.5306C62.9539 27.1439 64.4632 25.5683 64.4632 23.4701C64.4632 21.372 62.9539 19.7983 61.6214 18.4096Z" fill="#FF7F23"/>
<g filter="url(#filter0_bdiii_44_2073)">
<path d="M52.3396 20.464H47.6282V17.3558C47.6282 16.9437 47.4628 16.5484 47.1683 16.2569C46.8738 15.9655 46.4743 15.8018 46.0578 15.8018L17.7898 15.8018C17.3733 15.8018 16.9739 15.9655 16.6794 16.2569C16.3849 16.5484 16.2194 16.9437 16.2194 17.3558V20.464H11.5081C10.6751 20.464 9.87616 20.7915 9.28713 21.3744C8.6981 21.9573 8.36719 22.7478 8.36719 23.5722V26.6803C8.36719 28.7412 9.19447 30.7176 10.667 32.1749C11.3962 32.8964 12.2618 33.4688 13.2145 33.8593C14.1672 34.2498 15.1882 34.4508 16.2194 34.4508H16.9359C17.861 37.3519 19.6248 39.9212 22.0094 41.8411C24.394 43.761 27.2948 44.9474 30.3534 45.2536V49.9916H25.6421C25.2255 49.9916 24.8261 50.1553 24.5316 50.4468C24.2371 50.7382 24.0716 51.1335 24.0716 51.5457C24.0716 51.9578 24.2371 52.3531 24.5316 52.6446C24.8261 52.936 25.2255 53.0998 25.6421 53.0998H38.2056C38.6221 53.0998 39.0215 52.936 39.3161 52.6446C39.6106 52.3531 39.776 51.9578 39.776 51.5457C39.776 51.1335 39.6106 50.7382 39.3161 50.4468C39.0215 50.1553 38.6221 49.9916 38.2056 49.9916H33.4943V45.2478C39.7643 44.6203 44.9663 40.2669 46.8587 34.4508H47.6282C49.7108 34.4508 51.708 33.6321 53.1806 32.1749C54.6532 30.7176 55.4804 28.7412 55.4804 26.6803V23.5722C55.4804 22.7478 55.1495 21.9573 54.5605 21.3744C53.9715 20.7915 53.1726 20.464 52.3396 20.464ZM16.2194 31.3426C14.9699 31.3426 13.7715 30.8514 12.888 29.9771C12.0044 29.1027 11.5081 27.9168 11.5081 26.6803V23.5722H16.2194V29.7885C16.2194 30.3065 16.2449 30.8246 16.296 31.3426H16.2194ZM52.3396 26.6803C52.3396 27.9168 51.8432 29.1027 50.9597 29.9771C50.0761 30.8514 48.8778 31.3426 47.6282 31.3426H47.5301C47.5945 30.7685 47.6273 30.1913 47.6282 29.6137V23.5722H52.3396V26.6803Z" fill="url(#paint0_linear_44_2073)" fill-opacity="0.52" shape-rendering="crispEdges"/>
<path d="M47.3782 20.464V20.714H47.6282H52.3396C53.1071 20.714 53.8427 21.0158 54.3847 21.5521C54.9265 22.0883 55.2304 22.815 55.2304 23.5722V26.6803C55.2304 28.674 54.4301 30.5866 53.0047 31.9972C51.5792 33.4078 49.6453 34.2008 47.6282 34.2008H46.8587H46.6772L46.621 34.3734C44.7585 40.0977 39.6382 44.3817 33.4694 44.999L33.2443 45.0215V45.2478V49.9916V50.2416H33.4943H38.2056C38.5566 50.2416 38.8928 50.3796 39.1402 50.6245C39.3876 50.8692 39.526 51.2007 39.526 51.5457C39.526 51.8907 39.3876 52.2221 39.1402 52.4669C38.8928 52.7117 38.5566 52.8498 38.2056 52.8498H25.642C25.291 52.8498 24.9549 52.7117 24.7074 52.4669C24.4601 52.2221 24.3216 51.8907 24.3216 51.5457C24.3216 51.2007 24.4601 50.8692 24.7074 50.6245C24.9549 50.3796 25.291 50.2416 25.642 50.2416H30.3534H30.6034V49.9916V45.2536V45.0274L30.3783 45.0048C27.3678 44.7034 24.5129 43.5357 22.1662 41.6463C19.8196 39.757 18.0842 37.2289 17.1741 34.3748L17.1186 34.2008H16.9359H16.2194C15.2207 34.2008 14.2318 34.0061 13.3093 33.628C12.3868 33.2498 11.5487 32.6956 10.8429 31.9972C9.41749 30.5866 8.61719 28.674 8.61719 26.6803V23.5722C8.61719 22.815 8.92112 22.0883 9.46298 21.5521C10.0049 21.0158 10.7405 20.714 11.5081 20.714H16.2194H16.4694V20.464V17.3558C16.4694 17.0108 16.6079 16.6794 16.8552 16.4346C17.1027 16.1898 17.4388 16.0518 17.7898 16.0518H46.0578C46.4088 16.0518 46.745 16.1898 46.9924 16.4346C47.2398 16.6794 47.3782 17.0108 47.3782 17.3558V20.464ZM11.5081 23.3222H11.2581V23.5722V26.6803C11.2581 27.984 11.7814 29.2337 12.7121 30.1548C13.6428 31.0757 14.9044 31.5926 16.2194 31.5926H16.296H16.5718L16.5448 31.3181C16.4945 30.8082 16.4694 30.2983 16.4694 29.7885V23.5722V23.3222H16.2194H11.5081ZM47.2816 31.3147L47.2505 31.5926H47.5301H47.6282C48.9432 31.5926 50.2049 31.0757 51.1355 30.1548C52.0662 29.2337 52.5896 27.984 52.5896 26.6803V23.5722V23.3222H52.3396H47.6282H47.3782V23.5722V29.6133C47.3773 30.1817 47.3451 30.7497 47.2816 31.3147Z" stroke="white" stroke-opacity="0.2" stroke-width="0.5" shape-rendering="crispEdges"/>
</g>
<defs>
<filter id="filter0_bdiii_44_2073" x="-21.6328" y="-14.1982" width="107.113" height="97.2981" filterUnits="userSpaceOnUse" color-interpolation-filters="sRGB">
<feFlood flood-opacity="0" result="BackgroundImageFix"/>
<feGaussianBlur in="BackgroundImageFix" stdDeviation="15"/>
<feComposite in2="SourceAlpha" operator="in" result="effect1_backgroundBlur_44_2073"/>
<feColorMatrix in="SourceAlpha" type="matrix" values="0 0 0 0 0 0 0 0 0 0 0 0 0 0 0 0 0 0 127 0" result="hardAlpha"/>
<feOffset dy="4"/>
<feGaussianBlur stdDeviation="4"/>
<feComposite in2="hardAlpha" operator="out"/>
<feColorMatrix type="matrix" values="0 0 0 0 0.805192 0 0 0 0 0.708514 0 0 0 0 0.638204 0 0 0 1 0"/>
<feBlend mode="normal" in2="effect1_backgroundBlur_44_2073" result="effect2_dropShadow_44_2073"/>
<feBlend mode="normal" in="SourceGraphic" in2="effect2_dropShadow_44_2073" result="shape"/>
<feColorMatrix in="SourceAlpha" type="matrix" values="0 0 0 0 0 0 0 0 0 0 0 0 0 0 0 0 0 0 127 0" result="hardAlpha"/>
<feOffset dy="0.5"/>
<feGaussianBlur stdDeviation="1"/>
<feComposite in2="hardAlpha" operator="arithmetic" k2="-1" k3="1"/>
<feColorMatrix type="matrix" values="0 0 0 0 1 0 0 0 0 1 0 0 0 0 1 0 0 0 0.1 0"/>
<feBlend mode="normal" in2="shape" result="effect3_innerShadow_44_2073"/>
<feColorMatrix in="SourceAlpha" type="matrix" values="0 0 0 0 0 0 0 0 0 0 0 0 0 0 0 0 0 0 127 0" result="hardAlpha"/>
<feOffset dy="6"/>
<feGaussianBlur stdDeviation="7"/>
<feComposite in2="hardAlpha" operator="arithmetic" k2="-1" k3="1"/>
<feColorMatrix type="matrix" values="0 0 0 0 1 0 0 0 0 1 0 0 0 0 1 0 0 0 0.4 0"/>
<feBlend mode="normal" in2="effect3_innerShadow_44_2073" result="effect4_innerShadow_44_2073"/>
<feColorMatrix in="SourceAlpha" type="matrix" values="0 0 0 0 0 0 0 0 0 0 0 0 0 0 0 0 0 0 127 0" result="hardAlpha"/>
<feOffset dy="-4"/>
<feGaussianBlur stdDeviation="9"/>
<feComposite in2="hardAlpha" operator="arithmetic" k2="-1" k3="1"/>
<feColorMatrix type="matrix" values="0 0 0 0 1 0 0 0 0 1 0 0 0 0 1 0 0 0 0.05 0"/>
<feBlend mode="normal" in2="effect4_innerShadow_44_2073" result="effect5_innerShadow_44_2073"/>
</filter>
<linearGradient id="paint0_linear_44_2073" x1="11.0689" y1="22.774" x2="49.917" y2="48.7754" gradientUnits="userSpaceOnUse">
<stop stop-color="white"/>
<stop offset="0.888184" stop-color="white"/>
</linearGradient>
</defs>
</svg>
