<svg width="25" height="24" viewBox="0 0 25 24" fill="none" xmlns="http://www.w3.org/2000/svg"><g clip-path="url(#clip0_2717_16854)"><path d="M19.15 2.25H5.65a1.5 1.5 0 0 0-1.5 1.5v16.5a1.5 1.5 0 0 0 1.5 1.5h13.5a1.5 1.5 0 0 0 1.5-1.5V3.75a1.5 1.5 0 0 0-1.5-1.5Zm-10.5 16.5a1.125 1.125 0 1 1 0-2.25 1.125 1.125 0 0 1 0 2.25Zm0-3.75a1.125 1.125 0 1 1 0-2.25 1.125 1.125 0 0 1 0 2.25Zm3.75 3.75a1.125 1.125 0 1 1 0-2.25 1.125 1.125 0 0 1 0 2.25Zm0-3.75a1.125 1.125 0 1 1 0-2.25 1.125 1.125 0 0 1 0 2.25Zm3.75 3.75a1.125 1.125 0 1 1 0-2.25 1.125 1.125 0 0 1 0 2.25Zm0-3.75a1.125 1.125 0 1 1 0-2.25 1.125 1.125 0 0 1 0 2.25Zm1.5-5.25a.75.75 0 0 1-.75.75h-9a.75.75 0 0 1-.75-.75V6a.75.75 0 0 1 .75-.75h9a.75.75 0 0 1 .75.75v3.75Z" fill="#939393"/></g><defs><clipPath id="clip0_2717_16854"><path fill="#fff" d="M.4 0h24v24H.4z"/></clipPath></defs></svg>
