<svg width="238" height="192" viewBox="0 0 238 192" fill="none" xmlns="http://www.w3.org/2000/svg"><g filter="url(#filter0_bdiii_96_6824)"><path d="M148.529 7.364 18.153 82.636a16.727 16.727 0 0 0-6.122 22.85l92 159.349a16.728 16.728 0 0 0 22.849 6.123l130.377-75.273a16.726 16.726 0 0 0 6.122-22.85l-92-159.349a16.725 16.725 0 0 0-22.85-6.122Zm-9.403 217.894a12.547 12.547 0 1 1-.724-22.117 12.55 12.55 0 0 1 .724 22.117Zm-20.909-36.216a12.548 12.548 0 0 1-18.153-6.832 12.549 12.549 0 0 1 3.608-13.465 12.547 12.547 0 0 1 19.137 3.16 12.547 12.547 0 0 1-4.592 17.137Zm57.124 15.307a12.552 12.552 0 0 1-7.093 1.654 12.558 12.558 0 0 1-6.817-2.566 12.555 12.555 0 0 1-4.242-5.92 12.537 12.537 0 0 1-.238-7.28 12.538 12.538 0 0 1 10.48-9.191 12.546 12.546 0 0 1 7.91 23.303Zm-20.909-36.216a12.544 12.544 0 0 1-14.544-20.297 12.544 12.544 0 0 1 20.389 12.679 12.544 12.544 0 0 1-5.845 7.618Zm57.125 15.307a12.543 12.543 0 0 1-13.91-.912 12.548 12.548 0 0 1-.635-19.385 12.55 12.55 0 0 1 13.821-1.82 12.545 12.545 0 0 1 .724 22.117Zm-20.909-36.216a12.544 12.544 0 0 1-18.391-14.112 12.55 12.55 0 0 1 10.481-9.191 12.54 12.54 0 0 1 12.502 6.166 12.547 12.547 0 0 1-4.592 17.137Zm-14.787-59.065a8.365 8.365 0 0 1-3.061 11.424l-86.917 50.182a8.365 8.365 0 0 1-11.425-3.061l-20.91-36.216a8.363 8.363 0 0 1 3.062-11.425l86.917-50.181a8.365 8.365 0 0 1 11.425 3.06l20.909 36.217Z" fill="url(#paint0_linear_96_6824)" fill-opacity=".5" shape-rendering="crispEdges"/></g><defs><linearGradient id="paint0_linear_96_6824" x1="83.341" y1="45" x2="192.069" y2="233.321" gradientUnits="userSpaceOnUse"><stop stop-color="#FF9041"/><stop offset="1" stop-color="#fff"/></linearGradient><filter id="filter0_bdiii_96_6824" x="-13.21" y="-17.877" width="301.831" height="314.076" filterUnits="userSpaceOnUse" color-interpolation-filters="sRGB"><feFlood flood-opacity="0" result="BackgroundImageFix"/><feGaussianBlur in="BackgroundImageFix" stdDeviation="11.5"/><feComposite in2="SourceAlpha" operator="in" result="effect1_backgroundBlur_96_6824"/><feColorMatrix in="SourceAlpha" values="0 0 0 0 0 0 0 0 0 0 0 0 0 0 0 0 0 0 127 0" result="hardAlpha"/><feOffset dy="4"/><feGaussianBlur stdDeviation="4.5"/><feComposite in2="hardAlpha" operator="out"/><feColorMatrix values="0 0 0 0 0.847428 0 0 0 0 0.416981 0 0 0 0 0.107597 0 0 0 1 0"/><feBlend in2="effect1_backgroundBlur_96_6824" result="effect2_dropShadow_96_6824"/><feBlend in="SourceGraphic" in2="effect2_dropShadow_96_6824" result="shape"/><feColorMatrix in="SourceAlpha" values="0 0 0 0 0 0 0 0 0 0 0 0 0 0 0 0 0 0 127 0" result="hardAlpha"/><feOffset dy=".5"/><feGaussianBlur stdDeviation="1"/><feComposite in2="hardAlpha" operator="arithmetic" k2="-1" k3="1"/><feColorMatrix values="0 0 0 0 1 0 0 0 0 1 0 0 0 0 1 0 0 0 0.15 0"/><feBlend in2="shape" result="effect3_innerShadow_96_6824"/><feColorMatrix in="SourceAlpha" values="0 0 0 0 0 0 0 0 0 0 0 0 0 0 0 0 0 0 127 0" result="hardAlpha"/><feOffset dy="6"/><feGaussianBlur stdDeviation="7"/><feComposite in2="hardAlpha" operator="arithmetic" k2="-1" k3="1"/><feColorMatrix values="0 0 0 0 1 0 0 0 0 1 0 0 0 0 1 0 0 0 0.15 0"/><feBlend in2="effect3_innerShadow_96_6824" result="effect4_innerShadow_96_6824"/><feColorMatrix in="SourceAlpha" values="0 0 0 0 0 0 0 0 0 0 0 0 0 0 0 0 0 0 127 0" result="hardAlpha"/><feOffset dy="-4"/><feGaussianBlur stdDeviation="9"/><feComposite in2="hardAlpha" operator="arithmetic" k2="-1" k3="1"/><feColorMatrix values="0 0 0 0 1 0 0 0 0 1 0 0 0 0 1 0 0 0 0.15 0"/><feBlend in2="effect4_innerShadow_96_6824" result="effect5_innerShadow_96_6824"/></filter></defs></svg>
