<svg width="24" height="24" viewBox="0 0 24 24" fill="none" xmlns="http://www.w3.org/2000/svg">
<path d="M8 21C8.55228 21 9 20.5523 9 20C9 19.4477 8.55228 19 8 19C7.44772 19 7 19.4477 7 20C7 20.5523 7.44772 21 8 21Z" fill="#3D3D3D"/>
<path d="M16.75 21C17.3023 21 17.75 20.5523 17.75 20C17.75 19.4477 17.3023 19 16.75 19C16.1977 19 15.75 19.4477 15.75 20C15.75 20.5523 16.1977 21 16.75 21Z" fill="#3D3D3D"/>
<path d="M4.2267 7.64733H21.0454L18.5246 15.911C18.4363 16.2254 18.2472 16.5021 17.9864 16.6986C17.7256 16.895 17.4074 17.0004 17.0809 16.9985H8.09963C7.77308 17.0004 7.45495 16.895 7.19412 16.6986C6.93329 16.5021 6.74418 16.2254 6.65588 15.911L3.26953 4.39141C3.22468 4.23461 3.12995 4.09671 2.99969 3.99859C2.86943 3.90047 2.71074 3.84748 2.54766 3.84766H0.972656" stroke="#3D3D3D" stroke-width="1.5" stroke-linecap="round" stroke-linejoin="round"/>
</svg>
