<svg width="18" height="18" viewBox="0 0 18 18" fill="none" xmlns="http://www.w3.org/2000/svg">
<path d="M17.4999 1.60003V7.50004H10.6027V0.500031H16.4205C16.7047 0.500031 16.9786 0.614332 17.1815 0.819921C17.3847 1.02573 17.4999 1.30622 17.4999 1.60003ZM1.57945 0.500035H7.39724V7.50005H0.5V1.60004C0.5 1.30623 0.615277 1.02573 0.818441 0.819925C1.02139 0.614336 1.29526 0.500035 1.57945 0.500035ZM10.6028 17.5V10.5H17.5V16.4C17.5 16.6938 17.3847 16.9743 17.1816 17.1801C16.9786 17.3857 16.7047 17.5 16.4206 17.5H10.6028ZM0.5 16.4V10.5H7.39724V17.5H1.57945C1.29526 17.5 1.02139 17.3857 0.818441 17.1801C0.615277 16.9743 0.5 16.6938 0.5 16.4Z" fill="white" stroke="white"/>
</svg>
