<svg width="25" height="24" viewBox="0 0 25 24" fill="none" xmlns="http://www.w3.org/2000/svg"><g clip-path="url(#clip0_2717_16844)"><path d="M21.2 4.6v6a.403.403 0 0 1-.116.283.392.392 0 0 1-.279.117h-7.502V3.4c0-.106.041-.208.115-.283a.392.392 0 0 1 .28-.117h5.922c.42 0 .821.169 1.117.469.297.3.463.707.463 1.131ZM10.702 3H4.78c-.418 0-.82.169-1.116.469A1.61 1.61 0 0 0 3.2 4.6v6c0 .106.042.208.116.283a.392.392 0 0 0 .279.117h7.502V3.4a.403.403 0 0 0-.115-.283.392.392 0 0 0-.28-.117Zm10.103 10h-7.502v7.6c0 .106.041.208.115.283a.392.392 0 0 0 .28.117h5.922c.42 0 .821-.169 1.117-.469.297-.3.463-.707.463-1.131v-6a.403.403 0 0 0-.116-.283.392.392 0 0 0-.279-.117ZM3.2 13.4v6c0 .424.166.831.463 1.131.296.3.698.469 1.116.469h5.923a.392.392 0 0 0 .28-.117.402.402 0 0 0 .115-.283V13H3.595a.392.392 0 0 0-.28.117.403.403 0 0 0-.115.283Z" fill="#939393"/></g><defs><clipPath id="clip0_2717_16844"><path fill="#fff" d="M.2 0h24v24H.2z"/></clipPath></defs></svg>
