<svg width="237" height="193" viewBox="0 0 237 193" fill="none" xmlns="http://www.w3.org/2000/svg"><g filter="url(#filter0_bdiii_96_6867)"><path d="M152.007 7.667 17.536 84.333a15.36 15.36 0 0 0-7.235 9.31 15.166 15.166 0 0 0 1.551 11.636L115.467 274.5a15.499 15.499 0 0 0 9.428 7.144 15.696 15.696 0 0 0 11.783-1.532l130.702-74.375a15.358 15.358 0 0 0 7.234-9.311 15.165 15.165 0 0 0-1.551-11.635L173.218 13.279a15.502 15.502 0 0 0-9.428-7.144 15.701 15.701 0 0 0-11.783 1.532ZM110.041 204.22a11.766 11.766 0 0 1-12.912-.836 11.506 11.506 0 0 1-3.938-5.427 11.362 11.362 0 0 1-.222-6.673 11.482 11.482 0 0 1 3.57-5.67 11.717 11.717 0 0 1 6.159-2.755 11.774 11.774 0 0 1 6.671 1.087 11.582 11.582 0 0 1 4.934 4.565 11.372 11.372 0 0 1 1.164 8.726 11.522 11.522 0 0 1-5.426 6.983ZM86.75 164.384a11.773 11.773 0 0 1-12.912-.836 11.507 11.507 0 0 1-3.939-5.427 11.364 11.364 0 0 1-.22-6.673 11.483 11.483 0 0 1 3.57-5.67 11.72 11.72 0 0 1 6.158-2.755 11.774 11.774 0 0 1 6.67 1.087 11.592 11.592 0 0 1 4.935 4.564 11.376 11.376 0 0 1 1.164 8.727 11.52 11.52 0 0 1-5.426 6.983Zm-23.291-39.838a11.765 11.765 0 0 1-12.913-.835 11.511 11.511 0 0 1-3.938-5.427 11.362 11.362 0 0 1-.22-6.673 11.482 11.482 0 0 1 3.57-5.67 11.704 11.704 0 0 1 6.158-2.755 11.774 11.774 0 0 1 6.67 1.087 11.586 11.586 0 0 1 4.935 4.564 11.376 11.376 0 0 1 1.164 8.727 11.519 11.519 0 0 1-5.426 6.982Zm148.856 16.938-73.959 42.167a7.849 7.849 0 0 1-5.891.766 7.748 7.748 0 0 1-4.714-3.572 7.582 7.582 0 0 1-.776-5.818 7.681 7.681 0 0 1 3.617-4.655l73.96-42.167a7.853 7.853 0 0 1 5.891-.766 7.753 7.753 0 0 1 4.714 3.573 7.579 7.579 0 0 1 .776 5.817 7.676 7.676 0 0 1-3.618 4.655Zm-23.291-39.837-73.959 42.167a7.849 7.849 0 0 1-5.891.766 7.753 7.753 0 0 1-4.715-3.572 7.586 7.586 0 0 1-.775-5.818 7.678 7.678 0 0 1 3.617-4.655l73.959-42.167a7.853 7.853 0 0 1 5.892-.766 7.753 7.753 0 0 1 4.714 3.572 7.59 7.59 0 0 1 .776 5.818 7.68 7.68 0 0 1-3.618 4.655ZM165.733 61.81l-73.96 42.167a7.854 7.854 0 0 1-5.89.766 7.758 7.758 0 0 1-4.715-3.572 7.585 7.585 0 0 1-.775-5.818 7.68 7.68 0 0 1 3.617-4.655L157.97 48.53a7.852 7.852 0 0 1 5.892-.766 7.752 7.752 0 0 1 4.714 3.572 7.585 7.585 0 0 1 .775 5.818 7.68 7.68 0 0 1-3.617 4.655Z" fill="url(#paint0_linear_96_6867)" fill-opacity=".5" shape-rendering="crispEdges"/></g><defs><linearGradient id="paint0_linear_96_6867" x1="84.772" y1="46" x2="198.298" y2="245.123" gradientUnits="userSpaceOnUse"><stop stop-color="#4E8F7F"/><stop offset="1" stop-color="#fff"/></linearGradient><filter id="filter0_bdiii_96_6867" x="-13.228" y="-17.388" width="311.372" height="322.554" filterUnits="userSpaceOnUse" color-interpolation-filters="sRGB"><feFlood flood-opacity="0" result="BackgroundImageFix"/><feGaussianBlur in="BackgroundImageFix" stdDeviation="11.5"/><feComposite in2="SourceAlpha" operator="in" result="effect1_backgroundBlur_96_6867"/><feColorMatrix in="SourceAlpha" values="0 0 0 0 0 0 0 0 0 0 0 0 0 0 0 0 0 0 127 0" result="hardAlpha"/><feOffset dy="4"/><feGaussianBlur stdDeviation="4.5"/><feComposite in2="hardAlpha" operator="out"/><feColorMatrix values="0 0 0 0 0.0169705 0 0 0 0 0.32902 0 0 0 0 0.25248 0 0 0 1 0"/><feBlend in2="effect1_backgroundBlur_96_6867" result="effect2_dropShadow_96_6867"/><feBlend in="SourceGraphic" in2="effect2_dropShadow_96_6867" result="shape"/><feColorMatrix in="SourceAlpha" values="0 0 0 0 0 0 0 0 0 0 0 0 0 0 0 0 0 0 127 0" result="hardAlpha"/><feOffset dy=".5"/><feGaussianBlur stdDeviation="1"/><feComposite in2="hardAlpha" operator="arithmetic" k2="-1" k3="1"/><feColorMatrix values="0 0 0 0 1 0 0 0 0 1 0 0 0 0 1 0 0 0 0.15 0"/><feBlend in2="shape" result="effect3_innerShadow_96_6867"/><feColorMatrix in="SourceAlpha" values="0 0 0 0 0 0 0 0 0 0 0 0 0 0 0 0 0 0 127 0" result="hardAlpha"/><feOffset dy="6"/><feGaussianBlur stdDeviation="7"/><feComposite in2="hardAlpha" operator="arithmetic" k2="-1" k3="1"/><feColorMatrix values="0 0 0 0 1 0 0 0 0 1 0 0 0 0 1 0 0 0 0.15 0"/><feBlend in2="effect3_innerShadow_96_6867" result="effect4_innerShadow_96_6867"/><feColorMatrix in="SourceAlpha" values="0 0 0 0 0 0 0 0 0 0 0 0 0 0 0 0 0 0 127 0" result="hardAlpha"/><feOffset dy="-4"/><feGaussianBlur stdDeviation="9"/><feComposite in2="hardAlpha" operator="arithmetic" k2="-1" k3="1"/><feColorMatrix values="0 0 0 0 1 0 0 0 0 1 0 0 0 0 1 0 0 0 0.15 0"/><feBlend in2="effect4_innerShadow_96_6867" result="effect5_innerShadow_96_6867"/></filter></defs></svg>
