<svg width="52" height="52" viewBox="0 0 52 52" fill="none" xmlns="http://www.w3.org/2000/svg">
<rect width="52" height="52" rx="12" fill="#FF7F23"/>
<g clip-path="url(#clip0_31_6039)">
<path d="M37.375 25.2999V34.0499C37.375 35.2103 36.9141 36.323 36.0936 37.1435C35.2731 37.964 34.1603 38.4249 33 38.4249H26.875C26.6429 38.4249 26.4204 38.3327 26.2563 38.1686C26.0922 38.0046 26 37.782 26 37.5499C26 37.3179 26.0922 37.0953 26.2563 36.9312C26.4204 36.7671 26.6429 36.6749 26.875 36.6749H33C33.6962 36.6749 34.3639 36.3984 34.8562 35.9061C35.3484 35.4138 35.625 34.7461 35.625 34.0499H33C32.3038 34.0499 31.6361 33.7734 31.1438 33.2811C30.6516 32.7888 30.375 32.1211 30.375 31.4249V27.0499C30.375 26.3537 30.6516 25.6861 31.1438 25.1938C31.6361 24.7015 32.3038 24.4249 33 24.4249H35.5867C35.4211 22.606 34.7414 20.8716 33.6269 19.4246C32.5125 17.9775 31.0092 16.8774 29.2929 16.2528C27.5765 15.6282 25.7178 15.5048 23.934 15.8971C22.1501 16.2895 20.5147 17.1813 19.2187 18.4684C17.6073 20.0586 16.6134 22.1697 16.4144 24.4249H19C19.6962 24.4249 20.3639 24.7015 20.8562 25.1938C21.3484 25.6861 21.625 26.3537 21.625 27.0499V31.4249C21.625 32.1211 21.3484 32.7888 20.8562 33.2811C20.3639 33.7734 19.6962 34.0499 19 34.0499H17.25C16.5538 34.0499 15.8861 33.7734 15.3938 33.2811C14.9016 32.7888 14.625 32.1211 14.625 31.4249V25.2999C14.6275 23.0467 15.2983 20.8448 16.5527 18.9731C17.8071 17.1013 19.5887 15.6437 21.6718 14.7849C23.7549 13.9261 26.0461 13.7046 28.2551 14.1484C30.4642 14.5923 32.492 15.6816 34.0817 17.2784C35.1313 18.3331 35.9625 19.5845 36.5276 20.961C37.0927 22.3375 37.3807 23.812 37.375 25.2999Z" fill="white"/>
</g>
<defs>
<clipPath id="clip0_31_6039">
<rect width="28" height="28" fill="white" transform="translate(12 12)"/>
</clipPath>
</defs>
</svg>
