<svg width="52" height="52" viewBox="0 0 52 52" fill="none" xmlns="http://www.w3.org/2000/svg"><rect width="52" height="52" rx="12" fill="#FF7F23"/><g clip-path="url(#clip0_2241_12607)"><path d="M37.375 22.5a7.875 7.875 0 0 1-11.04 7.219l-5.694 6.586a3.5 3.5 0 1 1-4.993-4.904c.015-.014.03-.03.047-.043l6.586-5.693a7.882 7.882 0 0 1 9.138-10.804.875.875 0 0 1 .43 1.443L27.75 20.75l.62 2.882 2.88.618 4.446-4.104a.876.876 0 0 1 1.443.43c.157.63.236 1.276.236 1.924Z" fill="#fff"/></g><defs><clipPath id="clip0_2241_12607"><path fill="#fff" d="M12 12h28v28H12z"/></clipPath></defs></svg>
