<svg width="67" height="63" viewBox="0 0 67 63" fill="none" xmlns="http://www.w3.org/2000/svg">
<path d="M66.7489 37.5097L58.5047 6.74089C58.2453 5.78424 57.6178 4.96909 56.7594 4.47347C55.9009 3.97785 54.8813 3.84203 53.9231 4.09568L23.1645 12.3462C22.2078 12.6056 21.3927 13.2329 20.8971 14.0913C20.4016 14.9497 20.2658 15.9693 20.5195 16.9275L28.7638 47.6963C29.0232 48.6529 29.6507 49.4681 30.5091 49.9637C31.3676 50.4593 32.3872 50.5952 33.3454 50.3415L64.1141 42.0968C65.0708 41.8375 65.8859 41.2101 66.3815 40.3517C66.8771 39.4934 67.0128 38.4738 66.7591 37.5156L66.7489 37.5097Z" fill="#FF7F23"/>
<g filter="url(#filter0_bdiii_44_1767)">
<path d="M56.6492 46.8208H53.379V23.5359C53.379 22.6537 53.0285 21.8076 52.4047 21.1837C51.7808 20.5599 50.9348 20.2095 50.0525 20.2095H40.9049C40.6844 20.2095 40.4728 20.2971 40.3169 20.453C40.1609 20.609 40.0733 20.8205 40.0733 21.0411V46.8208H36.7469V10.3155C36.7524 9.79734 36.64 9.28475 36.4181 8.8165C36.1962 8.34825 35.8707 7.93662 35.4662 7.61276C34.9149 7.1829 34.2421 6.93768 33.5435 6.91193C32.8448 6.88617 32.1558 7.0812 31.5743 7.46931L14.9423 18.5463C14.486 18.8507 14.1121 19.2632 13.8538 19.7471C13.5956 20.2309 13.461 20.7712 13.462 21.3197V46.8208H10.1917C9.76194 46.8144 9.34568 46.9711 9.0267 47.2592C8.70771 47.5473 8.50967 47.9455 8.4724 48.3738C8.4573 48.6013 8.48913 48.8295 8.56592 49.0441C8.64272 49.2588 8.76283 49.4554 8.91881 49.6217C9.07478 49.788 9.26329 49.9205 9.47261 50.0109C9.68193 50.1013 9.90761 50.1477 10.1356 50.1472H56.7054C56.9334 50.1477 57.159 50.1013 57.3684 50.0109C57.5777 49.9205 57.7662 49.788 57.9222 49.6217C58.0781 49.4554 58.1983 49.2588 58.2751 49.0441C58.3518 48.8295 58.3837 48.6013 58.3686 48.3738C58.3313 47.9455 58.1333 47.5473 57.8143 47.2592C57.4953 46.9711 57.079 46.8144 56.6492 46.8208ZM22.6097 41.8311C22.6102 42.0591 22.5638 42.2848 22.4734 42.4941C22.383 42.7035 22.2505 42.892 22.0842 43.0479C21.9179 43.2039 21.7213 43.324 21.5066 43.4008C21.2919 43.4776 21.0638 43.5094 20.8363 43.4943C20.4077 43.4571 20.0091 43.2587 19.721 42.9393C19.4328 42.6199 19.2764 42.2031 19.2832 41.7729V38.5609C19.2774 38.1312 19.4342 37.7152 19.7222 37.3963C20.0103 37.0774 20.4082 36.8793 20.8363 36.8415C21.0638 36.8264 21.2919 36.8582 21.5066 36.935C21.7213 37.0118 21.9179 37.1319 22.0842 37.2879C22.2505 37.4439 22.383 37.6324 22.4734 37.8417C22.5638 38.051 22.6102 38.2767 22.6097 38.5047V41.8311ZM22.6097 30.1887C22.6102 30.4167 22.5638 30.6424 22.4734 30.8517C22.383 31.061 22.2505 31.2495 22.0842 31.4055C21.9179 31.5615 21.7213 31.6816 21.5066 31.7584C21.2919 31.8352 21.0638 31.867 20.8363 31.8519C20.4079 31.8141 20.0096 31.6157 19.7215 31.2963C19.4334 30.977 19.2769 30.5605 19.2832 30.1305V26.9184C19.2774 26.4888 19.4342 26.0728 19.7222 25.7539C20.0103 25.435 20.4082 25.2368 20.8363 25.1991C21.0638 25.184 21.2919 25.2158 21.5066 25.2926C21.7213 25.3694 21.9179 25.4895 22.0842 25.6455C22.2505 25.8015 22.383 25.99 22.4734 26.1993C22.5638 26.4086 22.6102 26.6343 22.6097 26.8623V30.1887ZM30.9257 41.8311C30.9262 42.0591 30.8798 42.2848 30.7894 42.4941C30.699 42.7035 30.5666 42.892 30.4003 43.0479C30.2339 43.2039 30.0373 43.324 29.8227 43.4008C29.608 43.4776 29.3798 43.5094 29.1523 43.4943C28.7244 43.4571 28.3265 43.2594 28.0384 42.9408C27.7503 42.6223 27.5935 42.2065 27.5993 41.7771V38.5609C27.5939 38.1315 27.751 37.7161 28.039 37.3976C28.327 37.0792 28.7246 36.8813 29.1523 36.8436C29.3798 36.8285 29.608 36.8603 29.8227 36.9371C30.0373 37.0139 30.2339 37.134 30.4003 37.29C30.5666 37.446 30.699 37.6345 30.7894 37.8438C30.8798 38.0531 30.9262 38.2788 30.9257 38.5068V41.8311ZM30.9257 30.1887C30.9262 30.4167 30.8798 30.6424 30.7894 30.8517C30.699 31.061 30.5666 31.2495 30.4003 31.4055C30.2339 31.5615 30.0373 31.6816 29.8227 31.7584C29.608 31.8352 29.3798 31.867 29.1523 31.8519C28.7246 31.8142 28.327 31.6163 28.039 31.2979C27.751 30.9794 27.5939 30.564 27.5993 30.1346V26.9184C27.5939 26.4891 27.751 26.0736 28.039 25.7552C28.327 25.4368 28.7246 25.2389 29.1523 25.2012C29.3798 25.1861 29.608 25.2179 29.8227 25.2947C30.0373 25.3715 30.2339 25.4916 30.4003 25.6476C30.5666 25.8035 30.699 25.992 30.7894 26.2014C30.8798 26.4107 30.9262 26.6364 30.9257 26.8644V30.1887Z" fill="url(#paint0_linear_44_1767)" fill-opacity="0.52" shape-rendering="crispEdges"/>
<path d="M20.8146 43.7435L20.8146 43.7434C20.323 43.7006 19.8659 43.4731 19.5353 43.1068C19.2052 42.7409 19.0259 42.2636 19.0332 41.771V38.5625C19.027 38.0704 19.2068 37.594 19.5367 37.2287C19.867 36.863 20.3234 36.6358 20.8143 36.5925L20.8197 36.592L20.8197 36.5921C21.0814 36.5747 21.3439 36.6113 21.5908 36.6996C21.8378 36.788 22.0639 36.9261 22.2552 37.1056C22.4465 37.285 22.5989 37.5018 22.7029 37.7426C22.8068 37.9833 22.8602 38.2427 22.8597 38.5048V38.5047H22.6097L22.8597 38.5053L20.8146 43.7435ZM20.8146 43.7435L20.8197 43.7438C21.0814 43.7612 21.3439 43.7246 21.5908 43.6362C21.8378 43.5479 22.0639 43.4097 22.2552 43.2303C22.4465 43.0509 22.5989 42.834 22.7029 42.5932C22.8068 42.3526 22.8602 42.0932 22.8597 41.831V41.8311H22.6097L22.8597 41.8306L20.8146 43.7435ZM20.8143 32.101L20.8143 32.1009C20.323 32.0576 19.8663 31.83 19.5359 31.4638C19.2059 31.0981 19.0264 30.6212 19.0332 30.1287V26.9201C19.027 26.428 19.2068 25.9516 19.5367 25.5863C19.867 25.2206 20.3234 24.9933 20.8143 24.95L20.8197 24.9496L20.8197 24.9496C21.0814 24.9323 21.3439 24.9689 21.5908 25.0572C21.8378 25.1455 22.0639 25.2837 22.2552 25.4631C22.4465 25.6426 22.5989 25.8594 22.7029 26.1002C22.8068 26.3408 22.8602 26.6003 22.8597 26.8624V26.8623H22.6097L22.8597 26.8628L20.8143 32.101ZM20.8143 32.101L20.8197 32.1014C21.0814 32.1187 21.3439 32.0821 21.5908 31.9938C21.8378 31.9054 22.0639 31.7673 22.2552 31.5879C22.4465 31.4084 22.5989 31.1916 22.7029 30.9508C22.8068 30.7102 22.8602 30.4507 22.8597 30.1886V30.1887H22.6097L22.8597 30.1881L20.8143 32.101ZM29.1306 43.7435L29.1306 43.7434C28.6398 43.7007 28.1834 43.4739 27.853 43.1085C27.523 42.7436 27.343 42.2674 27.3493 41.7754V38.5624C27.3436 38.0706 27.5236 37.5947 27.8536 37.2299C28.1838 36.8648 28.6399 36.6378 29.1303 36.5946L29.1357 36.5941L29.1357 36.5941C29.3974 36.5768 29.6599 36.6134 29.9069 36.7017C30.1538 36.7901 30.38 36.9282 30.5713 37.1077C30.7626 37.2871 30.9149 37.5039 31.0189 37.7447C31.1229 37.9855 31.1763 38.2451 31.1757 38.5074M29.1306 43.7435L30.9257 38.5068M29.1306 43.7435L29.1357 43.7438C29.3974 43.7612 29.6599 43.7246 29.9069 43.6362C30.1538 43.5479 30.38 43.4097 30.5713 43.2303C30.7626 43.0509 30.9149 42.834 31.0189 42.5932C31.1229 42.3525 31.1763 42.0929 31.1757 41.8306M29.1306 43.7435L30.9257 41.8311M31.1757 38.5074L30.9257 38.5068M31.1757 38.5074V38.5068H30.9257M31.1757 38.5074V41.8306M30.9257 38.5068V41.8311M31.1757 41.8306L30.9257 41.8311M31.1757 41.8306V41.8311H30.9257M29.1303 32.101L29.1303 32.1009C28.6399 32.0577 28.1838 31.8307 27.8536 31.4656C27.5236 31.1008 27.3436 30.6249 27.3493 30.1331V26.9199C27.3436 26.4282 27.5236 25.9523 27.8536 25.5875C28.1838 25.2223 28.6399 24.9954 29.1303 24.9521L29.1357 24.9517L29.1357 24.9517C29.3974 24.9343 29.6599 24.9709 29.9069 25.0593C30.1538 25.1476 30.38 25.2858 30.5713 25.4652C30.7626 25.6446 30.9149 25.8615 31.0189 26.1023C31.1229 26.343 31.1763 26.6026 31.1757 26.8649M29.1303 32.101L30.9257 26.8644M29.1303 32.101L29.1357 32.1014C29.3974 32.1187 29.6599 32.0821 29.9069 31.9938C30.1538 31.9054 30.38 31.7673 30.5713 31.5879C30.7626 31.4084 30.9149 31.1916 31.0189 30.9508C31.1229 30.71 31.1763 30.4504 31.1757 30.1881M29.1303 32.101L30.9257 30.1887M31.1757 26.8649L30.9257 26.8644M31.1757 26.8649V26.8644H30.9257M31.1757 26.8649V30.1881M30.9257 26.8644V30.1887M31.1757 30.1881L30.9257 30.1887M31.1757 30.1881V30.1887H30.9257M56.6492 47.0708L56.6529 47.0707C57.0195 47.0653 57.3746 47.1989 57.6467 47.4447C57.9182 47.6899 58.0869 48.0286 58.1193 48.3928C58.1317 48.5853 58.1046 48.7783 58.0397 48.9599C57.9744 49.1424 57.8723 49.3094 57.7398 49.4507C57.6073 49.592 57.4471 49.7046 57.2693 49.7814C57.0914 49.8582 56.8997 49.8976 56.7059 49.8972H56.7054H10.1356H10.1351C9.94133 49.8976 9.74958 49.8582 9.57172 49.7814C9.39386 49.7046 9.23369 49.592 9.10116 49.4507C8.96863 49.3094 8.86657 49.1424 8.80132 48.9599C8.73635 48.7783 8.70926 48.5853 8.72169 48.3929C8.75404 48.0286 8.92281 47.6899 9.19427 47.4447C9.46636 47.1989 9.82143 47.0653 10.1881 47.0707L10.1881 47.0708H10.1917H13.462H13.712V46.8208L13.712 21.3197L13.712 21.3192C13.7111 20.8119 13.8355 20.3123 14.0744 19.8648C14.3132 19.4173 14.6591 19.0358 15.081 18.7542L31.7129 7.67738L31.7131 7.67725C32.2509 7.31831 32.8881 7.13794 33.5343 7.16176C34.1799 7.18555 34.8016 7.41199 35.3113 7.80894C35.6855 8.10894 35.9868 8.49007 36.1922 8.92355C36.3978 9.35753 36.502 9.83261 36.4969 10.3128V10.3155V46.8208V47.0708H36.7469H40.0733H40.3233V46.8208V21.0411C40.3233 20.8868 40.3846 20.7389 40.4937 20.6298C40.6027 20.5207 40.7507 20.4595 40.9049 20.4595H50.0525C50.8685 20.4595 51.651 20.7836 52.2279 21.3605C52.8048 21.9375 53.129 22.72 53.129 23.5359V46.8208V47.0708H53.379L56.6492 47.0708ZM10.1356 50.1472H56.7054L8.4724 48.3738C8.4573 48.6013 8.48913 48.8295 8.56592 49.0441C8.64272 49.2588 8.76283 49.4554 8.91881 49.6217C9.07478 49.788 9.26329 49.9205 9.47261 50.0109C9.68193 50.1013 9.90761 50.1477 10.1356 50.1472Z" stroke="white" stroke-opacity="0.2" stroke-width="0.5" shape-rendering="crispEdges"/>
</g>
<defs>
<filter id="filter0_bdiii_44_1767" x="-21.5312" y="-23.0903" width="109.903" height="103.238" filterUnits="userSpaceOnUse" color-interpolation-filters="sRGB">
<feFlood flood-opacity="0" result="BackgroundImageFix"/>
<feGaussianBlur in="BackgroundImageFix" stdDeviation="15"/>
<feComposite in2="SourceAlpha" operator="in" result="effect1_backgroundBlur_44_1767"/>
<feColorMatrix in="SourceAlpha" type="matrix" values="0 0 0 0 0 0 0 0 0 0 0 0 0 0 0 0 0 0 127 0" result="hardAlpha"/>
<feOffset dy="4"/>
<feGaussianBlur stdDeviation="4"/>
<feComposite in2="hardAlpha" operator="out"/>
<feColorMatrix type="matrix" values="0 0 0 0 0.805192 0 0 0 0 0.708514 0 0 0 0 0.638204 0 0 0 1 0"/>
<feBlend mode="normal" in2="effect1_backgroundBlur_44_1767" result="effect2_dropShadow_44_1767"/>
<feBlend mode="normal" in="SourceGraphic" in2="effect2_dropShadow_44_1767" result="shape"/>
<feColorMatrix in="SourceAlpha" type="matrix" values="0 0 0 0 0 0 0 0 0 0 0 0 0 0 0 0 0 0 127 0" result="hardAlpha"/>
<feOffset dy="0.5"/>
<feGaussianBlur stdDeviation="1"/>
<feComposite in2="hardAlpha" operator="arithmetic" k2="-1" k3="1"/>
<feColorMatrix type="matrix" values="0 0 0 0 1 0 0 0 0 1 0 0 0 0 1 0 0 0 0.1 0"/>
<feBlend mode="normal" in2="shape" result="effect3_innerShadow_44_1767"/>
<feColorMatrix in="SourceAlpha" type="matrix" values="0 0 0 0 0 0 0 0 0 0 0 0 0 0 0 0 0 0 127 0" result="hardAlpha"/>
<feOffset dy="6"/>
<feGaussianBlur stdDeviation="7"/>
<feComposite in2="hardAlpha" operator="arithmetic" k2="-1" k3="1"/>
<feColorMatrix type="matrix" values="0 0 0 0 1 0 0 0 0 1 0 0 0 0 1 0 0 0 0.4 0"/>
<feBlend mode="normal" in2="effect3_innerShadow_44_1767" result="effect4_innerShadow_44_1767"/>
<feColorMatrix in="SourceAlpha" type="matrix" values="0 0 0 0 0 0 0 0 0 0 0 0 0 0 0 0 0 0 127 0" result="hardAlpha"/>
<feOffset dy="-4"/>
<feGaussianBlur stdDeviation="9"/>
<feComposite in2="hardAlpha" operator="arithmetic" k2="-1" k3="1"/>
<feColorMatrix type="matrix" values="0 0 0 0 1 0 0 0 0 1 0 0 0 0 1 0 0 0 0.05 0"/>
<feBlend mode="normal" in2="effect4_innerShadow_44_1767" result="effect5_innerShadow_44_1767"/>
</filter>
<linearGradient id="paint0_linear_44_1767" x1="11.3305" y1="14.9922" x2="54.6945" y2="41.5119" gradientUnits="userSpaceOnUse">
<stop stop-color="white"/>
<stop offset="0.888184" stop-color="white"/>
</linearGradient>
</defs>
</svg>
