<svg width="71" height="70" viewBox="0 0 71 70" fill="none" xmlns="http://www.w3.org/2000/svg">
<circle cx="45.5167" cy="28.1832" r="22.5089" fill="#FF7F23"/>
<g filter="url(#filter0_bdiii_44_2870)">
<path d="M62.2571 32.8097L56.8121 21.7656C56.6115 21.3591 56.3338 20.9967 55.9951 20.6989C55.6563 20.4012 55.263 20.1741 54.8376 20.0304C54.4122 19.8868 53.963 19.8296 53.5158 19.8619C53.0686 19.8943 52.632 20.0157 52.2311 20.2191L46.9247 22.9076L35.7465 19.9098C35.4596 19.8341 35.1585 19.8341 34.8717 19.9098L23.6934 22.9076L18.387 20.2191C17.9861 20.0157 17.5495 19.8943 17.1023 19.8619C16.6551 19.8296 16.2059 19.8868 15.7805 20.0304C15.3552 20.1741 14.9618 20.4012 14.623 20.6989C14.2843 20.9967 14.0066 21.3591 13.8061 21.7656L8.36096 32.8076C8.1603 33.214 8.04059 33.6566 8.00867 34.1099C7.97674 34.5633 8.03322 35.0186 8.17489 35.4498C8.31655 35.8811 8.54062 36.2798 8.83431 36.6232C9.128 36.9667 9.48554 37.2481 9.88653 37.4514L15.6474 40.3736L27.4871 48.9454C27.6615 49.0713 27.8576 49.163 28.0653 49.2158L41.7207 52.6766C42.0067 52.7493 42.3063 52.7456 42.5905 52.666C42.8747 52.5864 43.1337 52.4336 43.3423 52.2223L51.8769 43.5705L55.0945 40.3087L60.7316 37.4514C61.5409 37.0408 62.1562 36.3211 62.4422 35.4507C62.7283 34.5803 62.6617 33.6304 62.2571 32.8097ZM50.5455 40.0275L43.2036 34.0664C42.8747 33.7994 42.46 33.6651 42.0393 33.6895C41.6186 33.7138 41.2216 33.8951 40.9248 34.1983C37.1248 38.0787 32.8895 37.5877 30.1883 35.8573L39.4142 26.7729H46.2014L52.0071 38.5416L50.5455 40.0275ZM41.6119 49.0817L29.2111 45.9389L18.7135 38.3383L24.6877 26.2256L35.3091 23.3727L37.4 23.9329L27.7986 33.3807L27.7815 33.4002C27.4201 33.7666 27.1444 34.2106 26.9749 34.6994C26.8053 35.1882 26.7462 35.7094 26.8019 36.2245C26.8576 36.7396 27.0267 37.2354 27.2967 37.6753C27.5667 38.1153 27.9307 38.4882 28.3619 38.7665C32.7487 41.6065 38.0423 41.1458 42.2114 37.685L48.111 42.489L41.6119 49.0817ZM36.1241 56.6088C36.0319 56.9828 35.8191 57.3149 35.5196 57.5524C35.22 57.7898 34.8508 57.9191 34.4705 57.9196C34.3303 57.9194 34.1906 57.902 34.0545 57.8677L25.155 55.6117C24.947 55.5597 24.7508 55.4679 24.5768 55.3413L18.9546 51.2706C18.6089 50.9955 18.3812 50.5958 18.319 50.1547C18.2567 49.7136 18.3647 49.2652 18.6204 48.9029C18.8761 48.5405 19.2599 48.2921 19.6918 48.2094C20.1236 48.1266 20.5704 48.216 20.9389 48.4588L26.2965 52.3391L34.8823 54.5108C35.3214 54.6221 35.6989 54.9057 35.9318 55.2991C36.1646 55.6926 36.2338 56.1637 36.1241 56.6088Z" fill="url(#paint0_linear_44_2870)" fill-opacity="0.52" shape-rendering="crispEdges"/>
<path d="M52.3441 20.4421L52.3442 20.442C52.7156 20.2536 53.1199 20.1413 53.5339 20.1113C53.9479 20.0813 54.3637 20.1343 54.7576 20.2673C55.1515 20.4003 55.516 20.6107 55.83 20.8867C56.1441 21.1627 56.4017 21.4989 56.5879 21.8762L62.0329 32.9203C62.4085 33.6821 62.4704 34.5643 62.2047 35.3727C61.9391 36.1809 61.3681 36.8481 60.6184 37.2285L54.9814 40.0857L54.9451 40.1041L54.9165 40.1332L51.6989 43.3949L43.1644 52.0467C43.1644 52.0467 43.1643 52.0467 43.1643 52.0468C42.9861 52.2272 42.7651 52.3575 42.5231 52.4253C42.281 52.4931 42.0259 52.4962 41.7823 52.4343L41.7821 52.4342L28.1269 48.9735C28.1269 48.9735 28.1269 48.9735 28.1268 48.9735C27.9498 48.9284 27.7824 48.8502 27.6333 48.7427L15.794 40.1711L15.7781 40.1596L15.7605 40.1507L9.99962 37.2285L9.9996 37.2285C9.62814 37.0401 9.2967 36.7793 9.02431 36.4607C8.75192 36.1422 8.54393 35.7722 8.4124 35.3718C8.28086 34.9714 8.2284 34.5486 8.25805 34.1275C8.2877 33.7064 8.39888 33.2955 8.58513 32.9182L8.58518 32.9181L14.0302 21.8762C14.0303 21.8762 14.0303 21.8762 14.0303 21.8762C14.2165 21.4989 14.474 21.1627 14.7881 20.8867C15.1021 20.6107 15.4666 20.4003 15.8605 20.2673C16.2544 20.1343 16.6702 20.0813 17.0842 20.1113C17.4982 20.1413 17.9025 20.2536 18.2739 20.442L18.274 20.4421L23.5804 23.1307L23.6658 23.1739L23.7582 23.1491L34.9354 20.1515C34.9356 20.1515 34.9358 20.1514 34.936 20.1514C35.1806 20.0869 35.4375 20.0869 35.6822 20.1514C35.6823 20.1514 35.6825 20.1515 35.6827 20.1515L46.8599 23.1491L46.9523 23.1739L47.0377 23.1307L52.3441 20.4421ZM50.3879 40.2216L50.5644 40.3649L50.7237 40.2028L52.1853 38.7169L52.3098 38.5903L52.2313 38.431L46.4256 26.6623L46.3568 26.5229H46.2014H39.4142H39.3118L39.2388 26.5947L30.0129 35.6792L29.7897 35.8989L30.0534 36.0678C31.4435 36.9583 33.231 37.5319 35.1639 37.3811C37.101 37.23 39.1649 36.3527 41.1035 34.3733L41.1035 34.3732C41.3571 34.1141 41.6956 33.9598 42.0537 33.9391C42.4118 33.9183 42.7652 34.0325 43.046 34.2605L50.3879 40.2216ZM41.5505 49.3241L41.6893 49.3593L41.7899 49.2572L48.289 42.6645L48.482 42.4687L48.2689 42.2951L42.3693 37.4912L42.2099 37.3614L42.0518 37.4927C37.9598 40.8893 32.7855 41.3325 28.4977 38.5567L28.4974 38.5565C28.0979 38.2986 27.7603 37.9529 27.5098 37.5446C27.2593 37.1363 27.1022 36.676 27.0505 36.1976C26.9988 35.7192 27.0537 35.2352 27.2111 34.7813C27.3685 34.3275 27.6243 33.9155 27.9595 33.5758L27.9646 33.5705L27.9695 33.565L27.9805 33.5525L37.5754 24.1111L37.8869 23.8045L37.4647 23.6914L35.3738 23.1312L35.309 23.1138L35.2442 23.1312L24.6229 25.9842L24.5136 26.0136L24.4635 26.1151L18.4893 38.2277L18.3959 38.417L18.5669 38.5408L29.0644 46.1414L29.1032 46.1695L29.1496 46.1813L41.5505 49.3241ZM25.2164 55.3694L25.2156 55.3692C25.0389 55.325 24.872 55.247 24.7238 55.1392L24.7234 55.1389L19.106 51.0716C18.8132 50.8368 18.6196 50.4962 18.5665 50.1198C18.5131 49.7414 18.6058 49.3571 18.8247 49.047C19.0435 48.737 19.3711 48.5253 19.7388 48.4549C20.1047 48.3848 20.4834 48.4597 20.7969 48.6646L26.1498 52.5416L26.1887 52.5698L26.2352 52.5815L34.8209 54.7531C34.8209 54.7531 34.8209 54.7531 34.8209 54.7531C35.1948 54.8479 35.5173 55.0897 35.7166 55.4265C35.916 55.7634 35.9755 56.1673 35.8814 56.549C35.8023 56.8696 35.6201 57.1537 35.3643 57.3564C35.1086 57.5591 34.7941 57.6691 34.4705 57.6696C34.3509 57.6694 34.2317 57.6545 34.1155 57.6253L25.2164 55.3694Z" stroke="white" stroke-opacity="0.2" stroke-width="0.5" shape-rendering="crispEdges"/>
</g>
<defs>
<filter id="filter0_bdiii_44_2870" x="-22" y="-10.147" width="114.617" height="98.0667" filterUnits="userSpaceOnUse" color-interpolation-filters="sRGB">
<feFlood flood-opacity="0" result="BackgroundImageFix"/>
<feGaussianBlur in="BackgroundImageFix" stdDeviation="15"/>
<feComposite in2="SourceAlpha" operator="in" result="effect1_backgroundBlur_44_2870"/>
<feColorMatrix in="SourceAlpha" type="matrix" values="0 0 0 0 0 0 0 0 0 0 0 0 0 0 0 0 0 0 127 0" result="hardAlpha"/>
<feOffset dy="4"/>
<feGaussianBlur stdDeviation="4"/>
<feComposite in2="hardAlpha" operator="out"/>
<feColorMatrix type="matrix" values="0 0 0 0 0.805192 0 0 0 0 0.708514 0 0 0 0 0.638204 0 0 0 1 0"/>
<feBlend mode="normal" in2="effect1_backgroundBlur_44_2870" result="effect2_dropShadow_44_2870"/>
<feBlend mode="normal" in="SourceGraphic" in2="effect2_dropShadow_44_2870" result="shape"/>
<feColorMatrix in="SourceAlpha" type="matrix" values="0 0 0 0 0 0 0 0 0 0 0 0 0 0 0 0 0 0 127 0" result="hardAlpha"/>
<feOffset dy="0.5"/>
<feGaussianBlur stdDeviation="1"/>
<feComposite in2="hardAlpha" operator="arithmetic" k2="-1" k3="1"/>
<feColorMatrix type="matrix" values="0 0 0 0 1 0 0 0 0 1 0 0 0 0 1 0 0 0 0.1 0"/>
<feBlend mode="normal" in2="shape" result="effect3_innerShadow_44_2870"/>
<feColorMatrix in="SourceAlpha" type="matrix" values="0 0 0 0 0 0 0 0 0 0 0 0 0 0 0 0 0 0 127 0" result="hardAlpha"/>
<feOffset dy="6"/>
<feGaussianBlur stdDeviation="7"/>
<feComposite in2="hardAlpha" operator="arithmetic" k2="-1" k3="1"/>
<feColorMatrix type="matrix" values="0 0 0 0 1 0 0 0 0 1 0 0 0 0 1 0 0 0 0.4 0"/>
<feBlend mode="normal" in2="effect3_innerShadow_44_2870" result="effect4_innerShadow_44_2870"/>
<feColorMatrix in="SourceAlpha" type="matrix" values="0 0 0 0 0 0 0 0 0 0 0 0 0 0 0 0 0 0 127 0" result="hardAlpha"/>
<feOffset dy="-4"/>
<feGaussianBlur stdDeviation="9"/>
<feComposite in2="hardAlpha" operator="arithmetic" k2="-1" k3="1"/>
<feColorMatrix type="matrix" values="0 0 0 0 1 0 0 0 0 1 0 0 0 0 1 0 0 0 0.05 0"/>
<feBlend mode="normal" in2="effect4_innerShadow_44_2870" result="effect5_innerShadow_44_2870"/>
</filter>
<linearGradient id="paint0_linear_44_2870" x1="11.1321" y1="26.9689" x2="52.4574" y2="58.3865" gradientUnits="userSpaceOnUse">
<stop stop-color="white"/>
<stop offset="0.888184" stop-color="white"/>
</linearGradient>
</defs>
</svg>
