<svg width="25" height="24" viewBox="0 0 25 24" fill="none" xmlns="http://www.w3.org/2000/svg"><g clip-path="url(#clip0_2717_16839)"><path d="M24.35 9a6.75 6.75 0 0 1-9.463 6.188l-4.88 5.645a3 3 0 1 1-4.28-4.204c.013-.012.026-.025.04-.036l5.646-4.88a6.757 6.757 0 0 1 7.832-9.26.75.75 0 0 1 .368 1.236L16.1 7.5l.53 2.47 2.47.53 3.811-3.517a.75.75 0 0 1 1.237.368c.134.54.202 1.093.202 1.65Z" fill="#939393"/></g><defs><clipPath id="clip0_2717_16839"><path fill="#fff" d="M.6 0h24v24H.6z"/></clipPath></defs></svg>
