<svg width="179" height="142" viewBox="0 0 179 142" fill="none" xmlns="http://www.w3.org/2000/svg"><g filter="url(#filter0_bdiii_96_6899)"><path d="M131.637 18.125c-5.381-17.5-31.232-17.5-36.613 0l-1.303 4.25a18.11 18.11 0 0 1-4.112 7.065 19.09 19.09 0 0 1-6.886 4.673 19.797 19.797 0 0 1-8.314 1.368 19.69 19.69 0 0 1-8.116-2.206l-4.039-2.125c-16.717-8.725-34.997 8.813-25.89 24.837l2.202 3.888c5.812 10.25.3 23.013-11.362 26.313l-4.43 1.25c-18.241 5.162-18.241 29.962 0 35.124l4.43 1.25c2.731.772 5.248 2.12 7.365 3.946a18.323 18.323 0 0 1 4.871 6.606 17.637 17.637 0 0 1 1.425 7.975 17.74 17.74 0 0 1-2.299 7.786L36.351 154c-9.094 16.038 9.186 33.575 25.89 24.837l4.052-2.112a19.69 19.69 0 0 1 8.116-2.206 19.787 19.787 0 0 1 8.313 1.368 19.088 19.088 0 0 1 6.887 4.673 18.107 18.107 0 0 1 4.112 7.065l1.303 4.25c5.381 17.5 31.232 17.5 36.613 0l1.303-4.25a18.108 18.108 0 0 1 4.112-7.065 19.091 19.091 0 0 1 6.887-4.673 19.783 19.783 0 0 1 8.313-1.368c2.843.145 5.616.899 8.116 2.206l4.039 2.125c16.717 8.725 34.997-8.813 25.89-24.838l-2.202-3.887a17.729 17.729 0 0 1-2.299-7.786 17.62 17.62 0 0 1 1.425-7.975 18.318 18.318 0 0 1 4.871-6.606 19.318 19.318 0 0 1 7.365-3.946l4.43-1.25c18.241-5.162 18.241-29.962 0-35.124l-4.43-1.25a19.311 19.311 0 0 1-7.365-3.946 18.324 18.324 0 0 1-4.871-6.606 17.622 17.622 0 0 1-1.425-7.975 17.73 17.73 0 0 1 2.299-7.786L190.31 56c9.094-16.038-9.186-33.575-25.89-24.837l-4.052 2.112a19.694 19.694 0 0 1-8.116 2.206 19.794 19.794 0 0 1-8.313-1.368 19.093 19.093 0 0 1-6.887-4.673 18.111 18.111 0 0 1-4.112-7.065l-1.303-4.25Zm-18.306 123.5c-10.126 0-19.836-3.859-26.996-10.727-7.16-6.869-11.181-16.184-11.181-25.898 0-9.714 4.022-19.03 11.181-25.898 7.16-6.868 16.87-10.727 26.996-10.727 10.121 0 19.828 3.857 26.985 10.724 7.158 6.866 11.178 16.178 11.178 25.889 0 9.71-4.02 19.022-11.178 25.888-7.157 6.867-16.864 10.724-26.985 10.724v.025Z" fill="url(#paint0_linear_96_6899)" fill-opacity=".5" shape-rendering="crispEdges"/></g><defs><linearGradient id="paint0_linear_96_6899" x1="113.331" y1="5" x2="113.331" y2="205" gradientUnits="userSpaceOnUse"><stop stop-color="#4E8F7F"/><stop offset="1" stop-color="#fff"/></linearGradient><filter id="filter0_bdiii_96_6899" x="-13.907" y="-18" width="254.475" height="246" filterUnits="userSpaceOnUse" color-interpolation-filters="sRGB"><feFlood flood-opacity="0" result="BackgroundImageFix"/><feGaussianBlur in="BackgroundImageFix" stdDeviation="11.5"/><feComposite in2="SourceAlpha" operator="in" result="effect1_backgroundBlur_96_6899"/><feColorMatrix in="SourceAlpha" values="0 0 0 0 0 0 0 0 0 0 0 0 0 0 0 0 0 0 127 0" result="hardAlpha"/><feOffset dy="4"/><feGaussianBlur stdDeviation="4.5"/><feComposite in2="hardAlpha" operator="out"/><feColorMatrix values="0 0 0 0 0.0169705 0 0 0 0 0.32902 0 0 0 0 0.25248 0 0 0 1 0"/><feBlend in2="effect1_backgroundBlur_96_6899" result="effect2_dropShadow_96_6899"/><feBlend in="SourceGraphic" in2="effect2_dropShadow_96_6899" result="shape"/><feColorMatrix in="SourceAlpha" values="0 0 0 0 0 0 0 0 0 0 0 0 0 0 0 0 0 0 127 0" result="hardAlpha"/><feOffset dy=".5"/><feGaussianBlur stdDeviation="1"/><feComposite in2="hardAlpha" operator="arithmetic" k2="-1" k3="1"/><feColorMatrix values="0 0 0 0 1 0 0 0 0 1 0 0 0 0 1 0 0 0 0.15 0"/><feBlend in2="shape" result="effect3_innerShadow_96_6899"/><feColorMatrix in="SourceAlpha" values="0 0 0 0 0 0 0 0 0 0 0 0 0 0 0 0 0 0 127 0" result="hardAlpha"/><feOffset dy="6"/><feGaussianBlur stdDeviation="7"/><feComposite in2="hardAlpha" operator="arithmetic" k2="-1" k3="1"/><feColorMatrix values="0 0 0 0 1 0 0 0 0 1 0 0 0 0 1 0 0 0 0.15 0"/><feBlend in2="effect3_innerShadow_96_6899" result="effect4_innerShadow_96_6899"/><feColorMatrix in="SourceAlpha" values="0 0 0 0 0 0 0 0 0 0 0 0 0 0 0 0 0 0 127 0" result="hardAlpha"/><feOffset dy="-4"/><feGaussianBlur stdDeviation="9"/><feComposite in2="hardAlpha" operator="arithmetic" k2="-1" k3="1"/><feColorMatrix values="0 0 0 0 1 0 0 0 0 1 0 0 0 0 1 0 0 0 0.15 0"/><feBlend in2="effect4_innerShadow_96_6899" result="effect5_innerShadow_96_6899"/></filter></defs></svg>
