<svg xmlns="http://www.w3.org/2000/svg" width="67" height="72" fill="none"><path fill="#FF7F23" d="M66.749 37.1 58.505 6.33a3.752 3.752 0 0 0-4.582-2.645l-30.759 8.25a3.752 3.752 0 0 0-2.645 4.582l8.245 30.768a3.752 3.752 0 0 0 4.581 2.646l30.77-8.245a3.751 3.751 0 0 0 2.644-4.581l-.01-.006Z"/><g filter="url(#a)" shape-rendering="crispEdges"><path fill="url(#b)" fill-opacity=".52" d="M32.094 12a24 24 0 1 0 24 24 24.026 24.026 0 0 0-24-24Zm-8.308 16.615a2.77 2.77 0 1 1 0 5.539 2.77 2.77 0 0 1 0-5.539Zm19.135 13.847c-2.374 4.105-6.32 6.461-10.827 6.461s-8.453-2.354-10.828-6.462a1.845 1.845 0 1 1 3.194-1.846c1.724 2.98 4.433 4.616 7.634 4.616 3.2 0 5.91-1.639 7.634-4.616a1.847 1.847 0 0 1 3.429.417 1.847 1.847 0 0 1-.236 1.43Zm-2.52-8.308a2.77 2.77 0 1 1 0-5.538 2.77 2.77 0 0 1 0 5.538Z"/><path stroke="#fff" stroke-opacity=".2" stroke-width=".5" d="M18.899 16.253a23.75 23.75 0 0 1 13.195-4.003A23.776 23.776 0 0 1 55.844 36a23.75 23.75 0 1 1-36.945-19.747Zm3.672 23.137.03.248-.03-.248a2.096 2.096 0 0 0-1.519 3.201c2.417 4.177 6.442 6.582 11.042 6.582s8.625-2.407 11.041-6.582a2.096 2.096 0 1 0-3.626-2.096c-1.684 2.904-4.313 4.486-7.415 4.486-3.102 0-5.732-1.58-7.415-4.486a2.097 2.097 0 0 0-2.108-1.105Zm2.892-10.516a3.02 3.02 0 1 0-3.355 5.023 3.02 3.02 0 0 0 3.355-5.023Zm13.261 5.021a3.019 3.019 0 1 0 3.354-5.02 3.019 3.019 0 0 0-3.354 5.02Z"/></g><defs><linearGradient id="b" x1="10.846" x2="55.593" y1="20.973" y2="44.683" gradientUnits="userSpaceOnUse"><stop stop-color="#fff"/><stop offset=".888" stop-color="#fff"/></linearGradient><filter id="a" width="108" height="108" x="-21.906" y="-18" color-interpolation-filters="sRGB" filterUnits="userSpaceOnUse"><feFlood flood-opacity="0" result="BackgroundImageFix"/><feGaussianBlur in="BackgroundImageFix" stdDeviation="15"/><feComposite in2="SourceAlpha" operator="in" result="effect1_backgroundBlur_40000001_17466"/><feColorMatrix in="SourceAlpha" result="hardAlpha" values="0 0 0 0 0 0 0 0 0 0 0 0 0 0 0 0 0 0 127 0"/><feOffset dy="4"/><feGaussianBlur stdDeviation="4"/><feComposite in2="hardAlpha" operator="out"/><feColorMatrix values="0 0 0 0 0.805192 0 0 0 0 0.708514 0 0 0 0 0.638204 0 0 0 1 0"/><feBlend in2="effect1_backgroundBlur_40000001_17466" result="effect2_dropShadow_40000001_17466"/><feBlend in="SourceGraphic" in2="effect2_dropShadow_40000001_17466" result="shape"/><feColorMatrix in="SourceAlpha" result="hardAlpha" values="0 0 0 0 0 0 0 0 0 0 0 0 0 0 0 0 0 0 127 0"/><feOffset dy=".5"/><feGaussianBlur stdDeviation="1"/><feComposite in2="hardAlpha" k2="-1" k3="1" operator="arithmetic"/><feColorMatrix values="0 0 0 0 1 0 0 0 0 1 0 0 0 0 1 0 0 0 0.1 0"/><feBlend in2="shape" result="effect3_innerShadow_40000001_17466"/><feColorMatrix in="SourceAlpha" result="hardAlpha" values="0 0 0 0 0 0 0 0 0 0 0 0 0 0 0 0 0 0 127 0"/><feOffset dy="6"/><feGaussianBlur stdDeviation="7"/><feComposite in2="hardAlpha" k2="-1" k3="1" operator="arithmetic"/><feColorMatrix values="0 0 0 0 1 0 0 0 0 1 0 0 0 0 1 0 0 0 0.4 0"/><feBlend in2="effect3_innerShadow_40000001_17466" result="effect4_innerShadow_40000001_17466"/><feColorMatrix in="SourceAlpha" result="hardAlpha" values="0 0 0 0 0 0 0 0 0 0 0 0 0 0 0 0 0 0 127 0"/><feOffset dy="-4"/><feGaussianBlur stdDeviation="9"/><feComposite in2="hardAlpha" k2="-1" k3="1" operator="arithmetic"/><feColorMatrix values="0 0 0 0 1 0 0 0 0 1 0 0 0 0 1 0 0 0 0.05 0"/><feBlend in2="effect4_innerShadow_40000001_17466" result="effect5_innerShadow_40000001_17466"/></filter></defs></svg>