<svg width="66" height="70" viewBox="0 0 66 70" fill="none" xmlns="http://www.w3.org/2000/svg">
<path d="M62.4964 19.3242C61.7388 18.5323 60.955 17.7164 60.6595 16.9989C60.3862 16.3417 60.3701 15.2525 60.3541 14.1974C60.3239 12.2359 60.2918 10.0131 58.7463 8.46763C57.2008 6.92215 54.978 6.89 53.0165 6.85985C51.9614 6.84377 50.8722 6.8277 50.215 6.55437C49.4995 6.25894 48.6816 5.47515 47.8897 4.71748C46.503 3.38504 44.9274 1.87573 42.8292 1.87573C40.7311 1.87573 39.1575 3.38504 37.7688 4.71748C36.9769 5.47515 36.161 6.25894 35.4435 6.55437C34.7903 6.8277 33.697 6.84377 32.6419 6.85985C30.6804 6.89 28.4577 6.92215 26.9122 8.46763C25.3667 10.0131 25.3446 12.2359 25.3044 14.1974C25.2884 15.2525 25.2723 16.3417 24.999 16.9989C24.7035 17.7144 23.9197 18.5323 23.1621 19.3242C21.8296 20.7109 20.3203 22.2865 20.3203 24.3847C20.3203 26.4828 21.8296 28.0564 23.1621 29.4452C23.9197 30.237 24.7035 31.0529 24.999 31.7704C25.2723 32.4276 25.2884 33.5169 25.3044 34.572C25.3346 36.5335 25.3667 38.7562 26.9122 40.3017C28.4577 41.8472 30.6804 41.8793 32.6419 41.9095C33.697 41.9256 34.7863 41.9416 35.4435 42.215C36.159 42.5104 36.9769 43.2942 37.7688 44.0518C39.1555 45.3843 40.7311 46.8936 42.8292 46.8936C44.9274 46.8936 46.501 45.3843 47.8897 44.0518C48.6816 43.2942 49.4975 42.5104 50.215 42.215C50.8722 41.9416 51.9614 41.9256 53.0165 41.9095C54.978 41.8793 57.2008 41.8472 58.7463 40.3017C60.2918 38.7562 60.3239 36.5335 60.3541 34.572C60.3701 33.5169 60.3862 32.4276 60.6595 31.7704C60.955 31.0549 61.7388 30.237 62.4964 29.4452C63.8289 28.0584 65.3382 26.4828 65.3382 24.3847C65.3382 22.2865 63.8289 20.7129 62.4964 19.3242Z" fill="#FF7F23"/>
<g filter="url(#filter0_bdiii_44_2049)">
<path d="M51.3402 33.4272V49.6826C51.3402 51.8382 50.4683 53.9055 48.9164 55.4297C47.3645 56.954 45.2596 57.8103 43.0649 57.8103H31.4795C31.0405 57.8103 30.6195 57.639 30.3092 57.3342C29.9988 57.0293 29.8244 56.6159 29.8244 56.1847C29.8244 55.7536 29.9988 55.3402 30.3092 55.0353C30.6195 54.7305 31.0405 54.5592 31.4795 54.5592H43.0649C44.3817 54.5592 45.6447 54.0454 46.5758 53.1309C47.507 52.2163 48.0301 50.976 48.0301 49.6826H43.0649C41.748 49.6826 40.4851 49.1688 39.554 48.2543C38.6228 47.3397 38.0997 46.0993 38.0997 44.806V36.6783C38.0997 35.3849 38.6228 34.1445 39.554 33.23C40.4851 32.3155 41.748 31.8017 43.0649 31.8017H47.9577C47.6445 28.4225 46.3588 25.2005 44.2507 22.5122C42.1427 19.8239 39.2994 17.7802 36.0528 16.6198C32.8063 15.4594 29.2907 15.2303 25.9165 15.9591C22.5423 16.688 19.4489 18.3447 16.9977 20.7358C13.9496 23.6901 12.0696 27.612 11.6932 31.8017H16.5839C17.9008 31.8017 19.1637 32.3155 20.0948 33.23C21.026 34.1445 21.5491 35.3849 21.5491 36.6783V44.806C21.5491 46.0993 21.026 47.3397 20.0948 48.2543C19.1637 49.1688 17.9008 49.6826 16.5839 49.6826H13.2738C11.9569 49.6826 10.694 49.1688 9.76286 48.2543C8.83171 47.3397 8.30859 46.0993 8.30859 44.806L8.30859 33.4272C8.31323 29.2413 9.58221 25.1507 11.9549 21.6734C14.3276 18.1961 17.6974 15.4883 21.6376 13.8928C25.5779 12.2973 29.9115 11.8858 34.09 12.7104C38.2685 13.535 42.104 15.5586 45.111 18.5251C47.0963 20.4845 48.6684 22.8094 49.7374 25.3666C50.8063 27.9237 51.351 30.6629 51.3402 33.4272Z" fill="url(#paint0_linear_44_2049)" fill-opacity="0.52" shape-rendering="crispEdges"/>
<path d="M51.0902 33.4262V33.4272V49.6826C51.0902 51.7704 50.2458 53.7737 48.7412 55.2514C47.2365 56.7292 45.1948 57.5603 43.0649 57.5603H31.4795C31.1054 57.5603 30.7475 57.4143 30.4843 57.1558C30.2213 56.8975 30.0744 56.5481 30.0744 56.1847C30.0744 55.8214 30.2213 55.472 30.4843 55.2137C30.7475 54.9552 31.1054 54.8092 31.4795 54.8092H43.0649C44.4466 54.8092 45.7726 54.2702 46.751 53.3092C47.7295 52.3482 48.2801 51.0437 48.2801 49.6826V49.4326H48.0301H43.0649C41.8129 49.4326 40.6131 48.9441 39.7292 48.0759C38.8454 47.2079 38.3497 46.0316 38.3497 44.806V36.6783C38.3497 35.4527 38.8454 34.2764 39.7292 33.4084C40.6131 32.5402 41.8129 32.0517 43.0649 32.0517H47.9577H48.2319L48.2066 31.7786C47.8889 28.3512 46.5849 25.0838 44.4475 22.358C42.31 19.6322 39.4275 17.5605 36.137 16.3844C32.8465 15.2083 29.2834 14.9761 25.8637 15.7148C22.4441 16.4534 19.3085 18.1325 16.8234 20.5566C13.7329 23.5521 11.826 27.5295 11.4442 31.7793L11.4197 32.0517H11.6932H16.5839C17.8359 32.0517 19.0357 32.5402 19.9196 33.4084C20.8034 34.2764 21.2991 35.4527 21.2991 36.6783V44.806C21.2991 46.0316 20.8034 47.2079 19.9196 48.0759C19.0357 48.9441 17.8359 49.4326 16.5839 49.4326H13.2738C12.0218 49.4326 10.822 48.9441 9.93804 48.0759C9.05426 47.2079 8.55859 46.0316 8.55859 44.806L8.55859 33.4274C8.5632 29.2919 9.81686 25.2504 12.1614 21.8143C14.506 18.3782 17.8364 15.7017 21.7314 14.1245C25.6265 12.5473 29.9107 12.1405 34.0416 12.9557C38.1724 13.7709 41.9636 15.7713 44.9354 18.703C46.8973 20.6393 48.4506 22.9366 49.5067 25.463C50.5628 27.9894 51.1009 30.6955 51.0902 33.4262Z" stroke="white" stroke-opacity="0.2" stroke-width="0.5" shape-rendering="crispEdges"/>
</g>
<defs>
<filter id="filter0_bdiii_44_2049" x="-21.6914" y="-17.7041" width="103.032" height="105.514" filterUnits="userSpaceOnUse" color-interpolation-filters="sRGB">
<feFlood flood-opacity="0" result="BackgroundImageFix"/>
<feGaussianBlur in="BackgroundImageFix" stdDeviation="15"/>
<feComposite in2="SourceAlpha" operator="in" result="effect1_backgroundBlur_44_2049"/>
<feColorMatrix in="SourceAlpha" type="matrix" values="0 0 0 0 0 0 0 0 0 0 0 0 0 0 0 0 0 0 127 0" result="hardAlpha"/>
<feOffset dy="4"/>
<feGaussianBlur stdDeviation="4"/>
<feComposite in2="hardAlpha" operator="out"/>
<feColorMatrix type="matrix" values="0 0 0 0 0.805192 0 0 0 0 0.708514 0 0 0 0 0.638204 0 0 0 1 0"/>
<feBlend mode="normal" in2="effect1_backgroundBlur_44_2049" result="effect2_dropShadow_44_2049"/>
<feBlend mode="normal" in="SourceGraphic" in2="effect2_dropShadow_44_2049" result="shape"/>
<feColorMatrix in="SourceAlpha" type="matrix" values="0 0 0 0 0 0 0 0 0 0 0 0 0 0 0 0 0 0 127 0" result="hardAlpha"/>
<feOffset dy="0.5"/>
<feGaussianBlur stdDeviation="1"/>
<feComposite in2="hardAlpha" operator="arithmetic" k2="-1" k3="1"/>
<feColorMatrix type="matrix" values="0 0 0 0 1 0 0 0 0 1 0 0 0 0 1 0 0 0 0.1 0"/>
<feBlend mode="normal" in2="shape" result="effect3_innerShadow_44_2049"/>
<feColorMatrix in="SourceAlpha" type="matrix" values="0 0 0 0 0 0 0 0 0 0 0 0 0 0 0 0 0 0 127 0" result="hardAlpha"/>
<feOffset dy="6"/>
<feGaussianBlur stdDeviation="7"/>
<feComposite in2="hardAlpha" operator="arithmetic" k2="-1" k3="1"/>
<feColorMatrix type="matrix" values="0 0 0 0 1 0 0 0 0 1 0 0 0 0 1 0 0 0 0.4 0"/>
<feBlend mode="normal" in2="effect3_innerShadow_44_2049" result="effect4_innerShadow_44_2049"/>
<feColorMatrix in="SourceAlpha" type="matrix" values="0 0 0 0 0 0 0 0 0 0 0 0 0 0 0 0 0 0 127 0" result="hardAlpha"/>
<feOffset dy="-4"/>
<feGaussianBlur stdDeviation="9"/>
<feComposite in2="hardAlpha" operator="arithmetic" k2="-1" k3="1"/>
<feColorMatrix type="matrix" values="0 0 0 0 1 0 0 0 0 1 0 0 0 0 1 0 0 0 0.05 0"/>
<feBlend mode="normal" in2="effect4_innerShadow_44_2049" result="effect5_innerShadow_44_2049"/>
</filter>
<linearGradient id="paint0_linear_44_2049" x1="10.7763" y1="20.804" x2="51.8468" y2="41.3791" gradientUnits="userSpaceOnUse">
<stop stop-color="white"/>
<stop offset="0.888184" stop-color="white"/>
</linearGradient>
</defs>
</svg>
