<svg width="66" height="68" viewBox="0 0 66 68" fill="none" xmlns="http://www.w3.org/2000/svg">
<path d="M65.6239 38.4243L57.3797 7.65544C57.1203 6.69879 56.4928 5.88364 55.6344 5.38802C54.7759 4.8924 53.7563 4.75658 52.7981 5.01023L22.0395 13.2608C21.0828 13.5201 20.2677 14.1475 19.7721 15.0059C19.2766 15.8642 19.1408 16.8838 19.3945 17.842L27.6388 48.6108C27.8982 49.5675 28.5257 50.3826 29.3841 50.8783C30.2426 51.3739 31.2622 51.5097 32.2204 51.2561L62.9891 43.0114C63.9458 42.752 64.7609 42.1246 65.2565 41.2663C65.7521 40.4079 65.8878 39.3883 65.6341 38.4301L65.6239 38.4243Z" fill="#FF7F23"/>
<g filter="url(#filter0_bdiii_44_2043)">
<path d="M48.4778 11.5486L11.9284 11.5486C10.959 11.5486 10.0294 11.9337 9.34395 12.6191C8.65851 13.3045 8.27344 14.2342 8.27344 15.2035L8.27344 51.753C8.27344 52.7223 8.65851 53.652 9.34395 54.3374C10.0294 55.0228 10.959 55.4079 11.9284 55.4079H48.4778C49.4472 55.4079 50.3768 55.0228 51.0622 54.3374C51.7477 53.652 52.1327 52.7223 52.1327 51.753V15.2035C52.1327 14.2342 51.7477 13.3045 51.0622 12.6191C50.3768 11.9337 49.4472 11.5486 48.4778 11.5486ZM16.4971 47.1843C15.9549 47.1843 15.4249 47.0235 14.9741 46.7223C14.5233 46.4211 14.172 45.993 13.9645 45.4921C13.757 44.9912 13.7028 44.44 13.8085 43.9083C13.9143 43.3765 14.1754 42.8881 14.5587 42.5047C14.9421 42.1214 15.4305 41.8603 15.9623 41.7545C16.494 41.6488 17.0452 41.703 17.5461 41.9105C18.047 42.118 18.4751 42.4693 18.7763 42.9201C19.0775 43.3709 19.2383 43.9009 19.2383 44.4431C19.2383 45.1701 18.9495 45.8673 18.4354 46.3814C17.9213 46.8955 17.2241 47.1843 16.4971 47.1843ZM16.4971 36.2194C15.9549 36.2194 15.4249 36.0587 14.9741 35.7575C14.5233 35.4563 14.172 35.0281 13.9645 34.5273C13.757 34.0264 13.7028 33.4752 13.8085 32.9435C13.9143 32.4117 14.1754 31.9233 14.5587 31.5399C14.9421 31.1565 15.4305 30.8955 15.9623 30.7897C16.494 30.6839 17.0452 30.7382 17.5461 30.9457C18.047 31.1532 18.4751 31.5045 18.7763 31.9553C19.0775 32.4061 19.2383 32.9361 19.2383 33.4782C19.2383 34.2053 18.9495 34.9025 18.4354 35.4166C17.9213 35.9306 17.2241 36.2194 16.4971 36.2194ZM16.4971 25.2546C15.9549 25.2546 15.4249 25.0939 14.9741 24.7926C14.5233 24.4914 14.172 24.0633 13.9645 23.5624C13.757 23.0615 13.7028 22.5104 13.8085 21.9786C13.9143 21.4469 14.1754 20.9585 14.5587 20.5751C14.9421 20.1917 15.4305 19.9306 15.9623 19.8249C16.494 19.7191 17.0452 19.7734 17.5461 19.9809C18.047 20.1883 18.4751 20.5397 18.7763 20.9905C19.0775 21.4413 19.2383 21.9713 19.2383 22.5134C19.2383 23.2404 18.9495 23.9377 18.4354 24.4517C17.9213 24.9658 17.2241 25.2546 16.4971 25.2546ZM44.8229 46.2705H24.7207C24.236 46.2705 23.7712 46.078 23.4285 45.7353C23.0857 45.3926 22.8932 44.9277 22.8932 44.4431C22.8932 43.9584 23.0857 43.4936 23.4285 43.1508C23.7712 42.8081 24.236 42.6156 24.7207 42.6156H44.8229C45.3075 42.6156 45.7724 42.8081 46.1151 43.1508C46.4578 43.4936 46.6503 43.9584 46.6503 44.4431C46.6503 44.9277 46.4578 45.3926 46.1151 45.7353C45.7724 46.078 45.3075 46.2705 44.8229 46.2705ZM44.8229 35.3057H24.7207C24.236 35.3057 23.7712 35.1132 23.4285 34.7705C23.0857 34.4277 22.8932 33.9629 22.8932 33.4782C22.8932 32.9936 23.0857 32.5287 23.4285 32.186C23.7712 31.8433 24.236 31.6508 24.7207 31.6508H44.8229C45.3075 31.6508 45.7724 31.8433 46.1151 32.186C46.4578 32.5287 46.6503 32.9936 46.6503 33.4782C46.6503 33.9629 46.4578 34.4277 46.1151 34.7705C45.7724 35.1132 45.3075 35.3057 44.8229 35.3057ZM44.8229 24.3409H24.7207C24.236 24.3409 23.7712 24.1483 23.4285 23.8056C23.0857 23.4629 22.8932 22.9981 22.8932 22.5134C22.8932 22.0287 23.0857 21.5639 23.4285 21.2212C23.7712 20.8785 24.236 20.6859 24.7207 20.6859H44.8229C45.3075 20.6859 45.7724 20.8785 46.1151 21.2212C46.4578 21.5639 46.6503 22.0287 46.6503 22.5134C46.6503 22.9981 46.4578 23.4629 46.1151 23.8056C45.7724 24.1483 45.3075 24.3409 44.8229 24.3409Z" fill="url(#paint0_linear_44_2043)" fill-opacity="0.52" shape-rendering="crispEdges"/>
<path d="M11.9284 11.7986L48.4778 11.7986C49.3809 11.7986 50.2469 12.1573 50.8855 12.7959C51.524 13.4344 51.8827 14.3005 51.8827 15.2035V51.753C51.8827 52.656 51.524 53.5221 50.8855 54.1606C50.2469 54.7992 49.3809 55.1579 48.4778 55.1579H11.9284C11.0253 55.1579 10.1593 54.7992 9.52072 54.1606C8.88217 53.5221 8.52344 52.656 8.52344 51.753L8.52344 15.2035C8.52344 14.3005 8.88217 13.4344 9.52072 12.7959C10.1593 12.1573 11.0253 11.7986 11.9284 11.7986ZM14.8352 46.9302C15.3271 47.2588 15.9055 47.4343 16.4971 47.4343C17.2904 47.4343 18.0512 47.1191 18.6122 46.5582C19.1731 45.9972 19.4883 45.2364 19.4883 44.4431C19.4883 43.8515 19.3128 43.2731 18.9842 42.7812C18.6555 42.2893 18.1883 41.906 17.6417 41.6796C17.0952 41.4532 16.4937 41.3939 15.9135 41.5093C15.3333 41.6248 14.8003 41.9096 14.382 42.328C13.9636 42.7463 13.6787 43.2793 13.5633 43.8595C13.4479 44.4398 13.5071 45.0412 13.7335 45.5878C13.9599 46.1343 14.3433 46.6015 14.8352 46.9302ZM14.8352 35.9653C15.3271 36.294 15.9055 36.4694 16.4971 36.4694C17.2904 36.4694 18.0512 36.1543 18.6122 35.5933C19.1731 35.0324 19.4883 34.2716 19.4883 33.4782C19.4883 32.8866 19.3128 32.3083 18.9842 31.8164C18.6555 31.3245 18.1883 30.9411 17.6417 30.7147C17.0952 30.4883 16.4937 30.4291 15.9135 30.5445C15.3333 30.6599 14.8003 30.9448 14.382 31.3631C13.9636 31.7815 13.6787 32.3144 13.5633 32.8947C13.4479 33.4749 13.5071 34.0764 13.7335 34.6229C13.9599 35.1695 14.3433 35.6367 14.8352 35.9653ZM14.8352 25.0005C15.3271 25.3292 15.9055 25.5046 16.4971 25.5046C17.2904 25.5046 18.0512 25.1895 18.6122 24.6285C19.1731 24.0676 19.4883 23.3067 19.4883 22.5134C19.4883 21.9218 19.3128 21.3435 18.9842 20.8516C18.6555 20.3597 18.1883 19.9763 17.6417 19.7499C17.0952 19.5235 16.4937 19.4643 15.9135 19.5797C15.3333 19.6951 14.8003 19.98 14.382 20.3983C13.9636 20.8166 13.6787 21.3496 13.5633 21.9299C13.4479 22.5101 13.5071 23.1115 13.7335 23.6581C13.9599 24.2047 14.3433 24.6718 14.8352 25.0005ZM24.7207 46.5205H44.8229C45.3738 46.5205 45.9023 46.3017 46.2919 45.9121C46.6815 45.5225 46.9003 44.994 46.9003 44.4431C46.9003 43.8921 46.6815 43.3637 46.2919 42.9741C45.9023 42.5845 45.3738 42.3656 44.8229 42.3656H24.7207C24.1697 42.3656 23.6413 42.5845 23.2517 42.9741C22.8621 43.3637 22.6432 43.8921 22.6432 44.4431C22.6432 44.994 22.8621 45.5225 23.2517 45.9121C23.6413 46.3017 24.1697 46.5205 24.7207 46.5205ZM24.7207 35.5557H44.8229C45.3738 35.5557 45.9023 35.3368 46.2919 34.9472C46.6815 34.5576 46.9003 34.0292 46.9003 33.4782C46.9003 32.9273 46.6815 32.3988 46.2919 32.0092C45.9023 31.6196 45.3738 31.4008 44.8229 31.4008H24.7207C24.1697 31.4008 23.6413 31.6196 23.2517 32.0092C22.8621 32.3988 22.6432 32.9273 22.6432 33.4782C22.6432 34.0292 22.8621 34.5576 23.2517 34.9472C23.6413 35.3368 24.1697 35.5557 24.7207 35.5557ZM24.7207 24.5909H44.8229C45.3738 24.5909 45.9023 24.372 46.2919 23.9824C46.6815 23.5928 46.9003 23.0644 46.9003 22.5134C46.9003 21.9624 46.6815 21.434 46.2919 21.0444C45.9023 20.6548 45.3738 20.4359 44.8229 20.4359H24.7207C24.1697 20.4359 23.6413 20.6548 23.2517 21.0444C22.8621 21.434 22.6432 21.9624 22.6432 22.5134C22.6432 23.0644 22.8621 23.5928 23.2517 23.9824C23.6413 24.372 24.1697 24.5909 24.7207 24.5909Z" stroke="white" stroke-opacity="0.2" stroke-width="0.5" shape-rendering="crispEdges"/>
</g>
<defs>
<filter id="filter0_bdiii_44_2043" x="-21.7266" y="-18.4514" width="103.859" height="103.859" filterUnits="userSpaceOnUse" color-interpolation-filters="sRGB">
<feFlood flood-opacity="0" result="BackgroundImageFix"/>
<feGaussianBlur in="BackgroundImageFix" stdDeviation="15"/>
<feComposite in2="SourceAlpha" operator="in" result="effect1_backgroundBlur_44_2043"/>
<feColorMatrix in="SourceAlpha" type="matrix" values="0 0 0 0 0 0 0 0 0 0 0 0 0 0 0 0 0 0 127 0" result="hardAlpha"/>
<feOffset dy="4"/>
<feGaussianBlur stdDeviation="4"/>
<feComposite in2="hardAlpha" operator="out"/>
<feColorMatrix type="matrix" values="0 0 0 0 0.805192 0 0 0 0 0.708514 0 0 0 0 0.638204 0 0 0 1 0"/>
<feBlend mode="normal" in2="effect1_backgroundBlur_44_2043" result="effect2_dropShadow_44_2043"/>
<feBlend mode="normal" in="SourceGraphic" in2="effect2_dropShadow_44_2043" result="shape"/>
<feColorMatrix in="SourceAlpha" type="matrix" values="0 0 0 0 0 0 0 0 0 0 0 0 0 0 0 0 0 0 127 0" result="hardAlpha"/>
<feOffset dy="0.5"/>
<feGaussianBlur stdDeviation="1"/>
<feComposite in2="hardAlpha" operator="arithmetic" k2="-1" k3="1"/>
<feColorMatrix type="matrix" values="0 0 0 0 1 0 0 0 0 1 0 0 0 0 1 0 0 0 0.1 0"/>
<feBlend mode="normal" in2="shape" result="effect3_innerShadow_44_2043"/>
<feColorMatrix in="SourceAlpha" type="matrix" values="0 0 0 0 0 0 0 0 0 0 0 0 0 0 0 0 0 0 127 0" result="hardAlpha"/>
<feOffset dy="6"/>
<feGaussianBlur stdDeviation="7"/>
<feComposite in2="hardAlpha" operator="arithmetic" k2="-1" k3="1"/>
<feColorMatrix type="matrix" values="0 0 0 0 1 0 0 0 0 1 0 0 0 0 1 0 0 0 0.4 0"/>
<feBlend mode="normal" in2="effect3_innerShadow_44_2043" result="effect4_innerShadow_44_2043"/>
<feColorMatrix in="SourceAlpha" type="matrix" values="0 0 0 0 0 0 0 0 0 0 0 0 0 0 0 0 0 0 127 0" result="hardAlpha"/>
<feOffset dy="-4"/>
<feGaussianBlur stdDeviation="9"/>
<feComposite in2="hardAlpha" operator="arithmetic" k2="-1" k3="1"/>
<feColorMatrix type="matrix" values="0 0 0 0 1 0 0 0 0 1 0 0 0 0 1 0 0 0 0.05 0"/>
<feBlend mode="normal" in2="effect4_innerShadow_44_2043" result="effect5_innerShadow_44_2043"/>
</filter>
<linearGradient id="paint0_linear_44_2043" x1="10.7886" y1="19.7473" x2="51.6752" y2="41.4119" gradientUnits="userSpaceOnUse">
<stop stop-color="white"/>
<stop offset="0.888184" stop-color="white"/>
</linearGradient>
</defs>
</svg>
