<svg xmlns="http://www.w3.org/2000/svg" width="27" height="19" fill="none"><path fill="#fff" d="m26.887 6.972-1.531-3.828A1.742 1.742 0 0 0 23.73 2.05H19.95v-.875A.875.875 0 0 0 19.074.3H2.45A1.75 1.75 0 0 0 .7 2.05V14.3a1.75 1.75 0 0 0 1.75 1.75h1.86a3.5 3.5 0 0 0 6.78 0h5.47a3.5 3.5 0 0 0 6.78 0h1.86a1.75 1.75 0 0 0 1.75-1.75v-7a.89.89 0 0 0-.062-.328ZM7.699 16.925a1.75 1.75 0 1 1 0-3.5 1.75 1.75 0 0 1 0 3.5Zm12.25 0a1.75 1.75 0 1 1 0-3.5 1.75 1.75 0 0 1 0 3.5Zm0-10.5V3.8h3.782l1.05 2.625H19.95Z"/></svg>