<svg xmlns="http://www.w3.org/2000/svg" width="22" height="22" fill="none"><path fill="#fff" d="m20.986 4.453-1.75-3.5a.875.875 0 0 0-.783-.484H2.703a.875.875 0 0 0-.783.484l-1.75 3.5a.884.884 0 0 0-.092.391V19.72a1.75 1.75 0 0 0 1.75 1.75h17.5a1.75 1.75 0 0 0 1.75-1.75V4.844a.882.882 0 0 0-.092-.391Zm-6.289 9.76-3.5 3.5a.876.876 0 0 1-1.238 0l-3.5-3.5a.875.875 0 1 1 1.238-1.238l2.006 2.007V8.344a.875.875 0 0 1 1.75 0v6.638l2.006-2.007a.875.875 0 1 1 1.238 1.238ZM2.368 3.97l.875-1.75h14.67l.875 1.75H2.368Z"/></svg>