<svg xmlns="http://www.w3.org/2000/svg" width="27" height="24" fill="none"><path fill="#fff" d="M26.047 21.797h-1.72V9.547a1.75 1.75 0 0 0-1.75-1.75h-4.813a.437.437 0 0 0-.438.437v13.563h-1.75V2.592a1.797 1.797 0 0 0-.674-1.422 1.75 1.75 0 0 0-2.047-.076l-8.75 5.828a1.75 1.75 0 0 0-.779 1.459v13.416h-1.72a.894.894 0 0 0-.905.817.875.875 0 0 0 .875.933h24.5a.877.877 0 0 0 .875-.933.895.895 0 0 0-.904-.817ZM8.139 19.172a.876.876 0 0 1-.933.875.895.895 0 0 1-.817-.906v-1.69a.896.896 0 0 1 .817-.904.874.874 0 0 1 .933.875v1.75Zm0-6.125a.876.876 0 0 1-.933.875.896.896 0 0 1-.817-.906v-1.69a.896.896 0 0 1 .817-.904.874.874 0 0 1 .933.875v1.75Z"/></svg>