<svg width="46" height="46" viewBox="0 0 46 46" fill="none" xmlns="http://www.w3.org/2000/svg"><rect width="46" height="46" rx="23" fill="#FF7F23"/><path d="M18.978 11h7.056C32.479 11 34 12.533 34 18.978v7.056C34 32.479 32.467 34 26.022 34h-7.056C12.521 34 11 32.467 11 26.022v-7.056C11 12.533 12.533 11 18.978 11Z" fill="#fff"/><mask id="mask0_20_9772" maskUnits="userSpaceOnUse" x="11" y="11" width="23" height="23"><path d="M18.978 11h7.056C32.479 11 34 12.533 34 18.978v7.056C34 32.479 32.467 34 26.022 34h-7.056C12.521 34 11 32.467 11 26.022v-7.056C11 12.533 12.533 11 18.978 11Z" fill="#fff"/></mask><g mask="url('#mask0_20_9772')"><path d="M10.401 10.401H34.6V34.6H10.401V10.401Z" fill="#fff"/></g><path fill-rule="evenodd" clip-rule="evenodd" d="M30.132 18.671c.112-.395 0-.671-.526-.671h-1.75c-.45 0-.65.25-.763.526 0 0-.888 2.29-2.151 3.764-.413.434-.588.565-.813.565-.113 0-.275-.131-.275-.526V18.67c0-.474-.125-.671-.5-.671h-2.751a.442.442 0 0 0-.45.421c0 .447.625.553.7 1.79v2.71c0 .592-.1.697-.326.697-.587 0-2.038-2.29-2.888-4.92-.175-.488-.338-.698-.788-.698h-1.75c-.501 0-.601.25-.601.526 0 .487.588 2.908 2.764 6.106 1.45 2.184 3.489 3.368 5.34 3.368 1.112 0 1.25-.263 1.25-.71v-1.658c0-.527.1-.632.463-.632.262 0 .7.132 1.738 1.184 1.188 1.25 1.388 1.816 2.05 1.816h1.752c.5 0 .75-.263.6-.776-.163-.514-.726-1.264-1.476-2.158-.413-.513-1.025-1.053-1.2-1.33-.263-.354-.188-.512 0-.815 0-.013 2.138-3.171 2.35-4.25Z" fill="#FF7F23"/></svg>