<svg width="48" height="44" viewBox="0 0 48 44" fill="none" xmlns="http://www.w3.org/2000/svg">
<path fill-rule="evenodd" clip-rule="evenodd" d="M24 43.0827C36.7025 43.0827 47 33.6433 47 21.9993C47 10.3553 36.7025 0.916016 24 0.916016C11.2975 0.916016 1 10.3553 1 21.9993C1 33.6433 11.2975 43.0827 24 43.0827ZM24.548 11C27.6115 11.0011 30.4869 12.0892 32.649 14.0639C34.8112 16.0386 36.0012 18.6634 36 21.455C35.9974 27.2153 30.8597 31.9022 24.5482 31.9022H24.5434C22.6268 31.9014 20.7435 31.4628 19.0709 30.6306L13 32.0833L14.6246 26.6695C13.6225 25.0853 13.0952 23.2879 13.096 21.4466C13.0985 15.6863 18.2359 11 24.548 11ZM24.5443 30.1377H24.5482C29.7944 30.1377 34.0643 26.2423 34.0665 21.4543C34.0675 19.1341 33.0783 16.9524 31.2812 15.3111C29.4841 13.6698 27.0942 12.7654 24.5519 12.7645C19.3016 12.7645 15.0316 16.6596 15.0296 21.4473C15.0288 23.0879 15.5321 24.6859 16.4849 26.0685L16.7112 26.397L15.7496 29.6013L19.3521 28.7391L19.6997 28.9273C21.1611 29.7185 22.8363 30.1371 24.5443 30.1377ZM27.8139 22.785C28.0762 22.8721 29.483 23.5037 29.7692 23.6343C29.825 23.6598 29.8772 23.6828 29.9256 23.7042C30.1252 23.7922 30.26 23.8516 30.3176 23.9392C30.3891 24.0481 30.3891 24.5708 30.1507 25.1806C29.9122 25.7903 28.769 26.3469 28.2193 26.4218C27.7262 26.489 27.1024 26.5171 26.4169 26.3184C26.0014 26.1981 25.4684 26.0375 24.7857 25.7685C22.1034 24.712 20.2907 22.3404 19.9478 21.8918C19.9237 21.8603 19.9069 21.8383 19.8975 21.8269L19.8951 21.824C19.7434 21.6393 18.7291 20.4044 18.7291 19.1265C18.7291 17.924 19.3766 17.2938 19.6746 17.0037C19.695 16.9838 19.7138 16.9655 19.7306 16.9488C19.9929 16.6874 20.3029 16.6221 20.4936 16.6221C20.6844 16.6221 20.8753 16.6237 21.0421 16.6313C21.0626 16.6322 21.0839 16.6321 21.106 16.632C21.2728 16.6311 21.4808 16.6299 21.6859 17.0794C21.765 17.2529 21.881 17.5105 22.0032 17.7819C22.2491 18.328 22.5203 18.9303 22.5681 19.0176C22.6397 19.1483 22.6873 19.3007 22.5919 19.475C22.5777 19.501 22.5645 19.5255 22.5519 19.549C22.4802 19.6826 22.4275 19.7808 22.3058 19.9105C22.2581 19.9613 22.2088 20.0161 22.1596 20.0708C22.061 20.1803 21.9624 20.2898 21.8766 20.3678C21.7334 20.4979 21.5842 20.6392 21.7511 20.9006C21.918 21.1619 22.4924 22.0168 23.343 22.7089C24.2574 23.453 25.0521 23.7675 25.4549 23.9269C25.5336 23.958 25.5973 23.9832 25.6441 24.0046C25.9302 24.1352 26.0971 24.1134 26.264 23.9392C26.431 23.765 26.9794 23.177 27.1701 22.9157C27.3609 22.6544 27.5516 22.6979 27.8139 22.785Z" fill="#FF7F23"/>
</svg>
