<svg xmlns="http://www.w3.org/2000/svg" width="67" height="71" fill="none"><path fill="#FF7F23" d="M63.496 19.324c-.757-.792-1.541-1.608-1.837-2.325-.273-.657-.289-1.746-.305-2.802-.03-1.961-.062-4.184-1.608-5.73-1.545-1.545-3.768-1.577-5.73-1.607-1.055-.016-2.144-.032-2.801-.306-.716-.295-1.533-1.079-2.325-1.837-1.387-1.332-2.963-2.841-5.06-2.841-2.099 0-3.672 1.509-5.061 2.841-.792.758-1.608 1.542-2.325 1.837-.654.274-1.747.29-2.802.306-1.962.03-4.184.062-5.73 1.608-1.545 1.545-1.567 3.768-1.608 5.73-.016 1.054-.032 2.144-.305 2.8-.296.716-1.08 1.534-1.837 2.326-1.332 1.387-2.842 2.962-2.842 5.06 0 2.099 1.51 3.672 2.842 5.061.758.792 1.541 1.608 1.837 2.325.273.658.29 1.747.305 2.802.03 1.961.063 4.184 1.608 5.73 1.546 1.545 3.768 1.577 5.73 1.608 1.055.016 2.144.032 2.801.305.716.295 1.534 1.08 2.326 1.837 1.387 1.332 2.962 2.842 5.06 2.842 2.098 0 3.672-1.51 5.06-2.842.793-.758 1.608-1.542 2.326-1.837.657-.273 1.746-.29 2.801-.306 1.962-.03 4.185-.062 5.73-1.607 1.546-1.546 1.578-3.769 1.608-5.73.016-1.055.032-2.144.306-2.802.295-.715 1.079-1.533 1.836-2.325 1.333-1.387 2.842-2.962 2.842-5.06 0-2.099-1.51-3.672-2.842-5.06Z"/><g filter="url(#a)" shape-rendering="crispEdges"><path fill="url(#b)" fill-opacity=".52" d="M55.639 28.268A16.27 16.27 0 0 1 32.833 43.18L21.07 56.787a1.723 1.723 0 0 1-.089.095 7.23 7.23 0 1 1-10.225-10.226c.031-.03.063-.061.097-.088l13.605-11.761a16.285 16.285 0 0 1 18.875-22.32 1.808 1.808 0 0 1 .888 2.98l-8.466 9.186 1.28 5.953 5.95 1.277 9.184-8.478a1.808 1.808 0 0 1 2.98.888c.325 1.3.489 2.635.489 3.975Z"/><path stroke="#fff" stroke-opacity=".2" stroke-width=".5" d="M55.389 28.268a16.02 16.02 0 0 1-14.694 15.98 16.017 16.017 0 0 1-7.762-1.296l-.169-.075-.12.14L20.88 56.624c-.023.027-.05.056-.075.081a6.98 6.98 0 0 1-9.876-9.87l.03-.027c.02-.019.033-.032.05-.045l.007-.006 13.606-11.761.14-.12-.074-.17A16.035 16.035 0 0 1 43.273 12.73a1.557 1.557 0 0 1 .765 2.568l-8.465 9.185-.088.095.027.127 1.279 5.954.034.158.158.034 5.95 1.276.128.028.095-.088 9.184-8.478a1.558 1.558 0 0 1 2.568.765c.32 1.28.48 2.595.48 3.914Z"/></g><defs><linearGradient id="b" x1="11.334" x2="55.148" y1="20.786" y2="44.002" gradientUnits="userSpaceOnUse"><stop stop-color="#fff"/><stop offset=".888" stop-color="#fff"/></linearGradient><filter id="a" width="107" height="107" x="-21.361" y="-18" color-interpolation-filters="sRGB" filterUnits="userSpaceOnUse"><feFlood flood-opacity="0" result="BackgroundImageFix"/><feGaussianBlur in="BackgroundImageFix" stdDeviation="15"/><feComposite in2="SourceAlpha" operator="in" result="effect1_backgroundBlur_40000001_20238"/><feColorMatrix in="SourceAlpha" result="hardAlpha" values="0 0 0 0 0 0 0 0 0 0 0 0 0 0 0 0 0 0 127 0"/><feOffset dy="4"/><feGaussianBlur stdDeviation="4"/><feComposite in2="hardAlpha" operator="out"/><feColorMatrix values="0 0 0 0 0.805192 0 0 0 0 0.708514 0 0 0 0 0.638204 0 0 0 1 0"/><feBlend in2="effect1_backgroundBlur_40000001_20238" result="effect2_dropShadow_40000001_20238"/><feBlend in="SourceGraphic" in2="effect2_dropShadow_40000001_20238" result="shape"/><feColorMatrix in="SourceAlpha" result="hardAlpha" values="0 0 0 0 0 0 0 0 0 0 0 0 0 0 0 0 0 0 127 0"/><feOffset dy=".5"/><feGaussianBlur stdDeviation="1"/><feComposite in2="hardAlpha" k2="-1" k3="1" operator="arithmetic"/><feColorMatrix values="0 0 0 0 1 0 0 0 0 1 0 0 0 0 1 0 0 0 0.1 0"/><feBlend in2="shape" result="effect3_innerShadow_40000001_20238"/><feColorMatrix in="SourceAlpha" result="hardAlpha" values="0 0 0 0 0 0 0 0 0 0 0 0 0 0 0 0 0 0 127 0"/><feOffset dy="6"/><feGaussianBlur stdDeviation="7"/><feComposite in2="hardAlpha" k2="-1" k3="1" operator="arithmetic"/><feColorMatrix values="0 0 0 0 1 0 0 0 0 1 0 0 0 0 1 0 0 0 0.4 0"/><feBlend in2="effect3_innerShadow_40000001_20238" result="effect4_innerShadow_40000001_20238"/><feColorMatrix in="SourceAlpha" result="hardAlpha" values="0 0 0 0 0 0 0 0 0 0 0 0 0 0 0 0 0 0 127 0"/><feOffset dy="-4"/><feGaussianBlur stdDeviation="9"/><feComposite in2="hardAlpha" k2="-1" k3="1" operator="arithmetic"/><feColorMatrix values="0 0 0 0 1 0 0 0 0 1 0 0 0 0 1 0 0 0 0.05 0"/><feBlend in2="effect4_innerShadow_40000001_20238" result="effect5_innerShadow_40000001_20238"/></filter></defs></svg>